<?xml version="1.0" encoding="UTF-8"?>
<svg xmlns="http://www.w3.org/2000/svg" xmlns:xlink="http://www.w3.org/1999/xlink" viewBox="0 0 1690.09 935.69">
  <defs>
    <style>
      .cls-1 {
        fill: #ff9770;
      }

      .cls-1, .cls-2, .cls-3, .cls-4, .cls-5, .cls-6, .cls-7, .cls-8, .cls-9, .cls-10, .cls-11, .cls-12, .cls-13, .cls-14, .cls-15, .cls-16, .cls-17, .cls-18 {
        stroke-miterlimit: 10;
      }

      .cls-1, .cls-2, .cls-3, .cls-5, .cls-6, .cls-7, .cls-8, .cls-9, .cls-10, .cls-11, .cls-12, .cls-13, .cls-14, .cls-15, .cls-16, .cls-17, .cls-18 {
        stroke: #333;
        stroke-linecap: round;
      }

      .cls-2 {
        fill: #70d6ff;
      }

      .cls-3 {
        fill: #e9ff70;
      }

      .cls-4 {
        fill: #008b52;
        stroke: #008b52;
      }

      .cls-5 {
        fill: #8338ec;
      }

      .cls-6 {
        fill: #ffd670;
      }

      .cls-7 {
        fill: #fc2f00;
      }

      .cls-19 {
        stroke-dasharray: 0 0 1.97 1.97;
      }

      .cls-19, .cls-20, .cls-21, .cls-22, .cls-23 {
        fill: none;
        stroke: gray;
        stroke-linejoin: round;
        stroke-width: .5px;
      }

      .cls-8 {
        fill: #ec0868;
      }

      .cls-9 {
        fill: #ffbc0a;
      }

      .cls-10 {
        fill: #ec7d10;
      }

      .cls-20 {
        stroke-dasharray: 0 0 2 2;
      }

      .cls-11 {
        fill: #ffbe0b;
      }

      .cls-12 {
        fill: #c200fb;
      }

      .cls-13 {
        fill: #3a86ff;
      }

      .cls-24 {
        font-family: 'UDKakugo_LargePr6N-M-90ms-RKSJ-H', 'FOT-UDKakugo_Large Pr6N';
        font-size: 48px;
      }

      .cls-14 {
        fill: #fb5607;
      }

      .cls-22 {
        stroke-dasharray: 0 0 2.01 2.01;
      }

      .cls-15 {
        fill: #ff006e;
      }

      .cls-16 {
        fill: #fff;
      }

      .cls-17 {
        fill: #ff70a6;
      }

      .cls-18 {
        fill: #8ee3ef;
      }

      .cls-23 {
        stroke-dasharray: 0 0 2 2;
      }
    </style>
  </defs>
  <g id="_01_okinawa" data-name="01_okinawa">
    <g id="g50">
      <a xlink:href="http://ja.wikipedia.org/wiki/那覇市">
        <g id="a52">
          <g id="use54">
            <path id="_47201" data-name="47201" class="cls-4" d="m1044.92,601.3l-.81-3.24,1.62-4.85-13.75.81-6.47-3.24h-.81l-.81-.81h-1.62l-.81-.81h-2.43l1.62,2.43-1.62,4.05,4.05-4.05,1.62,7.28-8.09,2.43,4.85,4.85-8.9-4.85-5.66,8.09,3.24,8.9,9.71-1.62,4.85-3.24v-4.05l4.85,1.62,4.85,1.62,10.52-11.33Z"/>
          </g>
        </g>
      </a>
      <a xlink:href="http://ja.wikipedia.org/wiki/宜野湾市">
        <g id="a56">
          <g id="use58">
            <path id="_47205" data-name="47205" class="cls-4" d="m1060.29,577.83l4.05-5.66-3.24-4.05-8.09.81-7.28,4.05.81,1.62-4.05-.81-1.62,4.05,1.62,2.43.81,5.66,4.05-1.62,4.05,2.43,6.47-.81,2.43-8.09Z"/>
          </g>
        </g>
      </a>
      <a xlink:href="http://ja.wikipedia.org/wiki/浦添市">
        <g id="a60">
          <g id="use62">
            <path id="_47208" data-name="47208" class="cls-4" d="m1051.39,586.73l-4.05-2.43-4.05,1.62-.81-5.66-1.62-2.43h-7.28l-5.66,8.09-3.24-.81v2.43l.81,3.24,6.47,3.24,13.75-.81,5.66-6.47Zm-29.94,2.43l1.62-1.62-4.05,1.62h2.43Z"/>
          </g>
        </g>
      </a>
      <a xlink:href="http://ja.wikipedia.org/wiki/名護市">
        <g id="a64">
          <g id="use66">
            <path id="_47209" data-name="47209" class="cls-4" d="m1152.53,405.5l-8.09,1.62-2.43,6.47,4.05,3.24,2.43.81,1.62-3.24,7.28,4.85v-4.85l-4.85-8.9Zm38.03,53.4h6.47v-5.66l4.85-.81-4.85-6.47-4.05-4.05-4.05.81-8.09-7.28.81-3.24-4.85-5.66-1.62-6.47-10.52,4.05h-7.28l-3.24,3.24-7.28-1.62-1.62-4.05-4.85-2.43-4.05,4.05-1.62-1.62-1.62,2.43-2.43-1.62h-1.62l-4.85,4.05-9.71-1.62-8.09,8.09.81,3.24-.81.81,5.66,1.62,4.05-3.24,15.37,8.09h5.66l1.62,5.66-3.24,7.28-4.85,8.09-4.05-2.43-4.05,4.85-3.24-3.24-1.62,4.85,4.85,8.9,5.66-.81,3.24-4.85h3.24v-3.24l4.85,4.85,4.05,4.05,3.24,1.62,1.62-4.05,5.66,1.62,3.24-2.43,7.28-1.62-5.66-10.52-1.62-3.24,3.24-.81.81,3.24,8.09-2.43,3.24,2.43,8.09,5.66-.81-3.24,3.24.81.81-2.43,6.47-3.24Z"/>
          </g>
        </g>
      </a>
      <a xlink:href="http://ja.wikipedia.org/wiki/糸満市">
        <g id="a68">
          <g id="use70">
            <path id="_47210" data-name="47210" class="cls-4" d="m1043.3,652.27l-4.85-3.24-4.05-9.71,2.43-7.28h-4.85l-2.43-2.43,4.05-5.66-.81-2.43-12.95,7.28-8.09,3.24,1.62,8.09v-4.05l6.47.81-2.43,1.62,1.62,4.05h-2.43l-1.62,15.37,5.66,2.43,3.24,1.62,5.66-4.85,10.52-1.62,3.24-3.24Z"/>
          </g>
        </g>
      </a>
      <a xlink:href="http://ja.wikipedia.org/wiki/沖縄市">
        <g id="a72">
          <g id="use74">
            <path id="_47211" data-name="47211" class="cls-4" d="m1067.58,557.61l4.05-2.43,1.62,8.9,7.28.81v-4.05l4.85-.81,1.62-1.62-4.85-3.24,3.24-3.24-8.09-10.52,5.66-8.9-4.05-5.66-2.43,2.43-3.24-4.85-2.43,3.24-6.47-12.14v-.81l-.81,2.43v12.14l-2.43,8.9,2.43,8.09-3.24,1.62-1.62,1.62,3.24,8.09-.81,1.62h2.43l2.43.81,1.62-2.43Zm22.65-2.43l-4.85-3.24-2.43,1.62,7.28,1.62Z"/>
          </g>
        </g>
      </a>
      <a xlink:href="http://ja.wikipedia.org/wiki/豊見城市">
        <g id="a76">
          <g id="use78">
            <path id="_47212" data-name="47212" class="cls-4" d="m1036.02,617.48h.81l-2.43-4.85-4.85-1.62-4.85-1.62v4.05l-4.85,3.24-9.71,1.62-1.62.81h4.85l-1.62,1.62,8.09,8.09,12.95-7.28,3.24-4.05Z"/>
          </g>
        </g>
      </a>
      <a xlink:href="http://ja.wikipedia.org/wiki/うるま市">
        <g id="a80">
          <g id="use82">
            <path id="_47213" data-name="47213" class="cls-4" d="m1096.7,529.29l-7.28-4.85-3.24-2.43,2.43-.81-4.85-1.62-4.85-5.66,1.62-3.24,4.05,1.62.81-1.62-.81-1.62-2.43-5.66h-.81l-5.66,1.62-11.33,9.71v.81l6.47,12.14,2.43-3.24,3.24,4.85,2.43-2.43,4.05,5.66-5.66,8.9,8.09,10.52,5.66-4.05h2.43l15.37,18.61,1.62-.81-.81,2.43.81-2.43,4.85,3.24.81-3.24-1.62-6.47-5.66-5.66,4.05-.81h-5.66l-4.85-3.24-5.66-8.09.81-5.66v-1.62h2.43l-3.24-4.85Zm49.35-4.05v-.81l-3.24-.81-2.43,5.66,4.05,2.43,1.62-6.47Zm-11.33,17.8l7.28-1.62,1.62-4.05-4.05-2.43.81-4.85-5.66,4.05-1.62,5.66,1.62,3.24Zm-1.62,0l-.81-4.05-4.05,3.24h-4.05l-.81-2.43,1.62,8.9-4.85,4.05h-7.28l16.99-2.43,5.66-4.85-2.43-2.43Zm-42.88,12.14l.81-3.24,4.85,1.62-3.24-5.66-7.28,4.05,4.85,3.24Zm36.41,1.62l.81,4.05,2.43,1.62,3.24-6.47-4.85-1.62-1.62,2.43Zm-12.95.81l4.85,3.24-2.43-4.05-2.43.81Zm8.9,33.17l2.43-2.43-.81-6.47-3.24.81-.81,5.66,2.43,2.43Z"/>
          </g>
        </g>
      </a>
      <a xlink:href="http://ja.wikipedia.org/wiki/南城市">
        <g id="a84">
          <g id="use86">
            <path id="_47215" data-name="47215" class="cls-4" d="m1064.34,637.7l16.18-14.56.81-4.05-4.05-1.62v-4.85l-7.28,1.62-5.66,7.28-3.24-.81v-6.47l-.81-.81-4.05,1.62-1.62-4.05-5.66-1.62-2.43.81-4.05,12.14.81,6.47,3.24.81,8.9,10.52,4.85-4.05,3.24,1.62h.81Zm46.93-16.99l-10.52,6.47.81.81,9.71-7.28Z"/>
          </g>
        </g>
      </a>
      <a xlink:href="http://ja.wikipedia.org/wiki/国頭村">
        <g id="a88">
          <g id="use90">
            <path id="_47301" data-name="47301" class="cls-4" d="m1260.14,383.65l4.85-2.43v-3.24l3.24-2.43-2.43-4.05,1.62-11.33-3.24-3.24.81-8.9-4.85-6.47-.81-4.85-1.62-2.43-4.05,1.62-3.24-3.24-7.28-6.47.81-3.24-3.24-.81-4.05,6.47,3.24,4.05-.81,5.66-7.28,13.75v2.43l-9.71,12.14-8.09,8.9-12.95,3.24,3.24,3.24-1.62,7.28,17.8,11.33,8.09-7.28,7.28,1.62.81,5.66,8.09,9.71,4.05-2.43,2.43-9.71,5.66-6.47-1.62-3.24,4.05-.81.81-4.05Z"/>
          </g>
        </g>
      </a>
      <a xlink:href="http://ja.wikipedia.org/wiki/大宜味村">
        <g id="a92">
          <g id="use94">
            <path id="_47302" data-name="47302" class="cls-4" d="m1220.49,400.64l-17.8-11.33-4.05,4.05-10.52,2.43-5.66,9.71,1.62,3.24,5.66.81,2.43,4.05h-5.66v-3.24l-11.33,9.71,1.62,6.47,4.85,5.66,13.75-13.75,8.9,2.43,16.18-20.23Z"/>
          </g>
        </g>
      </a>
      <a xlink:href="http://ja.wikipedia.org/wiki/東村">
        <g id="a96">
          <g id="use98">
            <path id="_47303" data-name="47303" class="cls-4" d="m1180.85,435.44l8.09,7.28,4.05-.81v-.81l-1.62-3.24,10.52,1.62.81-4.85-3.24-4.85,1.62-3.24,14.56,1.62,12.95-1.62,5.66-.81,3.24-4.05,4.05-7.28,3.24-.81v-3.24l-8.09-9.71-.81-5.66-7.28-1.62-8.09,7.28-16.18,20.23-8.9-2.43-13.75,13.75-.81,3.24Z"/>
          </g>
        </g>
      </a>
      <a xlink:href="http://ja.wikipedia.org/wiki/今帰仁村">
        <g id="a100">
          <g id="use102">
            <path id="_47306" data-name="47306" class="cls-4" d="m1154.96,393.36l-4.05-2.43-3.24,2.43,4.05,5.66,3.24-5.66Zm-25.89,20.23v8.9h1.62l2.43,1.62,1.62-2.43,1.62,1.62,4.05-4.05-2.43-2.43,3.24.81.81-8.9,5.66-5.66-11.33-5.66-3.24,2.43-1.62-1.62,1.62-2.43-6.47-2.43-12.95,2.43-.81,8.09,7.28,5.66h8.09l.81,4.05Z"/>
          </g>
        </g>
      </a>
      <a xlink:href="http://ja.wikipedia.org/wiki/本部町">
        <g id="a104">
          <g id="use106">
            <path id="_47308" data-name="47308" class="cls-4" d="m1129.07,422.49v-8.9l-.81-4.05h-8.09l-7.28-5.66.81-8.09h-9.71l-4.85-3.24-2.43,9.71,2.43,3.24,5.66,8.09-6.47,2.43v5.66l8.09,15.37.81-.81-.81-3.24,8.09-8.09,9.71,1.62,4.85-4.05Zm-37.22,4.85l4.85-8.9-3.24-1.62-4.05,2.43,2.43,8.09Zm-19.42-8.09l4.85.81-1.62-2.43-3.24,1.62Z"/>
          </g>
        </g>
      </a>
      <a xlink:href="http://ja.wikipedia.org/wiki/恩納村">
        <g id="a108">
          <g id="use110">
            <path id="_47311" data-name="47311" class="cls-4" d="m1057.06,505.82l-9.71,8.9,3.24,3.24,4.85-3.24,8.09,2.43.81-2.43,11.33-9.71,5.66-1.62h.81l2.43-5.66,12.14-7.28,7.28.81v-3.24l4.05-3.24,4.05,4.05,2.43-7.28h3.24l4.85-4.05-4.85-8.9-2.43.81-1.62,5.66-4.05-1.62-6.47,3.24-.81,3.24h-3.24l-2.43-3.24-2.43.81-1.62,2.43-1.62-2.43-1.62,3.24-3.24-.81-2.43,3.24,2.43,5.66-12.14,8.09-4.05,6.47-2.43,5.66h-4.85l-4.85-4.85-.81,1.62Z"/>
          </g>
        </g>
      </a>
      <a xlink:href="http://ja.wikipedia.org/wiki/宜野座村">
        <g id="a112">
          <g id="use114">
            <path id="_47313" data-name="47313" class="cls-4" d="m1141.2,491.26l4.85-4.05-3.24-4.85-1.62-2.43,2.43-2.43-4.05-4.05-4.85-4.85v3.24h-3.24l-3.24,4.85-5.66.81-4.85,4.05-.81,1.62,8.09,13.75.81-.81,1.62-3.24,4.85,2.43,8.9-4.05Z"/>
          </g>
        </g>
      </a>
      <a xlink:href="http://ja.wikipedia.org/wiki/金武町">
        <g id="a116">
          <g id="use118">
            <path id="_47314" data-name="47314" class="cls-4" d="m1105.6,502.59l7.28,1.62,3.24,3.24,8.9.81-1.62-4.05,1.62-3.24v-4.05l-8.09-13.75.81-1.62h-3.24l-2.43,7.28-4.05-4.05-4.05,3.24v3.24l-7.28-.81-12.14,7.28-2.43,5.66,2.43,5.66.81-.81,3.24-5.66,6.47-3.24h6.47l4.05,3.24Z"/>
          </g>
        </g>
      </a>
      <a xlink:href="http://ja.wikipedia.org/wiki/伊江村">
        <g id="a120">
          <g id="use122">
            <path id="_47315" data-name="47315" class="cls-4" d="m1068.39,393.36l2.43,1.62,8.9-2.43.81-4.85-7.28-6.47-14.56.81h-7.28l-1.62,5.66,3.24,5.66h15.37Z"/>
          </g>
        </g>
      </a>
      <a xlink:href="http://ja.wikipedia.org/wiki/読谷村">
        <g id="a124">
          <g id="use126">
            <path id="_47324" data-name="47324" class="cls-4" d="m1040.07,527.67l6.47,12.14,11.33-3.24-.81-2.43,6.47-13.75v-3.24l-8.09-2.43-4.85,3.24-3.24-3.24-3.24-.81-3.24-6.47h-5.66l2.43,1.62-1.62,11.33,4.05,7.28Z"/>
          </g>
        </g>
      </a>
      <a xlink:href="http://ja.wikipedia.org/wiki/嘉手納町">
        <g id="a128">
          <g id="use130">
            <path id="_47325" data-name="47325" class="cls-4" d="m1060.29,547.9l3.24-1.62-2.43-8.09,2.43-8.9v-8.9l-6.47,13.75.81,2.43-11.33,3.24-.81,1.62,2.43,7.28,5.66.81,6.47-1.62Z"/>
          </g>
        </g>
      </a>
      <a xlink:href="http://ja.wikipedia.org/wiki/北谷町">
        <g id="a132">
          <g id="use134">
            <path id="_47326" data-name="47326" class="cls-4" d="m1063.53,560.03v-.81h-2.43l.81-1.62-3.24-8.09,1.62-1.62-6.47,1.62-5.66-.81-.81,4.85,2.43,4.05h2.43l.81,11.33,8.09-.81-.81-4.85,3.24-3.24Z"/>
          </g>
        </g>
      </a>
      <a xlink:href="http://ja.wikipedia.org/wiki/北中城村">
        <g id="a136">
          <g id="use138">
            <path id="_47327" data-name="47327" class="cls-4" d="m1080.52,564.89l-7.28-.81-1.62-8.9-4.05,2.43-1.62,2.43-2.43-.81v.81l-3.24,3.24.81,4.85,3.24,4.05,5.66.81,4.85-2.43-1.62-3.24,2.43-3.24,4.85.81Z"/>
          </g>
        </g>
      </a>
      <a xlink:href="http://ja.wikipedia.org/wiki/中城村">
        <g id="a140">
          <g id="use142">
            <path id="_47328" data-name="47328" class="cls-4" d="m1056.25,590.78l8.09,4.85,4.05-14.56,5.66-3.24.81-7.28-4.85,2.43-5.66-.81-4.05,5.66-2.43,8.09-1.62,4.85Z"/>
          </g>
        </g>
      </a>
      <a xlink:href="http://ja.wikipedia.org/wiki/西原町">
        <g id="a144">
          <g id="use146">
            <path id="_47329" data-name="47329" class="cls-4" d="m1047.35,602.91l7.28,1.62,8.9-6.47,3.24,2.43-2.43-4.85-8.09-4.85,1.62-4.85-6.47.81-5.66,6.47-1.62,4.85.81,3.24,2.43,1.62Z"/>
          </g>
        </g>
      </a>
      <a xlink:href="http://ja.wikipedia.org/wiki/与那原町">
        <g id="a148">
          <g id="use150">
            <path id="_47348" data-name="47348" class="cls-4" d="m1054.63,604.53l-7.28-1.62,1.62,4.05v2.43l5.66,1.62,1.62,4.05,4.05-1.62-3.24-4.85-4.85-.81,2.43-3.24Z"/>
          </g>
        </g>
      </a>
      <a xlink:href="http://ja.wikipedia.org/wiki/南風原町">
        <g id="a152">
          <g id="use154">
            <path id="_47350" data-name="47350" class="cls-4" d="m1036.83,617.48l5.66,4.85,4.05-12.14,2.43-.81v-2.43l-1.62-4.05-2.43-1.62-10.52,11.33,2.43,4.85Z"/>
          </g>
        </g>
      </a>
      <a xlink:href="http://ja.wikipedia.org/wiki/渡嘉敷村">
        <g id="a156">
          <g id="use158">
            <path id="_47353" data-name="47353" class="cls-4" d="m904.14,595.63l1.62,3.24.81-2.43-1.62-3.24-.81,2.43Zm-.81,20.23l3.24-2.43.81-4.05h-2.43l2.43-1.62-.81-3.24-.81-4.05-4.85-2.43-1.62,1.62-3.24,8.9,1.62,6.47-4.05.81.81,5.66,3.24,1.62-1.62,4.85,1.62,4.05.81-4.05,3.24-.81v-10.52l1.62-.81Zm30.74-7.28l4.85-8.09-2.43-2.43-4.85,10.52h2.43Z"/>
          </g>
        </g>
      </a>
      <a xlink:href="http://ja.wikipedia.org/wiki/座間味村">
        <g id="a160">
          <g id="use162">
            <path id="_47354" data-name="47354" class="cls-4" d="m890.39,594.82l.81-3.24-6.47-1.62-1.62-3.24-.81,4.85-2.43,1.62-2.43-2.43-.81,3.24-4.85,1.62,5.66,3.24,2.43-1.62,2.43,4.05,2.43-4.85-1.62-3.24,2.43-1.62,1.62,4.85,4.05.81-.81-2.43Zm-34.79,7.28l1.62,3.24,3.24-5.66h-4.05l-.81,2.43Zm26.7,2.43l1.62,5.66,1.62-3.24-3.24-5.66v3.24Zm-6.47,7.28l-4.05-8.9-5.66,6.47.81.81,3.24.81v3.24l5.66-2.43Zm-3.24,4.85l1.62,2.43,3.24-.81-2.43-4.05-2.43,2.43Zm-15.37,8.09l.81-5.66-2.43-2.43-2.43,7.28,4.05.81Zm19.42,0l.81-4.85-3.24,3.24,2.43,1.62Z"/>
          </g>
        </g>
      </a>
      <a xlink:href="http://ja.wikipedia.org/wiki/粟国村">
        <g id="a164">
          <g id="use166">
            <path id="_47355" data-name="47355" class="cls-4" d="m857.22,449.19l1.62-6.47-3.24-4.05-5.66,2.43-5.66,8.09h12.95Z"/>
          </g>
        </g>
      </a>
      <a xlink:href="http://ja.wikipedia.org/wiki/渡名喜村">
        <g id="a168">
          <g id="use170">
            <path id="_47356" data-name="47356" class="cls-4" d="m820.81,543.85v2.43l3.24-3.24,2.43-3.24h-4.05l-1.62-8.09-2.43,2.43-.81,4.85,3.24,4.85Z"/>
          </g>
        </g>
      </a>
      <a xlink:href="http://ja.wikipedia.org/wiki/伊平屋村">
        <g id="a172">
          <g id="use174">
            <path id="_47359" data-name="47359" class="cls-4" d="m1118.55,271.19l1.62.81,3.24-10.52,6.47-.81,1.62-6.47,8.9-3.24,4.05-12.95,8.09-7.28-8.09,1.62-11.33,8.9-7.28,9.71-7.28,9.71,1.62,8.09-1.62,2.43Zm-7.28.81l3.24,2.43,4.05-4.05-4.05-1.62-3.24,3.24Z"/>
          </g>
        </g>
      </a>
      <a xlink:href="http://ja.wikipedia.org/wiki/伊是名村">
        <g id="a176">
          <g id="use178">
            <path id="_47360" data-name="47360" class="cls-4" d="m1125.02,300.32l2.43-7.28-6.47-4.85-8.09,4.85-2.43,3.24,4.05.81-.81,6.47,7.28,4.05,4.85-.81-.81-6.47Zm-11.33,11.33l.81,3.24h4.85l-3.24-1.62,1.62-1.62h-4.05Z"/>
          </g>
        </g>
      </a>
      <a xlink:href="http://ja.wikipedia.org/wiki/久米島町">
        <g id="a180">
          <g id="use182">
            <path id="_47361" data-name="47361" class="cls-4" d="m676.79,552.75l6.47,11.33,8.9,4.85.81.81-1.62-9.71.81-6.47,7.28-7.28-4.85-3.24-1.62-5.66-6.47-4.05-4.05-5.66-4.05-.81-7.28,3.24-9.71,4.05-4.85.81-1.62,4.05,3.24-4.05-4.05,6.47,3.24,3.24,2.43,1.62-4.05-3.24.81-3.24,5.66,6.47,12.14,1.62-1.62,1.62,4.05,3.24Zm39.64-5.66h6.47l4.05-2.43-10.52,2.43Zm-12.95,2.43l2.43.81-.81-2.43-1.62,1.62Zm-6.47.81h5.66l-2.43-2.43-3.24,2.43Z"/>
          </g>
        </g>
      </a>
      <a xlink:href="http://ja.wikipedia.org/wiki/八重瀬町">
        <g id="a184">
          <g id="use186">
            <path id="_47362" data-name="47362" class="cls-4" d="m1055.44,640.13l-8.9-10.52-3.24-.81-.81-6.47-5.66-4.85h-.81l-3.24,4.05.81,2.43-4.05,5.66,2.43,2.43h4.85l-2.43,7.28,4.05,9.71,4.85,3.24,4.05-5.66,8.09-6.47Z"/>
          </g>
        </g>
      </a>
    </g>
    <g id="g219">
      <a xlink:href="http://ja.wikipedia.org/wiki/宮古島市">
        <g id="a221">
          <g id="use223">
            <path id="_47214" data-name="47214" class="cls-4" d="m791.69,692.87l-.81-2.43,4.05.81-3.24-4.85-1.62-1.62-4.85,1.62.81,3.24,5.66,3.24Zm21.84,1.62l2.43.81-1.62-2.43-.81,1.62Zm54.21,80.91l1.62-.81,1.62-1.62,5.66,4.85-8.9-10.52-4.85-7.28-7.28-.81-8.09-4.05-4.05-5.66-4.85-2.43-5.66,1.62-7.28-4.05-2.43-5.66,1.62-4.85-8.09-5.66-3.24-8.9-2.43-8.9-5.66-1.62-4.85-10.52-2.43-4.05,2.43,4.85-3.24.81-3.24-3.24,3.24,4.05,4.05,8.09,2.43,4.85,5.66,8.9.81,5.66-4.05-3.24-2.43,1.62v13.75l-5.66,3.24-2.43-.81-.81,5.66,8.09,6.47,1.62,7.28v2.43h-6.47l-1.62-8.09-3.24,5.66,3.24,8.9,8.09,4.05,4.85,3.24.81-6.47v6.47l4.85,2.43,6.47-3.24,8.9-.81,6.47-2.43,4.05.81,16.18-.81,10.52.81Zm-105.99-39.64l2.43,3.24,8.09,2.43,8.09-1.62v-8.09l-3.24-8.09-8.09-3.24-10.52-3.24-2.43,2.43,1.62,7.28-1.62,1.62h.81l4.85,7.28Zm-1.62,7.28l4.05-4.05-3.24-3.24-4.85-6.47,1.62,3.24-4.05-2.43-4.05-4.05-1.62,7.28,4.05,7.28,6.47,2.43,1.62-.81v.81Zm33.98,37.22l.81-4.05-4.05-3.24h-2.43l-.81,4.05,3.24,3.24h3.24Z"/>
          </g>
        </g>
      </a>
    </g>
    <g id="g250">
      <a xlink:href="http://ja.wikipedia.org/wiki/石垣市">
        <g id="a252">
          <g id="use254">
            <path id="_47207a" data-name="47207a" class="cls-4" d="m592.62,796.01l-10.52-2.43-2.43,2.43-2.43,3.24-2.43-2.43,3.24-1.62v-3.24l-1.62-6.47-8.09-3.24-1.62,1.62,4.85,3.24-2.43,2.43v8.09h-4.85l-2.43-3.24h-8.09l-4.05,8.9,6.47,6.47,3.24-4.85,5.66-2.43h5.66l4.05,7.28,4.05,1.62.81,7.28-.81,3.24-.81-2.43-11.33,10.52,4.85,4.85,8.09,2.43,1.62,3.24-1.62,2.43,8.09,3.24,9.71-1.62,4.05-4.85-1.62-3.24,4.05-.81,8.9,4.85,4.85-2.43,2.43-4.05,3.24-22.65-3.24-8.09,2.43-4.85-2.43-5.66,2.43-7.28,9.71-5.66v-8.09l4.05-3.24,5.66-5.66-.81-3.24v-4.85l6.47-5.66,4.85-4.85,1.62-8.09v-6.47l-8.09-2.43-2.43,4.85-4.05,8.9-6.47,7.28,3.24,8.9-2.43,1.62-3.24,12.14-.81,1.62-6.47-6.47-1.62,1.62-5.66,7.28h-4.85l1.62,4.05-3.24,6.47v7.28l-6.47-.81-6.47.81-4.05,3.24Zm-12.95-4.05l1.62,2.43.81-.81-1.62-3.24-.81,1.62Z"/>
          </g>
        </g>
      </a>
      <a xlink:href="http://ja.wikipedia.org/wiki/竹富町">
        <g id="a256">
          <g id="use258">
            <path id="_47381a" data-name="47381a" class="cls-4" d="m451.84,785.49l4.05,2.43-.81-3.24-3.24.81Zm-24.27,80.91l9.71,3.24h4.05l7.28,2.43,10.52-.81,5.66,2.43,5.66,4.05h6.47l1.62-5.66-1.62-4.05h2.43l5.66,2.43v-12.95l4.05-8.9,6.47,4.05v-11.33l4.05-6.47.81-3.24-7.28-.81-5.66-7.28h-7.28l-2.43-6.47-4.85-2.43-2.43,4.05-3.24-3.24h-3.24l-4.85-1.62-6.47,7.28-3.24-4.85,3.24.81-2.43-.81.81-4.05-4.85-2.43-6.47-8.9-6.47.81v3.24l3.24,1.62-.81,2.43-4.05,1.62-4.05,4.85.81,4.85-4.05-.81,4.05,8.09-4.05,2.43,4.05,4.05-2.43,8.09,1.62,11.33-3.24-3.24-1.62,2.43-.81-6.47-3.24.81v-5.66l-3.24,1.62-1.62,4.05-4.05-8.09-2.43.81,4.85,12.14-3.24,1.62v-1.62l-.81-4.05-5.66-2.43-1.62,4.05,2.43,5.66-7.28-1.62-3.24,1.62,5.66,8.9,1.62,2.43,8.09.81,6.47.81,1.62-8.09,4.05.81,7.28,5.66Zm-11.33-38.84l2.43-.81-1.62-1.62-4.85,2.43,2.43,4.05,1.62-4.05Zm.81,4.85l1.62,3.24,4.85,4.05.81-3.24-4.05-4.85-3.24.81Zm102.75,8.09l-7.28-4.85-3.24,2.43,2.43,4.05-7.28,3.24,12.95.81,3.24,3.24,4.05-2.43-4.85-6.47Zm33.17,8.09l3.24,5.66,6.47-4.05-5.66-8.09-4.05,6.47Zm-23.46,43.69l4.85-4.05.81-4.05-2.43-4.05-3.24,1.62-5.66-3.24-4.05,3.24,2.43,5.66,4.85,5.66,2.43-.81Zm-25.08-4.85l1.62-2.43-2.43-1.62-4.85,7.28,5.66-3.24Zm-11.33,6.47l2.43,3.24,3.24-.81-.81-4.05-4.85,1.62Z"/>
          </g>
        </g>
      </a>
    </g>
    <g>
      <polyline class="cls-21" points="687.44 918.42 687.44 919.42 686.44 919.42"/>
      <line class="cls-22" x1="684.43" y1="919.42" x2="380.37" y2="919.42"/>
      <polyline class="cls-21" points="379.37 919.42 378.37 919.42 378.37 918.42"/>
      <line class="cls-20" x1="378.37" y1="916.42" x2="378.37" y2="713.27"/>
      <polyline class="cls-21" points="378.37 712.27 378.37 711.27 379.37 711.27"/>
      <line class="cls-22" x1="381.38" y1="711.27" x2="685.43" y2="711.27"/>
      <polyline class="cls-21" points="686.44 711.27 687.44 711.27 687.44 712.27"/>
      <line class="cls-20" x1="687.44" y1="714.27" x2="687.44" y2="917.42"/>
    </g>
    <g>
      <polyline class="cls-21" points="913.47 807.84 913.46 808.84 912.46 808.82"/>
      <line class="cls-23" x1="910.45" y1="808.78" x2="731.18" y2="805.59"/>
      <polyline class="cls-21" points="730.18 805.57 729.18 805.56 729.19 804.56"/>
      <line class="cls-19" x1="729.23" y1="802.58" x2="731.5" y2="669.54"/>
      <polyline class="cls-21" points="731.52 668.55 731.54 667.55 732.54 667.57"/>
      <line class="cls-23" x1="734.54" y1="667.6" x2="913.82" y2="670.8"/>
      <polyline class="cls-21" points="914.82 670.81 915.82 670.83 915.8 671.83"/>
      <line class="cls-19" x1="915.77" y1="673.8" x2="913.49" y2="806.85"/>
    </g>
  </g>
  <g id="_02_contents" data-name="02_contents">
    <g>
      <path class="cls-18" d="m434.21,831.63h0c7.94,0,13,8.47,9.25,15.46l-9.01,16.77c-.1.19-.38.19-.48,0l-9.01-16.77c-3.76-6.99,1.31-15.46,9.25-15.46Z"/>
      <circle class="cls-16" cx="434.21" cy="842.17" r="5.05"/>
      <line class="cls-16" x1="448.33" y1="842.17" x2="453.33" y2="842.17"/>
      <line class="cls-16" x1="447.21" y1="847.69" x2="451.81" y2="849.64"/>
      <line class="cls-16" x1="447.21" y1="836.64" x2="451.8" y2="834.68"/>
      <line class="cls-16" x1="420.09" y1="842.17" x2="415.09" y2="842.17"/>
      <line class="cls-16" x1="421.21" y1="847.69" x2="416.61" y2="849.64"/>
      <line class="cls-16" x1="421.21" y1="836.64" x2="416.62" y2="834.68"/>
    </g>
    <g>
      <path class="cls-13" d="m1065.65,355.14h0c7.94,0,13,8.47,9.25,15.46l-9.01,16.77c-.1.19-.38.19-.48,0l-9.01-16.77c-3.76-6.99,1.31-15.46,9.25-15.46Z"/>
      <circle class="cls-16" cx="1065.65" cy="365.68" r="5.05"/>
      <line class="cls-16" x1="1079.77" y1="365.68" x2="1084.77" y2="365.68"/>
      <line class="cls-16" x1="1078.65" y1="371.2" x2="1083.24" y2="373.16"/>
      <line class="cls-16" x1="1078.64" y1="360.15" x2="1083.24" y2="358.2"/>
      <line class="cls-16" x1="1051.52" y1="365.68" x2="1046.53" y2="365.68"/>
      <line class="cls-16" x1="1052.64" y1="371.2" x2="1048.05" y2="373.16"/>
      <line class="cls-16" x1="1052.65" y1="360.15" x2="1048.05" y2="358.2"/>
    </g>
    <g>
      <path class="cls-5" d="m901.65,577.17h0c7.94,0,13,8.47,9.25,15.46l-9.01,16.77c-.1.19-.38.19-.48,0l-9.01-16.77c-3.76-6.99,1.31-15.46,9.25-15.46Z"/>
      <circle class="cls-16" cx="901.65" cy="587.71" r="5.05"/>
      <line class="cls-16" x1="915.77" y1="587.71" x2="920.77" y2="587.71"/>
      <line class="cls-16" x1="914.65" y1="593.23" x2="919.25" y2="595.18"/>
      <line class="cls-16" x1="914.65" y1="582.18" x2="919.24" y2="580.22"/>
      <line class="cls-16" x1="887.53" y1="587.71" x2="882.53" y2="587.71"/>
      <line class="cls-16" x1="888.65" y1="593.23" x2="884.05" y2="595.18"/>
      <line class="cls-16" x1="888.65" y1="582.18" x2="884.06" y2="580.22"/>
    </g>
    <g>
      <path class="cls-14" d="m677.39,507.6h0c7.94,0,13,8.47,9.25,15.46l-9.01,16.77c-.1.19-.38.19-.48,0l-9.01-16.77c-3.76-6.99,1.31-15.46,9.25-15.46Z"/>
      <circle class="cls-16" cx="677.39" cy="518.14" r="5.05"/>
      <line class="cls-16" x1="691.52" y1="518.14" x2="696.51" y2="518.14"/>
      <line class="cls-16" x1="690.39" y1="523.66" x2="694.99" y2="525.62"/>
      <line class="cls-16" x1="690.39" y1="512.61" x2="694.98" y2="510.66"/>
      <line class="cls-16" x1="663.27" y1="518.14" x2="658.27" y2="518.14"/>
      <line class="cls-16" x1="664.39" y1="523.66" x2="659.79" y2="525.62"/>
      <line class="cls-16" x1="664.4" y1="512.61" x2="659.8" y2="510.66"/>
    </g>
    <g>
      <path class="cls-11" d="m1032.56,616.45h0c7.94,0,13,8.47,9.25,15.46l-9.01,16.77c-.1.19-.38.19-.48,0l-9.01-16.77c-3.76-6.99,1.31-15.46,9.25-15.46Z"/>
      <circle class="cls-16" cx="1032.56" cy="626.99" r="5.05"/>
      <line class="cls-16" x1="1046.68" y1="626.99" x2="1051.68" y2="626.99"/>
      <line class="cls-16" x1="1045.56" y1="632.52" x2="1050.16" y2="634.47"/>
      <line class="cls-16" x1="1045.56" y1="621.46" x2="1050.15" y2="619.51"/>
      <line class="cls-16" x1="1018.44" y1="626.99" x2="1013.44" y2="626.99"/>
      <line class="cls-16" x1="1019.56" y1="632.52" x2="1014.96" y2="634.47"/>
      <line class="cls-16" x1="1019.56" y1="621.46" x2="1014.97" y2="619.51"/>
    </g>
    <g>
      <path class="cls-2" d="m1181.42,425.97h0c7.94,0,13,8.47,9.25,15.46l-9.01,16.77c-.1.19-.38.19-.48,0l-9.01-16.77c-3.76-6.99,1.31-15.46,9.25-15.46Z"/>
      <circle class="cls-16" cx="1181.42" cy="436.51" r="5.05"/>
      <line class="cls-16" x1="1195.54" y1="436.51" x2="1200.54" y2="436.51"/>
      <line class="cls-16" x1="1194.42" y1="442.03" x2="1199.01" y2="443.98"/>
      <line class="cls-16" x1="1194.41" y1="430.98" x2="1199.01" y2="429.02"/>
      <line class="cls-16" x1="1167.29" y1="436.51" x2="1162.3" y2="436.51"/>
      <line class="cls-16" x1="1168.42" y1="442.03" x2="1163.82" y2="443.98"/>
      <line class="cls-16" x1="1168.42" y1="430.98" x2="1163.82" y2="429.02"/>
    </g>
    <g>
      <path class="cls-1" d="m852.88,410.38h0c7.94,0,13,8.47,9.25,15.46l-9.01,16.77c-.1.19-.38.19-.48,0l-9.01-16.77c-3.76-6.99,1.31-15.46,9.25-15.46Z"/>
      <circle class="cls-16" cx="852.88" cy="420.92" r="5.05"/>
      <line class="cls-16" x1="867.01" y1="420.92" x2="872" y2="420.92"/>
      <line class="cls-16" x1="865.88" y1="426.44" x2="870.48" y2="428.39"/>
      <line class="cls-16" x1="865.88" y1="415.39" x2="870.48" y2="413.43"/>
      <line class="cls-16" x1="838.76" y1="420.92" x2="833.76" y2="420.92"/>
      <line class="cls-16" x1="839.88" y1="426.44" x2="835.28" y2="428.39"/>
      <line class="cls-16" x1="839.89" y1="415.39" x2="835.29" y2="413.43"/>
    </g>
    <g>
      <path class="cls-6" d="m827.08,737.47h0c7.94,0,13,8.47,9.25,15.46l-9.01,16.77c-.1.19-.38.19-.48,0l-9.01-16.77c-3.76-6.99,1.31-15.46,9.25-15.46Z"/>
      <circle class="cls-16" cx="827.08" cy="748.01" r="5.05"/>
      <line class="cls-16" x1="841.2" y1="748.01" x2="846.2" y2="748.01"/>
      <line class="cls-16" x1="840.08" y1="753.53" x2="844.68" y2="755.48"/>
      <line class="cls-16" x1="840.07" y1="742.48" x2="844.67" y2="740.52"/>
      <line class="cls-16" x1="812.95" y1="748.01" x2="807.96" y2="748.01"/>
      <line class="cls-16" x1="814.08" y1="753.53" x2="809.48" y2="755.48"/>
      <line class="cls-16" x1="814.08" y1="742.48" x2="809.49" y2="740.52"/>
    </g>
    <g>
      <path class="cls-3" d="m1244.63,371.63h0c7.94,0,13,8.47,9.25,15.46l-9.01,16.77c-.1.19-.38.19-.48,0l-9.01-16.77c-3.76-6.99,1.31-15.46,9.25-15.46Z"/>
      <circle class="cls-16" cx="1244.63" cy="382.17" r="5.05"/>
      <line class="cls-16" x1="1258.76" y1="382.17" x2="1263.75" y2="382.17"/>
      <line class="cls-16" x1="1257.63" y1="387.69" x2="1262.23" y2="389.65"/>
      <line class="cls-16" x1="1257.63" y1="376.64" x2="1262.23" y2="374.69"/>
      <line class="cls-16" x1="1230.51" y1="382.17" x2="1225.51" y2="382.17"/>
      <line class="cls-16" x1="1231.63" y1="387.69" x2="1227.04" y2="389.65"/>
      <line class="cls-16" x1="1231.64" y1="376.64" x2="1227.04" y2="374.69"/>
    </g>
    <g>
      <path class="cls-8" d="m1140.22,514h0c7.94,0,13,8.47,9.25,15.46l-9.01,16.77c-.1.19-.38.19-.48,0l-9.01-16.77c-3.76-6.99,1.31-15.46,9.25-15.46Z"/>
      <circle class="cls-16" cx="1140.22" cy="524.54" r="5.05"/>
      <line class="cls-16" x1="1154.34" y1="524.54" x2="1159.34" y2="524.54"/>
      <line class="cls-16" x1="1153.22" y1="530.06" x2="1157.82" y2="532.02"/>
      <line class="cls-16" x1="1153.21" y1="519.01" x2="1157.81" y2="517.05"/>
      <line class="cls-16" x1="1126.09" y1="524.54" x2="1121.1" y2="524.54"/>
      <line class="cls-16" x1="1127.22" y1="530.06" x2="1122.62" y2="532.02"/>
      <line class="cls-16" x1="1127.22" y1="519.01" x2="1122.62" y2="517.05"/>
    </g>
    <g>
      <path class="cls-7" d="m590.89,807.03h0c7.94,0,13,8.47,9.25,15.46l-9.01,16.77c-.1.19-.38.19-.48,0l-9.01-16.77c-3.76-6.99,1.31-15.46,9.25-15.46Z"/>
      <circle class="cls-16" cx="590.89" cy="817.57" r="5.05"/>
      <line class="cls-16" x1="605.02" y1="817.57" x2="610.01" y2="817.57"/>
      <line class="cls-16" x1="603.89" y1="823.09" x2="608.49" y2="825.05"/>
      <line class="cls-16" x1="603.89" y1="812.04" x2="608.48" y2="810.08"/>
      <line class="cls-16" x1="576.77" y1="817.57" x2="571.77" y2="817.57"/>
      <line class="cls-16" x1="577.89" y1="823.09" x2="573.29" y2="825.05"/>
      <line class="cls-16" x1="577.9" y1="812.04" x2="573.3" y2="810.08"/>
    </g>
    <g>
      <path class="cls-10" d="m489.97,812.08h0c7.94,0,13,8.47,9.25,15.46l-9.01,16.77c-.1.19-.38.19-.48,0l-9.01-16.77c-3.76-6.99,1.31-15.46,9.25-15.46Z"/>
      <circle class="cls-16" cx="489.97" cy="822.62" r="5.05"/>
      <line class="cls-16" x1="504.1" y1="822.62" x2="509.09" y2="822.62"/>
      <line class="cls-16" x1="502.97" y1="828.14" x2="507.57" y2="830.09"/>
      <line class="cls-16" x1="502.97" y1="817.09" x2="507.57" y2="815.13"/>
      <line class="cls-16" x1="475.85" y1="822.62" x2="470.85" y2="822.62"/>
      <line class="cls-16" x1="476.97" y1="828.14" x2="472.37" y2="830.09"/>
      <line class="cls-16" x1="476.98" y1="817.09" x2="472.38" y2="815.13"/>
    </g>
    <g>
      <path class="cls-15" d="m1120.1,394.74h0c7.94,0,13,8.47,9.25,15.46l-9.01,16.77c-.1.19-.38.19-.48,0l-9.01-16.77c-3.76-6.99,1.31-15.46,9.25-15.46Z"/>
      <circle class="cls-16" cx="1120.1" cy="405.28" r="5.05"/>
      <line class="cls-16" x1="1134.23" y1="405.28" x2="1139.22" y2="405.28"/>
      <line class="cls-16" x1="1133.11" y1="410.81" x2="1137.7" y2="412.76"/>
      <line class="cls-16" x1="1133.1" y1="399.75" x2="1137.7" y2="397.8"/>
      <line class="cls-16" x1="1105.98" y1="405.28" x2="1100.98" y2="405.28"/>
      <line class="cls-16" x1="1107.1" y1="410.81" x2="1102.51" y2="412.76"/>
      <line class="cls-16" x1="1107.11" y1="399.75" x2="1102.51" y2="397.8"/>
    </g>
    <g>
      <path class="cls-17" d="m1059.27,507.2h0c7.94,0,13,8.47,9.25,15.46l-9.01,16.77c-.1.19-.38.19-.48,0l-9.01-16.77c-3.76-6.99,1.31-15.46,9.25-15.46Z"/>
      <circle class="cls-16" cx="1059.27" cy="517.74" r="5.05"/>
      <line class="cls-16" x1="1073.39" y1="517.74" x2="1078.39" y2="517.74"/>
      <line class="cls-16" x1="1072.27" y1="523.26" x2="1076.86" y2="525.21"/>
      <line class="cls-16" x1="1072.26" y1="512.21" x2="1076.86" y2="510.25"/>
      <line class="cls-16" x1="1045.14" y1="517.74" x2="1040.15" y2="517.74"/>
      <line class="cls-16" x1="1046.27" y1="523.26" x2="1041.67" y2="525.21"/>
      <line class="cls-16" x1="1046.27" y1="512.21" x2="1041.67" y2="510.25"/>
    </g>
    <g>
      <path class="cls-12" d="m764.22,701.38h0c7.94,0,13,8.47,9.25,15.46l-9.01,16.77c-.1.19-.38.19-.48,0l-9.01-16.77c-3.76-6.99,1.31-15.46,9.25-15.46Z"/>
      <circle class="cls-16" cx="764.22" cy="711.92" r="5.05"/>
      <line class="cls-16" x1="778.34" y1="711.92" x2="783.34" y2="711.92"/>
      <line class="cls-16" x1="777.22" y1="717.44" x2="781.82" y2="719.39"/>
      <line class="cls-16" x1="777.22" y1="706.39" x2="781.81" y2="704.43"/>
      <line class="cls-16" x1="750.1" y1="711.92" x2="745.1" y2="711.92"/>
      <line class="cls-16" x1="751.22" y1="717.44" x2="746.62" y2="719.39"/>
      <line class="cls-16" x1="751.22" y1="706.39" x2="746.63" y2="704.43"/>
    </g>
    <g>
      <path class="cls-9" d="m642.83,721.74h0c7.94,0,13,8.47,9.25,15.46l-9.01,16.77c-.1.19-.38.19-.48,0l-9.01-16.77c-3.76-6.99,1.31-15.46,9.25-15.46Z"/>
      <circle class="cls-16" cx="642.83" cy="732.28" r="5.05"/>
      <line class="cls-16" x1="656.95" y1="732.28" x2="661.95" y2="732.28"/>
      <line class="cls-16" x1="655.83" y1="737.81" x2="660.43" y2="739.76"/>
      <line class="cls-16" x1="655.82" y1="726.75" x2="660.42" y2="724.8"/>
      <line class="cls-16" x1="628.7" y1="732.28" x2="623.71" y2="732.28"/>
      <line class="cls-16" x1="629.83" y1="737.81" x2="625.23" y2="739.76"/>
      <line class="cls-16" x1="629.83" y1="726.75" x2="625.24" y2="724.8"/>
    </g>
    <text class="cls-24" transform="translate(0 42.24)"><tspan x="0" y="0">高付加価値コンテンツ創出</tspan></text>
  </g>
</svg>