<?xml version="1.0" encoding="UTF-8"?>
<svg xmlns="http://www.w3.org/2000/svg" xmlns:xlink="http://www.w3.org/1999/xlink" viewBox="0 0 1920 1082">
  <defs>
    <style>
      .cls-1 {
        fill: #ff9770;
      }

      .cls-1, .cls-2, .cls-3, .cls-4, .cls-5, .cls-6, .cls-7, .cls-8, .cls-9, .cls-10, .cls-11, .cls-12, .cls-13, .cls-14, .cls-15, .cls-16, .cls-17, .cls-18 {
        stroke-miterlimit: 10;
      }

      .cls-1, .cls-2, .cls-3, .cls-5, .cls-6, .cls-7, .cls-8, .cls-9, .cls-10, .cls-11, .cls-12, .cls-13, .cls-14, .cls-15, .cls-16, .cls-17, .cls-18 {
        stroke: #333;
        stroke-linecap: round;
      }

      .cls-2 {
        fill: #70d6ff;
      }

      .cls-3 {
        fill: #e9ff70;
      }

      .cls-4 {
        fill: #008b52;
        stroke: #008b52;
      }

      .cls-5 {
        fill: #8338ec;
      }

      .cls-6 {
        fill: #ffd670;
      }

      .cls-7 {
        fill: #fc2f00;
      }

      .cls-19 {
        stroke-dasharray: 0 0 1.97 1.97;
      }

      .cls-19, .cls-20, .cls-21, .cls-22, .cls-23 {
        fill: none;
        stroke: gray;
        stroke-linejoin: round;
        stroke-width: .5px;
      }

      .cls-8 {
        fill: #ec0868;
      }

      .cls-24 {
        font-family: 'UDKakugo_LargePr6N-M-90ms-RKSJ-H', 'FOT-UDKakugo_Large Pr6N';
        font-size: 48px;
      }

      .cls-24, .cls-16 {
        fill: #fff;
      }

      .cls-9 {
        fill: #ffbc0a;
      }

      .cls-10 {
        fill: #ec7d10;
      }

      .cls-20 {
        stroke-dasharray: 0 0 2 2;
      }

      .cls-11 {
        fill: #ffbe0b;
      }

      .cls-12 {
        fill: #c200fb;
      }

      .cls-13 {
        fill: #3a86ff;
      }

      .cls-14 {
        fill: #fb5607;
      }

      .cls-22 {
        stroke-dasharray: 0 0 2.01 2.01;
      }

      .cls-15 {
        fill: #ff006e;
      }

      .cls-25 {
        fill: #191919;
        stroke-width: 0px;
      }

      .cls-17 {
        fill: #ff70a6;
      }

      .cls-18 {
        fill: #8ee3ef;
      }

      .cls-23 {
        stroke-dasharray: 0 0 2 2;
      }
    </style>
  </defs>
  <g id="background">
    <rect class="cls-25" width="1920" height="1082"/>
  </g>
  <g id="_01_okinawa" data-name="01_okinawa">
    <g id="g50">
      <a xlink:href="http://ja.wikipedia.org/wiki/那覇市">
        <g id="a52">
          <g id="use54">
            <path id="_47201" data-name="47201" class="cls-4" d="M1157.88,679.34l-.81-3.24,1.62-4.85-13.75.81-6.47-3.24h-.81l-.81-.81h-1.62l-.81-.81h-2.43l1.62,2.43-1.62,4.05,4.05-4.05,1.62,7.28-8.09,2.43,4.85,4.85-8.9-4.85-5.66,8.09,3.24,8.9,9.71-1.62,4.85-3.24v-4.05l4.85,1.62,4.85,1.62,10.52-11.33Z"/>
          </g>
        </g>
      </a>
      <a xlink:href="http://ja.wikipedia.org/wiki/宜野湾市">
        <g id="a56">
          <g id="use58">
            <path id="_47205" data-name="47205" class="cls-4" d="M1173.25,655.88l4.05-5.66-3.24-4.05-8.09.81-7.28,4.05.81,1.62-4.05-.81-1.62,4.05,1.62,2.43.81,5.66,4.05-1.62,4.05,2.43,6.47-.81,2.43-8.09Z"/>
          </g>
        </g>
      </a>
      <a xlink:href="http://ja.wikipedia.org/wiki/浦添市">
        <g id="a60">
          <g id="use62">
            <path id="_47208" data-name="47208" class="cls-4" d="M1164.35,664.78l-4.05-2.43-4.05,1.62-.81-5.66-1.62-2.43h-7.28l-5.66,8.09-3.24-.81v2.43l.81,3.24,6.47,3.24,13.75-.81,5.66-6.47ZM1134.42,667.2l1.62-1.62-4.05,1.62h2.43Z"/>
          </g>
        </g>
      </a>
      <a xlink:href="http://ja.wikipedia.org/wiki/名護市">
        <g id="a64">
          <g id="use66">
            <path id="_47209" data-name="47209" class="cls-4" d="M1265.49,483.54l-8.09,1.62-2.43,6.47,4.05,3.24,2.43.81,1.62-3.24,7.28,4.85v-4.85l-4.85-8.9ZM1303.51,536.94h6.47v-5.66l4.85-.81-4.85-6.47-4.05-4.05-4.05.81-8.09-7.28.81-3.24-4.85-5.66-1.62-6.47-10.52,4.05h-7.28l-3.24,3.24-7.28-1.62-1.62-4.05-4.85-2.43-4.05,4.05-1.62-1.62-1.62,2.43-2.43-1.62h-1.62l-4.85,4.05-9.71-1.62-8.09,8.09.81,3.24-.81.81,5.66,1.62,4.05-3.24,15.37,8.09h5.66l1.62,5.66-3.24,7.28-4.85,8.09-4.05-2.43-4.05,4.85-3.24-3.24-1.62,4.85,4.85,8.9,5.66-.81,3.24-4.85h3.24v-3.24l4.85,4.85,4.05,4.05,3.24,1.62,1.62-4.05,5.66,1.62,3.24-2.43,7.28-1.62-5.66-10.52-1.62-3.24,3.24-.81.81,3.24,8.09-2.43,3.24,2.43,8.09,5.66-.81-3.24,3.24.81.81-2.43,6.47-3.24Z"/>
          </g>
        </g>
      </a>
      <a xlink:href="http://ja.wikipedia.org/wiki/糸満市">
        <g id="a68">
          <g id="use70">
            <path id="_47210" data-name="47210" class="cls-4" d="M1156.26,730.31l-4.85-3.24-4.05-9.71,2.43-7.28h-4.85l-2.43-2.43,4.05-5.66-.81-2.43-12.95,7.28-8.09,3.24,1.62,8.09v-4.05l6.47.81-2.43,1.62,1.62,4.05h-2.43l-1.62,15.37,5.66,2.43,3.24,1.62,5.66-4.85,10.52-1.62,3.24-3.24Z"/>
          </g>
        </g>
      </a>
      <a xlink:href="http://ja.wikipedia.org/wiki/沖縄市">
        <g id="a72">
          <g id="use74">
            <path id="_47211" data-name="47211" class="cls-4" d="M1180.53,635.65l4.05-2.43,1.62,8.9,7.28.81v-4.05l4.85-.81,1.62-1.62-4.85-3.24,3.24-3.24-8.09-10.52,5.66-8.9-4.05-5.66-2.43,2.43-3.24-4.85-2.43,3.24-6.47-12.14v-.81l-.81,2.43v12.14l-2.43,8.9,2.43,8.09-3.24,1.62-1.62,1.62,3.24,8.09-.81,1.62h2.43l2.43.81,1.62-2.43ZM1203.19,633.22l-4.85-3.24-2.43,1.62,7.28,1.62Z"/>
          </g>
        </g>
      </a>
      <a xlink:href="http://ja.wikipedia.org/wiki/豊見城市">
        <g id="a76">
          <g id="use78">
            <path id="_47212" data-name="47212" class="cls-4" d="M1148.98,695.52h.81l-2.43-4.85-4.85-1.62-4.85-1.62v4.05l-4.85,3.24-9.71,1.62-1.62.81h4.85l-1.62,1.62,8.09,8.09,12.95-7.28,3.24-4.05Z"/>
          </g>
        </g>
      </a>
      <a xlink:href="http://ja.wikipedia.org/wiki/うるま市">
        <g id="a80">
          <g id="use82">
            <path id="_47213" data-name="47213" class="cls-4" d="M1209.66,607.33l-7.28-4.85-3.24-2.43,2.43-.81-4.85-1.62-4.85-5.66,1.62-3.24,4.05,1.62.81-1.62-.81-1.62-2.43-5.66h-.81l-5.66,1.62-11.33,9.71v.81l6.47,12.14,2.43-3.24,3.24,4.85,2.43-2.43,4.05,5.66-5.66,8.9,8.09,10.52,5.66-4.05h2.43l15.37,18.61,1.62-.81-.81,2.43.81-2.43,4.85,3.24.81-3.24-1.62-6.47-5.66-5.66,4.05-.81h-5.66l-4.85-3.24-5.66-8.09.81-5.66v-1.62h2.43l-3.24-4.85ZM1259.01,603.29v-.81l-3.24-.81-2.43,5.66,4.05,2.43,1.62-6.47ZM1247.69,621.09l7.28-1.62,1.62-4.05-4.05-2.43.81-4.85-5.66,4.05-1.62,5.66,1.62,3.24ZM1246.07,621.09l-.81-4.05-4.05,3.24h-4.05l-.81-2.43,1.62,8.9-4.85,4.05h-7.28l16.99-2.43,5.66-4.85-2.43-2.43ZM1203.19,633.22l.81-3.24,4.85,1.62-3.24-5.66-7.28,4.05,4.85,3.24ZM1239.6,634.84l.81,4.05,2.43,1.62,3.24-6.47-4.85-1.62-1.62,2.43ZM1226.65,635.65l4.85,3.24-2.43-4.05-2.43.81ZM1235.55,668.82l2.43-2.43-.81-6.47-3.24.81-.81,5.66,2.43,2.43Z"/>
          </g>
        </g>
      </a>
      <a xlink:href="http://ja.wikipedia.org/wiki/南城市">
        <g id="a84">
          <g id="use86">
            <path id="_47215" data-name="47215" class="cls-4" d="M1177.3,715.75l16.18-14.56.81-4.05-4.05-1.62v-4.85l-7.28,1.62-5.66,7.28-3.24-.81v-6.47l-.81-.81-4.05,1.62-1.62-4.05-5.66-1.62-2.43.81-4.05,12.14.81,6.47,3.24.81,8.9,10.52,4.85-4.05,3.24,1.62h.81ZM1224.22,698.76l-10.52,6.47.81.81,9.71-7.28Z"/>
          </g>
        </g>
      </a>
      <a xlink:href="http://ja.wikipedia.org/wiki/国頭村">
        <g id="a88">
          <g id="use90">
            <path id="_47301" data-name="47301" class="cls-4" d="M1373.09,461.7l4.85-2.43v-3.24l3.24-2.43-2.43-4.05,1.62-11.33-3.24-3.24.81-8.9-4.85-6.47-.81-4.85-1.62-2.43-4.05,1.62-3.24-3.24-7.28-6.47.81-3.24-3.24-.81-4.05,6.47,3.24,4.05-.81,5.66-7.28,13.75v2.43l-9.71,12.14-8.09,8.9-12.95,3.24,3.24,3.24-1.62,7.28,17.8,11.33,8.09-7.28,7.28,1.62.81,5.66,8.09,9.71,4.05-2.43,2.43-9.71,5.66-6.47-1.62-3.24,4.05-.81.81-4.05Z"/>
          </g>
        </g>
      </a>
      <a xlink:href="http://ja.wikipedia.org/wiki/大宜味村">
        <g id="a92">
          <g id="use94">
            <path id="_47302" data-name="47302" class="cls-4" d="M1333.45,478.69l-17.8-11.33-4.05,4.05-10.52,2.43-5.66,9.71,1.62,3.24,5.66.81,2.43,4.05h-5.66v-3.24l-11.33,9.71,1.62,6.47,4.85,5.66,13.75-13.75,8.9,2.43,16.18-20.23Z"/>
          </g>
        </g>
      </a>
      <a xlink:href="http://ja.wikipedia.org/wiki/東村">
        <g id="a96">
          <g id="use98">
            <path id="_47303" data-name="47303" class="cls-4" d="M1293.8,513.48l8.09,7.28,4.05-.81v-.81l-1.62-3.24,10.52,1.62.81-4.85-3.24-4.85,1.62-3.24,14.56,1.62,12.95-1.62,5.66-.81,3.24-4.05,4.05-7.28,3.24-.81v-3.24l-8.09-9.71-.81-5.66-7.28-1.62-8.09,7.28-16.18,20.23-8.9-2.43-13.75,13.75-.81,3.24Z"/>
          </g>
        </g>
      </a>
      <a xlink:href="http://ja.wikipedia.org/wiki/今帰仁村">
        <g id="a100">
          <g id="use102">
            <path id="_47306" data-name="47306" class="cls-4" d="M1267.91,471.41l-4.05-2.43-3.24,2.43,4.05,5.66,3.24-5.66ZM1242.02,491.63v8.9h1.62l2.43,1.62,1.62-2.43,1.62,1.62,4.05-4.05-2.43-2.43,3.24.81.81-8.9,5.66-5.66-11.33-5.66-3.24,2.43-1.62-1.62,1.62-2.43-6.47-2.43-12.95,2.43-.81,8.09,7.28,5.66h8.09l.81,4.05Z"/>
          </g>
        </g>
      </a>
      <a xlink:href="http://ja.wikipedia.org/wiki/本部町">
        <g id="a104">
          <g id="use106">
            <path id="_47308" data-name="47308" class="cls-4" d="M1242.02,500.53v-8.9l-.81-4.05h-8.09l-7.28-5.66.81-8.09h-9.71l-4.85-3.24-2.43,9.71,2.43,3.24,5.66,8.09-6.47,2.43v5.66l8.09,15.37.81-.81-.81-3.24,8.09-8.09,9.71,1.62,4.85-4.05ZM1204.8,505.39l4.85-8.9-3.24-1.62-4.05,2.43,2.43,8.09ZM1185.39,497.3l4.85.81-1.62-2.43-3.24,1.62Z"/>
          </g>
        </g>
      </a>
      <a xlink:href="http://ja.wikipedia.org/wiki/恩納村">
        <g id="a108">
          <g id="use110">
            <path id="_47311" data-name="47311" class="cls-4" d="M1170.01,583.87l-9.71,8.9,3.24,3.24,4.85-3.24,8.09,2.43.81-2.43,11.33-9.71,5.66-1.62h.81l2.43-5.66,12.14-7.28,7.28.81v-3.24l4.05-3.24,4.05,4.05,2.43-7.28h3.24l4.85-4.05-4.85-8.9-2.43.81-1.62,5.66-4.05-1.62-6.47,3.24-.81,3.24h-3.24l-2.43-3.24-2.43.81-1.62,2.43-1.62-2.43-1.62,3.24-3.24-.81-2.43,3.24,2.43,5.66-12.14,8.09-4.05,6.47-2.43,5.66h-4.85l-4.85-4.85-.81,1.62Z"/>
          </g>
        </g>
      </a>
      <a xlink:href="http://ja.wikipedia.org/wiki/宜野座村">
        <g id="a112">
          <g id="use114">
            <path id="_47313" data-name="47313" class="cls-4" d="M1254.16,569.3l4.85-4.05-3.24-4.85-1.62-2.43,2.43-2.43-4.05-4.05-4.85-4.85v3.24h-3.24l-3.24,4.85-5.66.81-4.85,4.05-.81,1.62,8.09,13.75.81-.81,1.62-3.24,4.85,2.43,8.9-4.05Z"/>
          </g>
        </g>
      </a>
      <a xlink:href="http://ja.wikipedia.org/wiki/金武町">
        <g id="a116">
          <g id="use118">
            <path id="_47314" data-name="47314" class="cls-4" d="M1218.56,580.63l7.28,1.62,3.24,3.24,8.9.81-1.62-4.05,1.62-3.24v-4.05l-8.09-13.75.81-1.62h-3.24l-2.43,7.28-4.05-4.05-4.05,3.24v3.24l-7.28-.81-12.14,7.28-2.43,5.66,2.43,5.66.81-.81,3.24-5.66,6.47-3.24h6.47l4.05,3.24Z"/>
          </g>
        </g>
      </a>
      <a xlink:href="http://ja.wikipedia.org/wiki/伊江村">
        <g id="a120">
          <g id="use122">
            <path id="_47315" data-name="47315" class="cls-4" d="M1181.34,471.41l2.43,1.62,8.9-2.43.81-4.85-7.28-6.47-14.56.81h-7.28l-1.62,5.66,3.24,5.66h15.37Z"/>
          </g>
        </g>
      </a>
      <a xlink:href="http://ja.wikipedia.org/wiki/読谷村">
        <g id="a124">
          <g id="use126">
            <path id="_47324" data-name="47324" class="cls-4" d="M1153.02,605.71l6.47,12.14,11.33-3.24-.81-2.43,6.47-13.75v-3.24l-8.09-2.43-4.85,3.24-3.24-3.24-3.24-.81-3.24-6.47h-5.66l2.43,1.62-1.62,11.33,4.05,7.28Z"/>
          </g>
        </g>
      </a>
      <a xlink:href="http://ja.wikipedia.org/wiki/嘉手納町">
        <g id="a128">
          <g id="use130">
            <path id="_47325" data-name="47325" class="cls-4" d="M1173.25,625.94l3.24-1.62-2.43-8.09,2.43-8.9v-8.9l-6.47,13.75.81,2.43-11.33,3.24-.81,1.62,2.43,7.28,5.66.81,6.47-1.62Z"/>
          </g>
        </g>
      </a>
      <a xlink:href="http://ja.wikipedia.org/wiki/北谷町">
        <g id="a132">
          <g id="use134">
            <path id="_47326" data-name="47326" class="cls-4" d="M1176.49,638.08v-.81h-2.43l.81-1.62-3.24-8.09,1.62-1.62-6.47,1.62-5.66-.81-.81,4.85,2.43,4.05h2.43l.81,11.33,8.09-.81-.81-4.85,3.24-3.24Z"/>
          </g>
        </g>
      </a>
      <a xlink:href="http://ja.wikipedia.org/wiki/北中城村">
        <g id="a136">
          <g id="use138">
            <path id="_47327" data-name="47327" class="cls-4" d="M1193.48,642.93l-7.28-.81-1.62-8.9-4.05,2.43-1.62,2.43-2.43-.81v.81l-3.24,3.24.81,4.85,3.24,4.05,5.66.81,4.85-2.43-1.62-3.24,2.43-3.24,4.85.81Z"/>
          </g>
        </g>
      </a>
      <a xlink:href="http://ja.wikipedia.org/wiki/中城村">
        <g id="a140">
          <g id="use142">
            <path id="_47328" data-name="47328" class="cls-4" d="M1169.21,668.82l8.09,4.85,4.05-14.56,5.66-3.24.81-7.28-4.85,2.43-5.66-.81-4.05,5.66-2.43,8.09-1.62,4.85Z"/>
          </g>
        </g>
      </a>
      <a xlink:href="http://ja.wikipedia.org/wiki/西原町">
        <g id="a144">
          <g id="use146">
            <path id="_47329" data-name="47329" class="cls-4" d="M1160.31,680.96l7.28,1.62,8.9-6.47,3.24,2.43-2.43-4.85-8.09-4.85,1.62-4.85-6.47.81-5.66,6.47-1.62,4.85.81,3.24,2.43,1.62Z"/>
          </g>
        </g>
      </a>
      <a xlink:href="http://ja.wikipedia.org/wiki/与那原町">
        <g id="a148">
          <g id="use150">
            <path id="_47348" data-name="47348" class="cls-4" d="M1167.59,682.58l-7.28-1.62,1.62,4.05v2.43l5.66,1.62,1.62,4.05,4.05-1.62-3.24-4.85-4.85-.81,2.43-3.24Z"/>
          </g>
        </g>
      </a>
      <a xlink:href="http://ja.wikipedia.org/wiki/南風原町">
        <g id="a152">
          <g id="use154">
            <path id="_47350" data-name="47350" class="cls-4" d="M1149.79,695.52l5.66,4.85,4.05-12.14,2.43-.81v-2.43l-1.62-4.05-2.43-1.62-10.52,11.33,2.43,4.85Z"/>
          </g>
        </g>
      </a>
      <a xlink:href="http://ja.wikipedia.org/wiki/渡嘉敷村">
        <g id="a156">
          <g id="use158">
            <path id="_47353" data-name="47353" class="cls-4" d="M1017.1,673.68l1.62,3.24.81-2.43-1.62-3.24-.81,2.43ZM1016.29,693.9l3.24-2.43.81-4.05h-2.43l2.43-1.62-.81-3.24-.81-4.05-4.85-2.43-1.62,1.62-3.24,8.9,1.62,6.47-4.05.81.81,5.66,3.24,1.62-1.62,4.85,1.62,4.05.81-4.05,3.24-.81v-10.52l1.62-.81ZM1047.04,686.62l4.85-8.09-2.43-2.43-4.85,10.52h2.43Z"/>
          </g>
        </g>
      </a>
      <a xlink:href="http://ja.wikipedia.org/wiki/座間味村">
        <g id="a160">
          <g id="use162">
            <path id="_47354" data-name="47354" class="cls-4" d="M1003.35,672.87l.81-3.24-6.47-1.62-1.62-3.24-.81,4.85-2.43,1.62-2.43-2.43-.81,3.24-4.85,1.62,5.66,3.24,2.43-1.62,2.43,4.05,2.43-4.85-1.62-3.24,2.43-1.62,1.62,4.85,4.05.81-.81-2.43ZM968.56,680.15l1.62,3.24,3.24-5.66h-4.05l-.81,2.43ZM995.25,682.58l1.62,5.66,1.62-3.24-3.24-5.66v3.24ZM988.78,689.86l-4.05-8.9-5.66,6.47.81.81,3.24.81v3.24l5.66-2.43ZM985.55,694.71l1.62,2.43,3.24-.81-2.43-4.05-2.43,2.43ZM970.17,702.8l.81-5.66-2.43-2.43-2.43,7.28,4.05.81ZM989.59,702.8l.81-4.85-3.24,3.24,2.43,1.62Z"/>
          </g>
        </g>
      </a>
      <a xlink:href="http://ja.wikipedia.org/wiki/粟国村">
        <g id="a164">
          <g id="use166">
            <path id="_47355" data-name="47355" class="cls-4" d="M970.17,527.23l1.62-6.47-3.24-4.05-5.66,2.43-5.66,8.09h12.95Z"/>
          </g>
        </g>
      </a>
      <a xlink:href="http://ja.wikipedia.org/wiki/渡名喜村">
        <g id="a168">
          <g id="use170">
            <path id="_47356" data-name="47356" class="cls-4" d="M933.76,621.89v2.43l3.24-3.24,2.43-3.24h-4.05l-1.62-8.09-2.43,2.43-.81,4.85,3.24,4.85Z"/>
          </g>
        </g>
      </a>
      <a xlink:href="http://ja.wikipedia.org/wiki/伊平屋村">
        <g id="a172">
          <g id="use174">
            <path id="_47359" data-name="47359" class="cls-4" d="M1231.5,349.24l1.62.81,3.24-10.52,6.47-.81,1.62-6.47,8.9-3.24,4.05-12.95,8.09-7.28-8.09,1.62-11.33,8.9-7.28,9.71-7.28,9.71,1.62,8.09-1.62,2.43ZM1224.22,350.05l3.24,2.43,4.05-4.05-4.05-1.62-3.24,3.24Z"/>
          </g>
        </g>
      </a>
      <a xlink:href="http://ja.wikipedia.org/wiki/伊是名村">
        <g id="a176">
          <g id="use178">
            <path id="_47360" data-name="47360" class="cls-4" d="M1237.98,378.36l2.43-7.28-6.47-4.85-8.09,4.85-2.43,3.24,4.05.81-.81,6.47,7.28,4.05,4.85-.81-.81-6.47ZM1226.65,389.69l.81,3.24h4.85l-3.24-1.62,1.62-1.62h-4.05Z"/>
          </g>
        </g>
      </a>
      <a xlink:href="http://ja.wikipedia.org/wiki/久米島町">
        <g id="a180">
          <g id="use182">
            <path id="_47361" data-name="47361" class="cls-4" d="M789.75,630.79l6.47,11.33,8.9,4.85.81.81-1.62-9.71.81-6.47,7.28-7.28-4.85-3.24-1.62-5.66-6.47-4.05-4.05-5.66-4.05-.81-7.28,3.24-9.71,4.05-4.85.81-1.62,4.05,3.24-4.05-4.05,6.47,3.24,3.24,2.43,1.62-4.05-3.24.81-3.24,5.66,6.47,12.14,1.62-1.62,1.62,4.05,3.24ZM829.39,625.13h6.47l4.05-2.43-10.52,2.43ZM816.45,627.56l2.43.81-.81-2.43-1.62,1.62ZM809.98,628.37h5.66l-2.43-2.43-3.24,2.43Z"/>
          </g>
        </g>
      </a>
      <a xlink:href="http://ja.wikipedia.org/wiki/八重瀬町">
        <g id="a184">
          <g id="use186">
            <path id="_47362" data-name="47362" class="cls-4" d="M1168.4,718.17l-8.9-10.52-3.24-.81-.81-6.47-5.66-4.85h-.81l-3.24,4.05.81,2.43-4.05,5.66,2.43,2.43h4.85l-2.43,7.28,4.05,9.71,4.85,3.24,4.05-5.66,8.09-6.47Z"/>
          </g>
        </g>
      </a>
    </g>
    <g id="g219">
      <a xlink:href="http://ja.wikipedia.org/wiki/宮古島市">
        <g id="a221">
          <g id="use223">
            <path id="_47214" data-name="47214" class="cls-4" d="M904.65,770.91l-.81-2.43,4.05.81-3.24-4.85-1.62-1.62-4.85,1.62.81,3.24,5.66,3.24ZM926.49,772.53l2.43.81-1.62-2.43-.81,1.62ZM980.7,853.44l1.62-.81,1.62-1.62,5.66,4.85-8.9-10.52-4.85-7.28-7.28-.81-8.09-4.05-4.05-5.66-4.85-2.43-5.66,1.62-7.28-4.05-2.43-5.66,1.62-4.85-8.09-5.66-3.24-8.9-2.43-8.9-5.66-1.62-4.85-10.52-2.43-4.05,2.43,4.85-3.24.81-3.24-3.24,3.24,4.05,4.05,8.09,2.43,4.85,5.66,8.9.81,5.66-4.05-3.24-2.43,1.62v13.75l-5.66,3.24-2.43-.81-.81,5.66,8.09,6.47,1.62,7.28v2.43h-6.47l-1.62-8.09-3.24,5.66,3.24,8.9,8.09,4.05,4.85,3.24.81-6.47v6.47l4.85,2.43,6.47-3.24,8.9-.81,6.47-2.43,4.05.81,16.18-.81,10.52.81ZM874.71,813.8l2.43,3.24,8.09,2.43,8.09-1.62v-8.09l-3.24-8.09-8.09-3.24-10.52-3.24-2.43,2.43,1.62,7.28-1.62,1.62h.81l4.85,7.28ZM873.09,821.08l4.05-4.05-3.24-3.24-4.85-6.47,1.62,3.24-4.05-2.43-4.05-4.05-1.62,7.28,4.05,7.28,6.47,2.43,1.62-.81v.81ZM907.07,858.29l.81-4.05-4.05-3.24h-2.43l-.81,4.05,3.24,3.24h3.24Z"/>
          </g>
        </g>
      </a>
    </g>
    <g id="g250">
      <a xlink:href="http://ja.wikipedia.org/wiki/石垣市">
        <g id="a252">
          <g id="use254">
            <path id="_47207a" data-name="47207a" class="cls-4" d="M705.57,874.05l-10.52-2.43-2.43,2.43-2.43,3.24-2.43-2.43,3.24-1.62v-3.24l-1.62-6.47-8.09-3.24-1.62,1.62,4.85,3.24-2.43,2.43v8.09h-4.85l-2.43-3.24h-8.09l-4.05,8.9,6.47,6.47,3.24-4.85,5.66-2.43h5.66l4.05,7.28,4.05,1.62.81,7.28-.81,3.24-.81-2.43-11.33,10.52,4.85,4.85,8.09,2.43,1.62,3.24-1.62,2.43,8.09,3.24,9.71-1.62,4.05-4.85-1.62-3.24,4.05-.81,8.9,4.85,4.85-2.43,2.43-4.05,3.24-22.65-3.24-8.09,2.43-4.85-2.43-5.66,2.43-7.28,9.71-5.66v-8.09l4.05-3.24,5.66-5.66-.81-3.24v-4.85l6.47-5.66,4.85-4.85,1.62-8.09v-6.47l-8.09-2.43-2.43,4.85-4.05,8.9-6.47,7.28,3.24,8.9-2.43,1.62-3.24,12.14-.81,1.62-6.47-6.47-1.62,1.62-5.66,7.28h-4.85l1.62,4.05-3.24,6.47v7.28l-6.47-.81-6.47.81-4.05,3.24ZM692.63,870.01l1.62,2.43.81-.81-1.62-3.24-.81,1.62Z"/>
          </g>
        </g>
      </a>
      <a xlink:href="http://ja.wikipedia.org/wiki/竹富町">
        <g id="a256">
          <g id="use258">
            <path id="_47381a" data-name="47381a" class="cls-4" d="M564.79,863.54l4.05,2.43-.81-3.24-3.24.81ZM540.52,944.44l9.71,3.24h4.05l7.28,2.43,10.52-.81,5.66,2.43,5.66,4.05h6.47l1.62-5.66-1.62-4.05h2.43l5.66,2.43v-12.95l4.05-8.9,6.47,4.05v-11.33l4.05-6.47.81-3.24-7.28-.81-5.66-7.28h-7.28l-2.43-6.47-4.85-2.43-2.43,4.05-3.24-3.24h-3.24l-4.85-1.62-6.47,7.28-3.24-4.85,3.24.81-2.43-.81.81-4.05-4.85-2.43-6.47-8.9-6.47.81v3.24l3.24,1.62-.81,2.43-4.05,1.62-4.05,4.85.81,4.85-4.05-.81,4.05,8.09-4.05,2.43,4.05,4.05-2.43,8.09,1.62,11.33-3.24-3.24-1.62,2.43-.81-6.47-3.24.81v-5.66l-3.24,1.62-1.62,4.05-4.05-8.09-2.43.81,4.85,12.14-3.24,1.62v-1.62l-.81-4.05-5.66-2.43-1.62,4.05,2.43,5.66-7.28-1.62-3.24,1.62,5.66,8.9,1.62,2.43,8.09.81,6.47.81,1.62-8.09,4.05.81,7.28,5.66ZM529.19,905.61l2.43-.81-1.62-1.62-4.85,2.43,2.43,4.05,1.62-4.05ZM530,910.46l1.62,3.24,4.85,4.05.81-3.24-4.05-4.85-3.24.81ZM632.76,918.55l-7.28-4.85-3.24,2.43,2.43,4.05-7.28,3.24,12.95.81,3.24,3.24,4.05-2.43-4.85-6.47ZM665.93,926.64l3.24,5.66,6.47-4.05-5.66-8.09-4.05,6.47ZM642.46,970.33l4.85-4.05.81-4.05-2.43-4.05-3.24,1.62-5.66-3.24-4.05,3.24,2.43,5.66,4.85,5.66,2.43-.81ZM617.38,965.48l1.62-2.43-2.43-1.62-4.85,7.28,5.66-3.24ZM606.06,971.95l2.43,3.24,3.24-.81-.81-4.05-4.85,1.62Z"/>
          </g>
        </g>
      </a>
    </g>
    <g>
      <polyline class="cls-21" points="800.39 996.46 800.39 997.46 799.39 997.46"/>
      <line class="cls-22" x1="797.39" y1="997.46" x2="493.33" y2="997.46"/>
      <polyline class="cls-21" points="492.33 997.46 491.33 997.46 491.33 996.46"/>
      <line class="cls-20" x1="491.33" y1="994.46" x2="491.33" y2="791.31"/>
      <polyline class="cls-21" points="491.33 790.31 491.33 789.31 492.33 789.31"/>
      <line class="cls-22" x1="494.33" y1="789.31" x2="798.39" y2="789.31"/>
      <polyline class="cls-21" points="799.39 789.31 800.39 789.31 800.39 790.31"/>
      <line class="cls-20" x1="800.39" y1="792.32" x2="800.39" y2="995.46"/>
    </g>
    <g>
      <polyline class="cls-21" points="1026.43 885.88 1026.41 886.88 1025.41 886.86"/>
      <line class="cls-23" x1="1023.41" y1="886.83" x2="844.13" y2="883.63"/>
      <polyline class="cls-21" points="843.13 883.62 842.13 883.6 842.15 882.6"/>
      <line class="cls-19" x1="842.18" y1="880.63" x2="844.46" y2="747.58"/>
      <polyline class="cls-21" points="844.48 746.59 844.49 745.59 845.49 745.61"/>
      <line class="cls-23" x1="847.5" y1="745.65" x2="1026.77" y2="748.84"/>
      <polyline class="cls-21" points="1027.77 748.86 1028.77 748.88 1028.76 749.88"/>
      <line class="cls-19" x1="1028.72" y1="751.85" x2="1026.45" y2="884.9"/>
    </g>
  </g>
  <g id="_02_contents" data-name="02_contents">
    <g>
      <path class="cls-18" d="M547.17,909.67h0c7.94,0,13,8.47,9.25,15.46l-9.01,16.77c-.1.19-.38.19-.48,0l-9.01-16.77c-3.76-6.99,1.31-15.46,9.25-15.46Z"/>
      <circle class="cls-16" cx="547.17" cy="920.21" r="5.05"/>
      <line class="cls-16" x1="561.29" y1="920.21" x2="566.29" y2="920.21"/>
      <line class="cls-16" x1="560.17" y1="925.73" x2="564.76" y2="927.68"/>
      <line class="cls-16" x1="560.16" y1="914.68" x2="564.76" y2="912.72"/>
      <line class="cls-16" x1="533.04" y1="920.21" x2="528.05" y2="920.21"/>
      <line class="cls-16" x1="534.17" y1="925.73" x2="529.57" y2="927.68"/>
      <line class="cls-16" x1="534.17" y1="914.68" x2="529.57" y2="912.72"/>
    </g>
    <g>
      <path class="cls-13" d="M1178.6,433.19h0c7.94,0,13,8.47,9.25,15.46l-9.01,16.77c-.1.19-.38.19-.48,0l-9.01-16.77c-3.76-6.99,1.31-15.46,9.25-15.46Z"/>
      <circle class="cls-16" cx="1178.6" cy="443.73" r="5.05"/>
      <line class="cls-16" x1="1192.73" y1="443.73" x2="1197.72" y2="443.73"/>
      <line class="cls-16" x1="1191.6" y1="449.25" x2="1196.2" y2="451.2"/>
      <line class="cls-16" x1="1191.6" y1="438.2" x2="1196.19" y2="436.24"/>
      <line class="cls-16" x1="1164.48" y1="443.73" x2="1159.48" y2="443.73"/>
      <line class="cls-16" x1="1165.6" y1="449.25" x2="1161" y2="451.2"/>
      <line class="cls-16" x1="1165.61" y1="438.2" x2="1161.01" y2="436.24"/>
    </g>
    <g>
      <path class="cls-5" d="M1014.61,655.21h0c7.94,0,13,8.47,9.25,15.46l-9.01,16.77c-.1.19-.38.19-.48,0l-9.01-16.77c-3.76-6.99,1.31-15.46,9.25-15.46Z"/>
      <circle class="cls-16" cx="1014.61" cy="665.75" r="5.05"/>
      <line class="cls-16" x1="1028.73" y1="665.75" x2="1033.73" y2="665.75"/>
      <line class="cls-16" x1="1027.61" y1="671.27" x2="1032.21" y2="673.22"/>
      <line class="cls-16" x1="1027.6" y1="660.22" x2="1032.2" y2="658.26"/>
      <line class="cls-16" x1="1000.48" y1="665.75" x2="995.49" y2="665.75"/>
      <line class="cls-16" x1="1001.61" y1="671.27" x2="997.01" y2="673.22"/>
      <line class="cls-16" x1="1001.61" y1="660.22" x2="997.01" y2="658.26"/>
    </g>
    <g>
      <path class="cls-14" d="M790.35,585.65h0c7.94,0,13,8.47,9.25,15.46l-9.01,16.77c-.1.19-.38.19-.48,0l-9.01-16.77c-3.76-6.99,1.31-15.46,9.25-15.46Z"/>
      <circle class="cls-16" cx="790.35" cy="596.19" r="5.05"/>
      <line class="cls-16" x1="804.47" y1="596.19" x2="809.47" y2="596.19"/>
      <line class="cls-16" x1="803.35" y1="601.71" x2="807.95" y2="603.66"/>
      <line class="cls-16" x1="803.34" y1="590.66" x2="807.94" y2="588.7"/>
      <line class="cls-16" x1="776.22" y1="596.19" x2="771.23" y2="596.19"/>
      <line class="cls-16" x1="777.35" y1="601.71" x2="772.75" y2="603.66"/>
      <line class="cls-16" x1="777.35" y1="590.66" x2="772.75" y2="588.7"/>
    </g>
    <g>
      <path class="cls-11" d="M1145.52,694.5h0c7.94,0,13,8.47,9.25,15.46l-9.01,16.77c-.1.19-.38.19-.48,0l-9.01-16.77c-3.76-6.99,1.31-15.46,9.25-15.46Z"/>
      <circle class="cls-16" cx="1145.52" cy="705.04" r="5.05"/>
      <line class="cls-16" x1="1159.64" y1="705.04" x2="1164.64" y2="705.04"/>
      <line class="cls-16" x1="1158.52" y1="710.56" x2="1163.11" y2="712.51"/>
      <line class="cls-16" x1="1158.51" y1="699.51" x2="1163.11" y2="697.55"/>
      <line class="cls-16" x1="1131.39" y1="705.04" x2="1126.4" y2="705.04"/>
      <line class="cls-16" x1="1132.52" y1="710.56" x2="1127.92" y2="712.51"/>
      <line class="cls-16" x1="1132.52" y1="699.51" x2="1127.92" y2="697.55"/>
    </g>
    <g>
      <path class="cls-2" d="M1294.37,504.01h0c7.94,0,13,8.47,9.25,15.46l-9.01,16.77c-.1.19-.38.19-.48,0l-9.01-16.77c-3.76-6.99,1.31-15.46,9.25-15.46Z"/>
      <circle class="cls-16" cx="1294.37" cy="514.55" r="5.05"/>
      <line class="cls-16" x1="1308.5" y1="514.55" x2="1313.49" y2="514.55"/>
      <line class="cls-16" x1="1307.37" y1="520.07" x2="1311.97" y2="522.03"/>
      <line class="cls-16" x1="1307.37" y1="509.02" x2="1311.97" y2="507.06"/>
      <line class="cls-16" x1="1280.25" y1="514.55" x2="1275.25" y2="514.55"/>
      <line class="cls-16" x1="1281.37" y1="520.07" x2="1276.77" y2="522.03"/>
      <line class="cls-16" x1="1281.38" y1="509.02" x2="1276.78" y2="507.06"/>
    </g>
    <g>
      <path class="cls-1" d="M965.84,488.42h0c7.94,0,13,8.47,9.25,15.46l-9.01,16.77c-.1.19-.38.19-.48,0l-9.01-16.77c-3.76-6.99,1.31-15.46,9.25-15.46Z"/>
      <circle class="cls-16" cx="965.84" cy="498.96" r="5.05"/>
      <line class="cls-16" x1="979.96" y1="498.96" x2="984.96" y2="498.96"/>
      <line class="cls-16" x1="978.84" y1="504.48" x2="983.44" y2="506.43"/>
      <line class="cls-16" x1="978.84" y1="493.43" x2="983.43" y2="491.47"/>
      <line class="cls-16" x1="951.72" y1="498.96" x2="946.72" y2="498.96"/>
      <line class="cls-16" x1="952.84" y1="504.48" x2="948.24" y2="506.43"/>
      <line class="cls-16" x1="952.84" y1="493.43" x2="948.25" y2="491.47"/>
    </g>
    <g>
      <path class="cls-6" d="M940.04,815.51h0c7.94,0,13,8.47,9.25,15.46l-9.01,16.77c-.1.19-.38.19-.48,0l-9.01-16.77c-3.76-6.99,1.31-15.46,9.25-15.46Z"/>
      <circle class="cls-16" cx="940.04" cy="826.05" r="5.05"/>
      <line class="cls-16" x1="954.16" y1="826.05" x2="959.16" y2="826.05"/>
      <line class="cls-16" x1="953.04" y1="831.57" x2="957.63" y2="833.52"/>
      <line class="cls-16" x1="953.03" y1="820.52" x2="957.63" y2="818.56"/>
      <line class="cls-16" x1="925.91" y1="826.05" x2="920.92" y2="826.05"/>
      <line class="cls-16" x1="927.03" y1="831.57" x2="922.44" y2="833.52"/>
      <line class="cls-16" x1="927.04" y1="820.52" x2="922.44" y2="818.56"/>
    </g>
    <g>
      <path class="cls-3" d="M1357.59,449.68h0c7.94,0,13,8.47,9.25,15.46l-9.01,16.77c-.1.19-.38.19-.48,0l-9.01-16.77c-3.76-6.99,1.31-15.46,9.25-15.46Z"/>
      <circle class="cls-16" cx="1357.59" cy="460.22" r="5.05"/>
      <line class="cls-16" x1="1371.71" y1="460.22" x2="1376.71" y2="460.22"/>
      <line class="cls-16" x1="1370.59" y1="465.74" x2="1375.19" y2="467.69"/>
      <line class="cls-16" x1="1370.59" y1="454.69" x2="1375.18" y2="452.73"/>
      <line class="cls-16" x1="1343.47" y1="460.22" x2="1338.47" y2="460.22"/>
      <line class="cls-16" x1="1344.59" y1="465.74" x2="1339.99" y2="467.69"/>
      <line class="cls-16" x1="1344.59" y1="454.69" x2="1340" y2="452.73"/>
    </g>
    <g>
      <path class="cls-8" d="M1253.17,592.04h0c7.94,0,13,8.47,9.25,15.46l-9.01,16.77c-.1.19-.38.19-.48,0l-9.01-16.77c-3.76-6.99,1.31-15.46,9.25-15.46Z"/>
      <circle class="cls-16" cx="1253.17" cy="602.58" r="5.05"/>
      <line class="cls-16" x1="1267.3" y1="602.58" x2="1272.29" y2="602.58"/>
      <line class="cls-16" x1="1266.17" y1="608.11" x2="1270.77" y2="610.06"/>
      <line class="cls-16" x1="1266.17" y1="597.05" x2="1270.77" y2="595.1"/>
      <line class="cls-16" x1="1239.05" y1="602.58" x2="1234.05" y2="602.58"/>
      <line class="cls-16" x1="1240.17" y1="608.11" x2="1235.57" y2="610.06"/>
      <line class="cls-16" x1="1240.18" y1="597.05" x2="1235.58" y2="595.1"/>
    </g>
    <g>
      <path class="cls-7" d="M703.85,885.07h0c7.94,0,13,8.47,9.25,15.46l-9.01,16.77c-.1.19-.38.19-.48,0l-9.01-16.77c-3.76-6.99,1.31-15.46,9.25-15.46Z"/>
      <circle class="cls-16" cx="703.85" cy="895.61" r="5.05"/>
      <line class="cls-16" x1="717.97" y1="895.61" x2="722.97" y2="895.61"/>
      <line class="cls-16" x1="716.85" y1="901.14" x2="721.45" y2="903.09"/>
      <line class="cls-16" x1="716.84" y1="890.08" x2="721.44" y2="888.13"/>
      <line class="cls-16" x1="689.72" y1="895.61" x2="684.73" y2="895.61"/>
      <line class="cls-16" x1="690.85" y1="901.14" x2="686.25" y2="903.09"/>
      <line class="cls-16" x1="690.85" y1="890.08" x2="686.26" y2="888.13"/>
    </g>
    <g>
      <path class="cls-10" d="M602.93,890.12h0c7.94,0,13,8.47,9.25,15.46l-9.01,16.77c-.1.19-.38.19-.48,0l-9.01-16.77c-3.76-6.99,1.31-15.46,9.25-15.46Z"/>
      <circle class="cls-16" cx="602.93" cy="900.66" r="5.05"/>
      <line class="cls-16" x1="617.05" y1="900.66" x2="622.05" y2="900.66"/>
      <line class="cls-16" x1="615.93" y1="906.18" x2="620.53" y2="908.13"/>
      <line class="cls-16" x1="615.92" y1="895.13" x2="620.52" y2="893.17"/>
      <line class="cls-16" x1="588.8" y1="900.66" x2="583.81" y2="900.66"/>
      <line class="cls-16" x1="589.93" y1="906.18" x2="585.33" y2="908.13"/>
      <line class="cls-16" x1="589.93" y1="895.13" x2="585.34" y2="893.17"/>
    </g>
    <g>
      <path class="cls-15" d="M1233.06,472.79h0c7.94,0,13,8.47,9.25,15.46l-9.01,16.77c-.1.19-.38.19-.48,0l-9.01-16.77c-3.76-6.99,1.31-15.46,9.25-15.46Z"/>
      <circle class="cls-16" cx="1233.06" cy="483.33" r="5.05"/>
      <line class="cls-16" x1="1247.19" y1="483.33" x2="1252.18" y2="483.33"/>
      <line class="cls-16" x1="1246.06" y1="488.85" x2="1250.66" y2="490.8"/>
      <line class="cls-16" x1="1246.06" y1="477.8" x2="1250.65" y2="475.84"/>
      <line class="cls-16" x1="1218.94" y1="483.33" x2="1213.94" y2="483.33"/>
      <line class="cls-16" x1="1220.06" y1="488.85" x2="1215.46" y2="490.8"/>
      <line class="cls-16" x1="1220.07" y1="477.8" x2="1215.47" y2="475.84"/>
    </g>
    <g>
      <path class="cls-17" d="M1172.22,585.24h0c7.94,0,13,8.47,9.25,15.46l-9.01,16.77c-.1.19-.38.19-.48,0l-9.01-16.77c-3.76-6.99,1.31-15.46,9.25-15.46Z"/>
      <circle class="cls-16" cx="1172.22" cy="595.78" r="5.05"/>
      <line class="cls-16" x1="1186.35" y1="595.78" x2="1191.34" y2="595.78"/>
      <line class="cls-16" x1="1185.22" y1="601.3" x2="1189.82" y2="603.26"/>
      <line class="cls-16" x1="1185.22" y1="590.25" x2="1189.82" y2="588.3"/>
      <line class="cls-16" x1="1158.1" y1="595.78" x2="1153.1" y2="595.78"/>
      <line class="cls-16" x1="1159.22" y1="601.3" x2="1154.62" y2="603.26"/>
      <line class="cls-16" x1="1159.23" y1="590.25" x2="1154.63" y2="588.3"/>
    </g>
    <g>
      <path class="cls-12" d="M877.18,779.42h0c7.94,0,13,8.47,9.25,15.46l-9.01,16.77c-.1.19-.38.19-.48,0l-9.01-16.77c-3.76-6.99,1.31-15.46,9.25-15.46Z"/>
      <circle class="cls-16" cx="877.18" cy="789.96" r="5.05"/>
      <line class="cls-16" x1="891.3" y1="789.96" x2="896.3" y2="789.96"/>
      <line class="cls-16" x1="890.18" y1="795.48" x2="894.77" y2="797.44"/>
      <line class="cls-16" x1="890.17" y1="784.43" x2="894.77" y2="782.47"/>
      <line class="cls-16" x1="863.05" y1="789.96" x2="858.06" y2="789.96"/>
      <line class="cls-16" x1="864.18" y1="795.48" x2="859.58" y2="797.44"/>
      <line class="cls-16" x1="864.18" y1="784.43" x2="859.58" y2="782.47"/>
    </g>
    <g>
      <path class="cls-9" d="M755.78,799.79h0c7.94,0,13,8.47,9.25,15.46l-9.01,16.77c-.1.19-.38.19-.48,0l-9.01-16.77c-3.76-6.99,1.31-15.46,9.25-15.46Z"/>
      <circle class="cls-16" cx="755.78" cy="810.33" r="5.05"/>
      <line class="cls-16" x1="769.91" y1="810.33" x2="774.91" y2="810.33"/>
      <line class="cls-16" x1="768.79" y1="815.85" x2="773.38" y2="817.8"/>
      <line class="cls-16" x1="768.78" y1="804.8" x2="773.38" y2="802.84"/>
      <line class="cls-16" x1="741.66" y1="810.33" x2="736.66" y2="810.33"/>
      <line class="cls-16" x1="742.78" y1="815.85" x2="738.19" y2="817.8"/>
      <line class="cls-16" x1="742.79" y1="804.8" x2="738.19" y2="802.84"/>
    </g>
    <text class="cls-24" transform="translate(112.96 120.28)"><tspan x="0" y="0">高付加価値コンテンツ創出</tspan></text>
  </g>
</svg>