<?xml version="1.0" encoding="UTF-8"?>
<svg xmlns="http://www.w3.org/2000/svg" xmlns:xlink="http://www.w3.org/1999/xlink" viewBox="0 0 1690.09 935.69">
  <defs>
    <style>
      .cls-1 {
        fill: #ff9770;
      }

      .cls-1, .cls-2, .cls-3, .cls-4, .cls-5, .cls-6, .cls-7, .cls-8, .cls-9, .cls-10, .cls-11, .cls-12, .cls-13, .cls-14, .cls-15, .cls-16, .cls-17, .cls-18 {
        stroke-miterlimit: 10;
      }

      .cls-1, .cls-2, .cls-3, .cls-5, .cls-6, .cls-7, .cls-8, .cls-9, .cls-10, .cls-11, .cls-12, .cls-13, .cls-14, .cls-15, .cls-16, .cls-17, .cls-18 {
        stroke: #333;
        stroke-linecap: round;
      }

      .cls-2 {
        fill: #70d6ff;
      }

      .cls-3 {
        fill: #e9ff70;
      }

      .cls-4 {
        fill: #008b52;
        stroke: #008b52;
      }

      .cls-5 {
        fill: #8338ec;
      }

      .cls-6 {
        fill: #ffd670;
      }

      .cls-7 {
        fill: #fc2f00;
      }

      .cls-19 {
        stroke-dasharray: 0 0 1.97 1.97;
      }

      .cls-19, .cls-20, .cls-21, .cls-22, .cls-23 {
        fill: none;
        stroke: gray;
        stroke-linejoin: round;
        stroke-width: .5px;
      }

      .cls-8 {
        fill: #ec0868;
      }

      .cls-24 {
        fill: #2ef6ff;
      }

      .cls-25 {
        font-size: 21px;
      }

      .cls-25, .cls-26 {
        font-family: 'UDKakugo_LargePr6N-M-90ms-RKSJ-H', 'FOT-UDKakugo_Large Pr6N';
      }

      .cls-9 {
        fill: #ffbc0a;
      }

      .cls-10 {
        fill: #ec7d10;
      }

      .cls-20 {
        stroke-dasharray: 0 0 2 2;
      }

      .cls-11 {
        fill: #ffbe0b;
      }

      .cls-12 {
        fill: #c200fb;
      }

      .cls-13 {
        fill: #3a86ff;
      }

      .cls-26 {
        font-size: 48px;
      }

      .cls-14 {
        fill: #fb5607;
      }

      .cls-22 {
        stroke-dasharray: 0 0 2.01 2.01;
      }

      .cls-15 {
        fill: #ff006e;
      }

      .cls-27 {
        fill: #ddce0d;
      }

      .cls-28 {
        letter-spacing: -.5em;
      }

      .cls-16 {
        fill: #fff;
      }

      .cls-17 {
        fill: #ff70a6;
      }

      .cls-18 {
        fill: #8ee3ef;
      }

      .cls-23 {
        stroke-dasharray: 0 0 2 2;
      }
    </style>
  </defs>
  <g id="_01_okinawa" data-name="01_okinawa">
    <g id="g50">
      <a xlink:href="http://ja.wikipedia.org/wiki/那覇市">
        <g id="a52">
          <g id="use54">
            <path id="_47201" data-name="47201" class="cls-4" d="m1044.92,601.3l-.81-3.24,1.62-4.85-13.75.81-6.47-3.24h-.81l-.81-.81h-1.62l-.81-.81h-2.43l1.62,2.43-1.62,4.05,4.05-4.05,1.62,7.28-8.09,2.43,4.85,4.85-8.9-4.85-5.66,8.09,3.24,8.9,9.71-1.62,4.85-3.24v-4.05l4.85,1.62,4.85,1.62,10.52-11.33Z"/>
          </g>
        </g>
      </a>
      <a xlink:href="http://ja.wikipedia.org/wiki/宜野湾市">
        <g id="a56">
          <g id="use58">
            <path id="_47205" data-name="47205" class="cls-4" d="m1060.29,577.83l4.05-5.66-3.24-4.05-8.09.81-7.28,4.05.81,1.62-4.05-.81-1.62,4.05,1.62,2.43.81,5.66,4.05-1.62,4.05,2.43,6.47-.81,2.43-8.09Z"/>
          </g>
        </g>
      </a>
      <a xlink:href="http://ja.wikipedia.org/wiki/浦添市">
        <g id="a60">
          <g id="use62">
            <path id="_47208" data-name="47208" class="cls-4" d="m1051.39,586.73l-4.05-2.43-4.05,1.62-.81-5.66-1.62-2.43h-7.28l-5.66,8.09-3.24-.81v2.43l.81,3.24,6.47,3.24,13.75-.81,5.66-6.47Zm-29.94,2.43l1.62-1.62-4.05,1.62h2.43Z"/>
          </g>
        </g>
      </a>
      <a xlink:href="http://ja.wikipedia.org/wiki/名護市">
        <g id="a64">
          <g id="use66">
            <path id="_47209" data-name="47209" class="cls-4" d="m1152.53,405.5l-8.09,1.62-2.43,6.47,4.05,3.24,2.43.81,1.62-3.24,7.28,4.85v-4.85l-4.85-8.9Zm38.03,53.4h6.47v-5.66l4.85-.81-4.85-6.47-4.05-4.05-4.05.81-8.09-7.28.81-3.24-4.85-5.66-1.62-6.47-10.52,4.05h-7.28l-3.24,3.24-7.28-1.62-1.62-4.05-4.85-2.43-4.05,4.05-1.62-1.62-1.62,2.43-2.43-1.62h-1.62l-4.85,4.05-9.71-1.62-8.09,8.09.81,3.24-.81.81,5.66,1.62,4.05-3.24,15.37,8.09h5.66l1.62,5.66-3.24,7.28-4.85,8.09-4.05-2.43-4.05,4.85-3.24-3.24-1.62,4.85,4.85,8.9,5.66-.81,3.24-4.85h3.24v-3.24l4.85,4.85,4.05,4.05,3.24,1.62,1.62-4.05,5.66,1.62,3.24-2.43,7.28-1.62-5.66-10.52-1.62-3.24,3.24-.81.81,3.24,8.09-2.43,3.24,2.43,8.09,5.66-.81-3.24,3.24.81.81-2.43,6.47-3.24Z"/>
          </g>
        </g>
      </a>
      <a xlink:href="http://ja.wikipedia.org/wiki/糸満市">
        <g id="a68">
          <g id="use70">
            <path id="_47210" data-name="47210" class="cls-4" d="m1043.3,652.27l-4.85-3.24-4.05-9.71,2.43-7.28h-4.85l-2.43-2.43,4.05-5.66-.81-2.43-12.95,7.28-8.09,3.24,1.62,8.09v-4.05l6.47.81-2.43,1.62,1.62,4.05h-2.43l-1.62,15.37,5.66,2.43,3.24,1.62,5.66-4.85,10.52-1.62,3.24-3.24Z"/>
          </g>
        </g>
      </a>
      <a xlink:href="http://ja.wikipedia.org/wiki/沖縄市">
        <g id="a72">
          <g id="use74">
            <path id="_47211" data-name="47211" class="cls-4" d="m1067.58,557.61l4.05-2.43,1.62,8.9,7.28.81v-4.05l4.85-.81,1.62-1.62-4.85-3.24,3.24-3.24-8.09-10.52,5.66-8.9-4.05-5.66-2.43,2.43-3.24-4.85-2.43,3.24-6.47-12.14v-.81l-.81,2.43v12.14l-2.43,8.9,2.43,8.09-3.24,1.62-1.62,1.62,3.24,8.09-.81,1.62h2.43l2.43.81,1.62-2.43Zm22.65-2.43l-4.85-3.24-2.43,1.62,7.28,1.62Z"/>
          </g>
        </g>
      </a>
      <a xlink:href="http://ja.wikipedia.org/wiki/豊見城市">
        <g id="a76">
          <g id="use78">
            <path id="_47212" data-name="47212" class="cls-4" d="m1036.02,617.48h.81l-2.43-4.85-4.85-1.62-4.85-1.62v4.05l-4.85,3.24-9.71,1.62-1.62.81h4.85l-1.62,1.62,8.09,8.09,12.95-7.28,3.24-4.05Z"/>
          </g>
        </g>
      </a>
      <a xlink:href="http://ja.wikipedia.org/wiki/うるま市">
        <g id="a80">
          <g id="use82">
            <path id="_47213" data-name="47213" class="cls-4" d="m1096.7,529.29l-7.28-4.85-3.24-2.43,2.43-.81-4.85-1.62-4.85-5.66,1.62-3.24,4.05,1.62.81-1.62-.81-1.62-2.43-5.66h-.81l-5.66,1.62-11.33,9.71v.81l6.47,12.14,2.43-3.24,3.24,4.85,2.43-2.43,4.05,5.66-5.66,8.9,8.09,10.52,5.66-4.05h2.43l15.37,18.61,1.62-.81-.81,2.43.81-2.43,4.85,3.24.81-3.24-1.62-6.47-5.66-5.66,4.05-.81h-5.66l-4.85-3.24-5.66-8.09.81-5.66v-1.62h2.43l-3.24-4.85Zm49.35-4.05v-.81l-3.24-.81-2.43,5.66,4.05,2.43,1.62-6.47Zm-11.33,17.8l7.28-1.62,1.62-4.05-4.05-2.43.81-4.85-5.66,4.05-1.62,5.66,1.62,3.24Zm-1.62,0l-.81-4.05-4.05,3.24h-4.05l-.81-2.43,1.62,8.9-4.85,4.05h-7.28l16.99-2.43,5.66-4.85-2.43-2.43Zm-42.88,12.14l.81-3.24,4.85,1.62-3.24-5.66-7.28,4.05,4.85,3.24Zm36.41,1.62l.81,4.05,2.43,1.62,3.24-6.47-4.85-1.62-1.62,2.43Zm-12.95.81l4.85,3.24-2.43-4.05-2.43.81Zm8.9,33.17l2.43-2.43-.81-6.47-3.24.81-.81,5.66,2.43,2.43Z"/>
          </g>
        </g>
      </a>
      <a xlink:href="http://ja.wikipedia.org/wiki/南城市">
        <g id="a84">
          <g id="use86">
            <path id="_47215" data-name="47215" class="cls-4" d="m1064.34,637.7l16.18-14.56.81-4.05-4.05-1.62v-4.85l-7.28,1.62-5.66,7.28-3.24-.81v-6.47l-.81-.81-4.05,1.62-1.62-4.05-5.66-1.62-2.43.81-4.05,12.14.81,6.47,3.24.81,8.9,10.52,4.85-4.05,3.24,1.62h.81Zm46.93-16.99l-10.52,6.47.81.81,9.71-7.28Z"/>
          </g>
        </g>
      </a>
      <a xlink:href="http://ja.wikipedia.org/wiki/国頭村">
        <g id="a88">
          <g id="use90">
            <path id="_47301" data-name="47301" class="cls-4" d="m1260.14,383.65l4.85-2.43v-3.24l3.24-2.43-2.43-4.05,1.62-11.33-3.24-3.24.81-8.9-4.85-6.47-.81-4.85-1.62-2.43-4.05,1.62-3.24-3.24-7.28-6.47.81-3.24-3.24-.81-4.05,6.47,3.24,4.05-.81,5.66-7.28,13.75v2.43l-9.71,12.14-8.09,8.9-12.95,3.24,3.24,3.24-1.62,7.28,17.8,11.33,8.09-7.28,7.28,1.62.81,5.66,8.09,9.71,4.05-2.43,2.43-9.71,5.66-6.47-1.62-3.24,4.05-.81.81-4.05Z"/>
          </g>
        </g>
      </a>
      <a xlink:href="http://ja.wikipedia.org/wiki/大宜味村">
        <g id="a92">
          <g id="use94">
            <path id="_47302" data-name="47302" class="cls-4" d="m1220.49,400.64l-17.8-11.33-4.05,4.05-10.52,2.43-5.66,9.71,1.62,3.24,5.66.81,2.43,4.05h-5.66v-3.24l-11.33,9.71,1.62,6.47,4.85,5.66,13.75-13.75,8.9,2.43,16.18-20.23Z"/>
          </g>
        </g>
      </a>
      <a xlink:href="http://ja.wikipedia.org/wiki/東村">
        <g id="a96">
          <g id="use98">
            <path id="_47303" data-name="47303" class="cls-4" d="m1180.85,435.44l8.09,7.28,4.05-.81v-.81l-1.62-3.24,10.52,1.62.81-4.85-3.24-4.85,1.62-3.24,14.56,1.62,12.95-1.62,5.66-.81,3.24-4.05,4.05-7.28,3.24-.81v-3.24l-8.09-9.71-.81-5.66-7.28-1.62-8.09,7.28-16.18,20.23-8.9-2.43-13.75,13.75-.81,3.24Z"/>
          </g>
        </g>
      </a>
      <a xlink:href="http://ja.wikipedia.org/wiki/今帰仁村">
        <g id="a100">
          <g id="use102">
            <path id="_47306" data-name="47306" class="cls-4" d="m1154.96,393.36l-4.05-2.43-3.24,2.43,4.05,5.66,3.24-5.66Zm-25.89,20.23v8.9h1.62l2.43,1.62,1.62-2.43,1.62,1.62,4.05-4.05-2.43-2.43,3.24.81.81-8.9,5.66-5.66-11.33-5.66-3.24,2.43-1.62-1.62,1.62-2.43-6.47-2.43-12.95,2.43-.81,8.09,7.28,5.66h8.09l.81,4.05Z"/>
          </g>
        </g>
      </a>
      <a xlink:href="http://ja.wikipedia.org/wiki/本部町">
        <g id="a104">
          <g id="use106">
            <path id="_47308" data-name="47308" class="cls-4" d="m1129.07,422.49v-8.9l-.81-4.05h-8.09l-7.28-5.66.81-8.09h-9.71l-4.85-3.24-2.43,9.71,2.43,3.24,5.66,8.09-6.47,2.43v5.66l8.09,15.37.81-.81-.81-3.24,8.09-8.09,9.71,1.62,4.85-4.05Zm-37.22,4.85l4.85-8.9-3.24-1.62-4.05,2.43,2.43,8.09Zm-19.42-8.09l4.85.81-1.62-2.43-3.24,1.62Z"/>
          </g>
        </g>
      </a>
      <a xlink:href="http://ja.wikipedia.org/wiki/恩納村">
        <g id="a108">
          <g id="use110">
            <path id="_47311" data-name="47311" class="cls-4" d="m1057.06,505.82l-9.71,8.9,3.24,3.24,4.85-3.24,8.09,2.43.81-2.43,11.33-9.71,5.66-1.62h.81l2.43-5.66,12.14-7.28,7.28.81v-3.24l4.05-3.24,4.05,4.05,2.43-7.28h3.24l4.85-4.05-4.85-8.9-2.43.81-1.62,5.66-4.05-1.62-6.47,3.24-.81,3.24h-3.24l-2.43-3.24-2.43.81-1.62,2.43-1.62-2.43-1.62,3.24-3.24-.81-2.43,3.24,2.43,5.66-12.14,8.09-4.05,6.47-2.43,5.66h-4.85l-4.85-4.85-.81,1.62Z"/>
          </g>
        </g>
      </a>
      <a xlink:href="http://ja.wikipedia.org/wiki/宜野座村">
        <g id="a112">
          <g id="use114">
            <path id="_47313" data-name="47313" class="cls-4" d="m1141.2,491.26l4.85-4.05-3.24-4.85-1.62-2.43,2.43-2.43-4.05-4.05-4.85-4.85v3.24h-3.24l-3.24,4.85-5.66.81-4.85,4.05-.81,1.62,8.09,13.75.81-.81,1.62-3.24,4.85,2.43,8.9-4.05Z"/>
          </g>
        </g>
      </a>
      <a xlink:href="http://ja.wikipedia.org/wiki/金武町">
        <g id="a116">
          <g id="use118">
            <path id="_47314" data-name="47314" class="cls-4" d="m1105.6,502.59l7.28,1.62,3.24,3.24,8.9.81-1.62-4.05,1.62-3.24v-4.05l-8.09-13.75.81-1.62h-3.24l-2.43,7.28-4.05-4.05-4.05,3.24v3.24l-7.28-.81-12.14,7.28-2.43,5.66,2.43,5.66.81-.81,3.24-5.66,6.47-3.24h6.47l4.05,3.24Z"/>
          </g>
        </g>
      </a>
      <a xlink:href="http://ja.wikipedia.org/wiki/伊江村">
        <g id="a120">
          <g id="use122">
            <path id="_47315" data-name="47315" class="cls-4" d="m1068.39,393.36l2.43,1.62,8.9-2.43.81-4.85-7.28-6.47-14.56.81h-7.28l-1.62,5.66,3.24,5.66h15.37Z"/>
          </g>
        </g>
      </a>
      <a xlink:href="http://ja.wikipedia.org/wiki/読谷村">
        <g id="a124">
          <g id="use126">
            <path id="_47324" data-name="47324" class="cls-4" d="m1040.07,527.67l6.47,12.14,11.33-3.24-.81-2.43,6.47-13.75v-3.24l-8.09-2.43-4.85,3.24-3.24-3.24-3.24-.81-3.24-6.47h-5.66l2.43,1.62-1.62,11.33,4.05,7.28Z"/>
          </g>
        </g>
      </a>
      <a xlink:href="http://ja.wikipedia.org/wiki/嘉手納町">
        <g id="a128">
          <g id="use130">
            <path id="_47325" data-name="47325" class="cls-4" d="m1060.29,547.9l3.24-1.62-2.43-8.09,2.43-8.9v-8.9l-6.47,13.75.81,2.43-11.33,3.24-.81,1.62,2.43,7.28,5.66.81,6.47-1.62Z"/>
          </g>
        </g>
      </a>
      <a xlink:href="http://ja.wikipedia.org/wiki/北谷町">
        <g id="a132">
          <g id="use134">
            <path id="_47326" data-name="47326" class="cls-4" d="m1063.53,560.03v-.81h-2.43l.81-1.62-3.24-8.09,1.62-1.62-6.47,1.62-5.66-.81-.81,4.85,2.43,4.05h2.43l.81,11.33,8.09-.81-.81-4.85,3.24-3.24Z"/>
          </g>
        </g>
      </a>
      <a xlink:href="http://ja.wikipedia.org/wiki/北中城村">
        <g id="a136">
          <g id="use138">
            <path id="_47327" data-name="47327" class="cls-4" d="m1080.52,564.89l-7.28-.81-1.62-8.9-4.05,2.43-1.62,2.43-2.43-.81v.81l-3.24,3.24.81,4.85,3.24,4.05,5.66.81,4.85-2.43-1.62-3.24,2.43-3.24,4.85.81Z"/>
          </g>
        </g>
      </a>
      <a xlink:href="http://ja.wikipedia.org/wiki/中城村">
        <g id="a140">
          <g id="use142">
            <path id="_47328" data-name="47328" class="cls-4" d="m1056.25,590.78l8.09,4.85,4.05-14.56,5.66-3.24.81-7.28-4.85,2.43-5.66-.81-4.05,5.66-2.43,8.09-1.62,4.85Z"/>
          </g>
        </g>
      </a>
      <a xlink:href="http://ja.wikipedia.org/wiki/西原町">
        <g id="a144">
          <g id="use146">
            <path id="_47329" data-name="47329" class="cls-4" d="m1047.35,602.91l7.28,1.62,8.9-6.47,3.24,2.43-2.43-4.85-8.09-4.85,1.62-4.85-6.47.81-5.66,6.47-1.62,4.85.81,3.24,2.43,1.62Z"/>
          </g>
        </g>
      </a>
      <a xlink:href="http://ja.wikipedia.org/wiki/与那原町">
        <g id="a148">
          <g id="use150">
            <path id="_47348" data-name="47348" class="cls-4" d="m1054.63,604.53l-7.28-1.62,1.62,4.05v2.43l5.66,1.62,1.62,4.05,4.05-1.62-3.24-4.85-4.85-.81,2.43-3.24Z"/>
          </g>
        </g>
      </a>
      <a xlink:href="http://ja.wikipedia.org/wiki/南風原町">
        <g id="a152">
          <g id="use154">
            <path id="_47350" data-name="47350" class="cls-4" d="m1036.83,617.48l5.66,4.85,4.05-12.14,2.43-.81v-2.43l-1.62-4.05-2.43-1.62-10.52,11.33,2.43,4.85Z"/>
          </g>
        </g>
      </a>
      <a xlink:href="http://ja.wikipedia.org/wiki/渡嘉敷村">
        <g id="a156">
          <g id="use158">
            <path id="_47353" data-name="47353" class="cls-4" d="m904.14,595.63l1.62,3.24.81-2.43-1.62-3.24-.81,2.43Zm-.81,20.23l3.24-2.43.81-4.05h-2.43l2.43-1.62-.81-3.24-.81-4.05-4.85-2.43-1.62,1.62-3.24,8.9,1.62,6.47-4.05.81.81,5.66,3.24,1.62-1.62,4.85,1.62,4.05.81-4.05,3.24-.81v-10.52l1.62-.81Zm30.74-7.28l4.85-8.09-2.43-2.43-4.85,10.52h2.43Z"/>
          </g>
        </g>
      </a>
      <a xlink:href="http://ja.wikipedia.org/wiki/座間味村">
        <g id="a160">
          <g id="use162">
            <path id="_47354" data-name="47354" class="cls-4" d="m890.39,594.82l.81-3.24-6.47-1.62-1.62-3.24-.81,4.85-2.43,1.62-2.43-2.43-.81,3.24-4.85,1.62,5.66,3.24,2.43-1.62,2.43,4.05,2.43-4.85-1.62-3.24,2.43-1.62,1.62,4.85,4.05.81-.81-2.43Zm-34.79,7.28l1.62,3.24,3.24-5.66h-4.05l-.81,2.43Zm26.7,2.43l1.62,5.66,1.62-3.24-3.24-5.66v3.24Zm-6.47,7.28l-4.05-8.9-5.66,6.47.81.81,3.24.81v3.24l5.66-2.43Zm-3.24,4.85l1.62,2.43,3.24-.81-2.43-4.05-2.43,2.43Zm-15.37,8.09l.81-5.66-2.43-2.43-2.43,7.28,4.05.81Zm19.42,0l.81-4.85-3.24,3.24,2.43,1.62Z"/>
          </g>
        </g>
      </a>
      <a xlink:href="http://ja.wikipedia.org/wiki/粟国村">
        <g id="a164">
          <g id="use166">
            <path id="_47355" data-name="47355" class="cls-4" d="m857.22,449.19l1.62-6.47-3.24-4.05-5.66,2.43-5.66,8.09h12.95Z"/>
          </g>
        </g>
      </a>
      <a xlink:href="http://ja.wikipedia.org/wiki/渡名喜村">
        <g id="a168">
          <g id="use170">
            <path id="_47356" data-name="47356" class="cls-4" d="m820.81,543.85v2.43l3.24-3.24,2.43-3.24h-4.05l-1.62-8.09-2.43,2.43-.81,4.85,3.24,4.85Z"/>
          </g>
        </g>
      </a>
      <a xlink:href="http://ja.wikipedia.org/wiki/伊平屋村">
        <g id="a172">
          <g id="use174">
            <path id="_47359" data-name="47359" class="cls-4" d="m1118.55,271.19l1.62.81,3.24-10.52,6.47-.81,1.62-6.47,8.9-3.24,4.05-12.95,8.09-7.28-8.09,1.62-11.33,8.9-7.28,9.71-7.28,9.71,1.62,8.09-1.62,2.43Zm-7.28.81l3.24,2.43,4.05-4.05-4.05-1.62-3.24,3.24Z"/>
          </g>
        </g>
      </a>
      <a xlink:href="http://ja.wikipedia.org/wiki/伊是名村">
        <g id="a176">
          <g id="use178">
            <path id="_47360" data-name="47360" class="cls-4" d="m1125.02,300.32l2.43-7.28-6.47-4.85-8.09,4.85-2.43,3.24,4.05.81-.81,6.47,7.28,4.05,4.85-.81-.81-6.47Zm-11.33,11.33l.81,3.24h4.85l-3.24-1.62,1.62-1.62h-4.05Z"/>
          </g>
        </g>
      </a>
      <a xlink:href="http://ja.wikipedia.org/wiki/久米島町">
        <g id="a180">
          <g id="use182">
            <path id="_47361" data-name="47361" class="cls-4" d="m676.79,552.75l6.47,11.33,8.9,4.85.81.81-1.62-9.71.81-6.47,7.28-7.28-4.85-3.24-1.62-5.66-6.47-4.05-4.05-5.66-4.05-.81-7.28,3.24-9.71,4.05-4.85.81-1.62,4.05,3.24-4.05-4.05,6.47,3.24,3.24,2.43,1.62-4.05-3.24.81-3.24,5.66,6.47,12.14,1.62-1.62,1.62,4.05,3.24Zm39.64-5.66h6.47l4.05-2.43-10.52,2.43Zm-12.95,2.43l2.43.81-.81-2.43-1.62,1.62Zm-6.47.81h5.66l-2.43-2.43-3.24,2.43Z"/>
          </g>
        </g>
      </a>
      <a xlink:href="http://ja.wikipedia.org/wiki/八重瀬町">
        <g id="a184">
          <g id="use186">
            <path id="_47362" data-name="47362" class="cls-4" d="m1055.44,640.13l-8.9-10.52-3.24-.81-.81-6.47-5.66-4.85h-.81l-3.24,4.05.81,2.43-4.05,5.66,2.43,2.43h4.85l-2.43,7.28,4.05,9.71,4.85,3.24,4.05-5.66,8.09-6.47Z"/>
          </g>
        </g>
      </a>
    </g>
    <g id="g219">
      <a xlink:href="http://ja.wikipedia.org/wiki/宮古島市">
        <g id="a221">
          <g id="use223">
            <path id="_47214" data-name="47214" class="cls-4" d="m791.69,692.87l-.81-2.43,4.05.81-3.24-4.85-1.62-1.62-4.85,1.62.81,3.24,5.66,3.24Zm21.84,1.62l2.43.81-1.62-2.43-.81,1.62Zm54.21,80.91l1.62-.81,1.62-1.62,5.66,4.85-8.9-10.52-4.85-7.28-7.28-.81-8.09-4.05-4.05-5.66-4.85-2.43-5.66,1.62-7.28-4.05-2.43-5.66,1.62-4.85-8.09-5.66-3.24-8.9-2.43-8.9-5.66-1.62-4.85-10.52-2.43-4.05,2.43,4.85-3.24.81-3.24-3.24,3.24,4.05,4.05,8.09,2.43,4.85,5.66,8.9.81,5.66-4.05-3.24-2.43,1.62v13.75l-5.66,3.24-2.43-.81-.81,5.66,8.09,6.47,1.62,7.28v2.43h-6.47l-1.62-8.09-3.24,5.66,3.24,8.9,8.09,4.05,4.85,3.24.81-6.47v6.47l4.85,2.43,6.47-3.24,8.9-.81,6.47-2.43,4.05.81,16.18-.81,10.52.81Zm-105.99-39.64l2.43,3.24,8.09,2.43,8.09-1.62v-8.09l-3.24-8.09-8.09-3.24-10.52-3.24-2.43,2.43,1.62,7.28-1.62,1.62h.81l4.85,7.28Zm-1.62,7.28l4.05-4.05-3.24-3.24-4.85-6.47,1.62,3.24-4.05-2.43-4.05-4.05-1.62,7.28,4.05,7.28,6.47,2.43,1.62-.81v.81Zm33.98,37.22l.81-4.05-4.05-3.24h-2.43l-.81,4.05,3.24,3.24h3.24Z"/>
          </g>
        </g>
      </a>
    </g>
    <g id="g250">
      <a xlink:href="http://ja.wikipedia.org/wiki/石垣市">
        <g id="a252">
          <g id="use254">
            <path id="_47207a" data-name="47207a" class="cls-4" d="m592.62,796.01l-10.52-2.43-2.43,2.43-2.43,3.24-2.43-2.43,3.24-1.62v-3.24l-1.62-6.47-8.09-3.24-1.62,1.62,4.85,3.24-2.43,2.43v8.09h-4.85l-2.43-3.24h-8.09l-4.05,8.9,6.47,6.47,3.24-4.85,5.66-2.43h5.66l4.05,7.28,4.05,1.62.81,7.28-.81,3.24-.81-2.43-11.33,10.52,4.85,4.85,8.09,2.43,1.62,3.24-1.62,2.43,8.09,3.24,9.71-1.62,4.05-4.85-1.62-3.24,4.05-.81,8.9,4.85,4.85-2.43,2.43-4.05,3.24-22.65-3.24-8.09,2.43-4.85-2.43-5.66,2.43-7.28,9.71-5.66v-8.09l4.05-3.24,5.66-5.66-.81-3.24v-4.85l6.47-5.66,4.85-4.85,1.62-8.09v-6.47l-8.09-2.43-2.43,4.85-4.05,8.9-6.47,7.28,3.24,8.9-2.43,1.62-3.24,12.14-.81,1.62-6.47-6.47-1.62,1.62-5.66,7.28h-4.85l1.62,4.05-3.24,6.47v7.28l-6.47-.81-6.47.81-4.05,3.24Zm-12.95-4.05l1.62,2.43.81-.81-1.62-3.24-.81,1.62Z"/>
          </g>
        </g>
      </a>
      <a xlink:href="http://ja.wikipedia.org/wiki/竹富町">
        <g id="a256">
          <g id="use258">
            <path id="_47381a" data-name="47381a" class="cls-4" d="m451.84,785.49l4.05,2.43-.81-3.24-3.24.81Zm-24.27,80.91l9.71,3.24h4.05l7.28,2.43,10.52-.81,5.66,2.43,5.66,4.05h6.47l1.62-5.66-1.62-4.05h2.43l5.66,2.43v-12.95l4.05-8.9,6.47,4.05v-11.33l4.05-6.47.81-3.24-7.28-.81-5.66-7.28h-7.28l-2.43-6.47-4.85-2.43-2.43,4.05-3.24-3.24h-3.24l-4.85-1.62-6.47,7.28-3.24-4.85,3.24.81-2.43-.81.81-4.05-4.85-2.43-6.47-8.9-6.47.81v3.24l3.24,1.62-.81,2.43-4.05,1.62-4.05,4.85.81,4.85-4.05-.81,4.05,8.09-4.05,2.43,4.05,4.05-2.43,8.09,1.62,11.33-3.24-3.24-1.62,2.43-.81-6.47-3.24.81v-5.66l-3.24,1.62-1.62,4.05-4.05-8.09-2.43.81,4.85,12.14-3.24,1.62v-1.62l-.81-4.05-5.66-2.43-1.62,4.05,2.43,5.66-7.28-1.62-3.24,1.62,5.66,8.9,1.62,2.43,8.09.81,6.47.81,1.62-8.09,4.05.81,7.28,5.66Zm-11.33-38.84l2.43-.81-1.62-1.62-4.85,2.43,2.43,4.05,1.62-4.05Zm.81,4.85l1.62,3.24,4.85,4.05.81-3.24-4.05-4.85-3.24.81Zm102.75,8.09l-7.28-4.85-3.24,2.43,2.43,4.05-7.28,3.24,12.95.81,3.24,3.24,4.05-2.43-4.85-6.47Zm33.17,8.09l3.24,5.66,6.47-4.05-5.66-8.09-4.05,6.47Zm-23.46,43.69l4.85-4.05.81-4.05-2.43-4.05-3.24,1.62-5.66-3.24-4.05,3.24,2.43,5.66,4.85,5.66,2.43-.81Zm-25.08-4.85l1.62-2.43-2.43-1.62-4.85,7.28,5.66-3.24Zm-11.33,6.47l2.43,3.24,3.24-.81-.81-4.05-4.85,1.62Z"/>
          </g>
        </g>
      </a>
    </g>
    <g>
      <polyline class="cls-21" points="687.44 918.42 687.44 919.42 686.44 919.42"/>
      <line class="cls-22" x1="684.43" y1="919.42" x2="380.37" y2="919.42"/>
      <polyline class="cls-21" points="379.37 919.42 378.37 919.42 378.37 918.42"/>
      <line class="cls-20" x1="378.37" y1="916.42" x2="378.37" y2="713.27"/>
      <polyline class="cls-21" points="378.37 712.27 378.37 711.27 379.37 711.27"/>
      <line class="cls-22" x1="381.38" y1="711.27" x2="685.43" y2="711.27"/>
      <polyline class="cls-21" points="686.44 711.27 687.44 711.27 687.44 712.27"/>
      <line class="cls-20" x1="687.44" y1="714.27" x2="687.44" y2="917.42"/>
    </g>
    <g>
      <polyline class="cls-21" points="913.47 807.84 913.46 808.84 912.46 808.82"/>
      <line class="cls-23" x1="910.45" y1="808.78" x2="731.18" y2="805.59"/>
      <polyline class="cls-21" points="730.18 805.57 729.18 805.56 729.19 804.56"/>
      <line class="cls-19" x1="729.23" y1="802.58" x2="731.5" y2="669.54"/>
      <polyline class="cls-21" points="731.52 668.55 731.54 667.55 732.54 667.57"/>
      <line class="cls-23" x1="734.54" y1="667.6" x2="913.82" y2="670.8"/>
      <polyline class="cls-21" points="914.82 670.81 915.82 670.83 915.8 671.83"/>
      <line class="cls-19" x1="915.77" y1="673.8" x2="913.49" y2="806.85"/>
    </g>
  </g>
  <g id="_04_promotion" data-name="04_promotion">
    <g>
      <path class="cls-27" d="m393.8,604.93c-1.51-.15-4.78-.01-7.67.5-3.34-.06-6.63-.03-9.91-.02-3.28,0-6.54-.02-9.8-.09-3.72-1.08-9.02-1.98-12.58-2.22-3.32-.21-6.17,1.37-6.36,3.6-.19,2.23,2.42,4.28,5.84,4.5,3.68.25,9.21-.16,13.01-1.09,3.4.08,6.8.1,10.19.1,3.38,0,6.75-.04,10.07.03,2.64.54,5.33,1.01,6.63,1.14,1.43.13,2.76-.06,3.79-.5,1.03-.44,1.76-1.13,1.91-2.02.15-.88-.32-1.79-1.24-2.52-.92-.73-2.3-1.27-3.86-1.42Z"/>
      <path class="cls-27" d="m319.84,602.8c-1.61-.1-5.08.08-8.22.54-7.23-.21-14.43-.17-21.61-.14-4.13-.98-10.03-1.61-13.96-1.61-3.68,0-6.66,1.81-6.67,4.05-.01,2.24,2.98,4.08,6.68,4.07,3.99,0,9.91-.69,14-1.72,7.37-.03,14.71-.07,22.02.15,2.9.58,5.93,1.03,7.39,1.11,3.23.18,5.96-1.03,6.12-2.82.16-1.78-2.42-3.46-5.75-3.65Z"/>
      <path class="cls-27" d="m240.08,601.56c-1.88,0-5.92.37-9.58,1-8.49.15-17,.57-25.45,1.1-4.91-.71-11.91-.9-16.54-.62-4.33.27-7.73,2.29-7.6,4.53.13,2.24,3.76,3.85,8.1,3.58,4.69-.29,11.6-1.4,16.35-2.71,8.65-.54,17.27-.96,25.91-1.1,3.45.43,7.07.7,8.82.7,3.85-.01,6.98-1.44,7-3.23,0-1.79-3.13-3.25-7.02-3.24Z"/>
      <path class="cls-27" d="m153.45,606.21c-1.62.12-5.08.73-8.19,1.58-7.3.68-14.58,1.55-21.82,2.43-4.28-.49-10.32-.42-14.29.05-3.71.44-6.52,2.58-6.27,4.81.25,2.23,3.48,3.7,7.22,3.26,4.03-.47,9.92-1.85,13.94-3.36,7.43-.9,14.84-1.79,22.26-2.47,3,.22,6.13.27,7.62.16,3.3-.24,5.9-1.84,5.79-3.63-.1-1.78-2.91-3.07-6.27-2.83Z"/>
      <path class="cls-27" d="m74.21,612.88c-1.81.17-5.67.85-9.19,1.67-8.23.64-16.51,1.19-24.81,2.12-2.43-.23-5.39-.28-8.32-.14-2.93.14-5.82.47-8.1.92-4.29.82-7.29,3.45-6.75,5.62.55,2.18,4.23,3.14,8.29,2.36,2.2-.43,4.91-1.06,7.66-1.76,2.74-.7,5.51-1.47,7.79-2.23,8.36-.94,16.81-1.49,25.3-2.15,3.42.23,7.02.21,8.73.05,3.8-.35,6.72-2.15,6.51-3.92-.21-1.78-3.38-2.87-7.12-2.52Z"/>
      <path class="cls-27" d="m54.28,585.48c-2.95,2.85-9.05,9.21-14.44,15.18l-27.26,26.32,22.1,10.74c9.12,5.55,22.56,12.81,31.72,17.26,8.56,4.16,16.29,5.9,17.27,3.88.98-2.02-5.16-7.02-13.72-11.19-9.24-4.49-23.25-10.57-33.22-14.29l-15.87-7.71,23.43-22.62c5.8-4.91,11.74-10.23,14.5-12.9,6.1-5.89,10.04-11.7,8.8-12.99-1.24-1.29-7.19,2.44-13.29,8.33Z"/>
    </g>
    <text class="cls-25" transform="translate(106.64 582.58)"><tspan x="0" y="0">プロモーション（世界</tspan><tspan class="cls-28" x="210" y="0">）</tspan></text>
    <g>
      <path class="cls-27" d="m394.18,341.85c-1.51-.15-4.78-.01-7.67.5-3.34-.06-6.63-.03-9.91-.02-3.28,0-6.54-.02-9.8-.09-3.72-1.08-9.02-1.98-12.58-2.22-3.32-.21-6.17,1.37-6.36,3.6-.19,2.23,2.42,4.28,5.84,4.5,3.68.25,9.21-.16,13.01-1.09,3.4.08,6.8.1,10.19.1,3.38,0,6.75-.04,10.07.03,2.64.54,5.33,1.01,6.63,1.14,1.43.13,2.76-.06,3.79-.5,1.03-.44,1.76-1.13,1.91-2.02.15-.88-.32-1.79-1.24-2.52-.92-.73-2.3-1.27-3.86-1.42Z"/>
      <path class="cls-27" d="m320.22,339.72c-1.61-.1-5.08.08-8.22.54-7.23-.21-14.43-.17-21.61-.14-4.13-.98-10.03-1.61-13.96-1.61-3.68,0-6.66,1.81-6.67,4.05-.01,2.24,2.98,4.08,6.68,4.07,3.99,0,9.91-.69,14-1.72,7.37-.03,14.71-.07,22.02.15,2.9.58,5.93,1.03,7.39,1.11,3.23.18,5.96-1.03,6.12-2.82.16-1.78-2.42-3.46-5.75-3.65Z"/>
      <path class="cls-27" d="m240.46,338.48c-1.88,0-5.92.37-9.58,1-8.49.15-17,.57-25.45,1.1-4.91-.71-11.91-.9-16.54-.62-4.33.27-7.73,2.29-7.6,4.53.13,2.24,3.76,3.85,8.1,3.58,4.69-.29,11.6-1.4,16.35-2.71,8.65-.54,17.27-.96,25.91-1.1,3.45.43,7.07.7,8.82.7,3.85-.01,6.98-1.44,7-3.23,0-1.79-3.13-3.25-7.02-3.24Z"/>
      <path class="cls-27" d="m153.83,343.13c-1.62.12-5.08.73-8.19,1.58-7.3.68-14.58,1.55-21.82,2.43-4.28-.49-10.32-.42-14.29.05-3.71.44-6.52,2.58-6.27,4.81.25,2.23,3.48,3.7,7.22,3.26,4.03-.47,9.92-1.85,13.94-3.36,7.43-.9,14.84-1.79,22.26-2.47,3,.22,6.13.27,7.62.16,3.3-.24,5.9-1.84,5.79-3.63-.1-1.78-2.91-3.07-6.27-2.83Z"/>
      <path class="cls-27" d="m74.59,349.8c-1.81.17-5.67.85-9.19,1.67-8.23.64-16.51,1.19-24.81,2.12-2.43-.23-5.39-.28-8.32-.14-2.93.14-5.82.47-8.1.92-4.29.82-7.29,3.45-6.75,5.62.55,2.18,4.23,3.14,8.29,2.36,2.2-.43,4.91-1.06,7.66-1.76,2.74-.7,5.51-1.47,7.79-2.23,8.36-.94,16.81-1.49,25.3-2.15,3.42.23,7.02.21,8.73.05,3.8-.35,6.72-2.15,6.51-3.92-.21-1.78-3.38-2.87-7.12-2.52Z"/>
      <path class="cls-27" d="m54.66,322.4c-2.95,2.85-9.05,9.21-14.44,15.18l-27.26,26.32,22.1,10.74c9.12,5.55,22.56,12.81,31.72,17.26,8.56,4.16,16.29,5.9,17.27,3.88.98-2.02-5.16-7.02-13.72-11.19-9.24-4.49-23.25-10.57-33.22-14.29l-15.87-7.71,23.43-22.62c5.8-4.91,11.74-10.23,14.5-12.9,6.1-5.89,10.04-11.7,8.8-12.99-1.24-1.29-7.19,2.44-13.29,8.33Z"/>
    </g>
    <text class="cls-25" transform="translate(97.02 319.5)"><tspan x="0" y="0">プロモーション（国内</tspan><tspan class="cls-28" x="210" y="0">）</tspan></text>
    <text class="cls-26" transform="translate(0 42.24)"><tspan x="0" y="0">沖縄プロモーション</tspan></text>
    <g>
      <path class="cls-24" d="m1146.5,450.38c-1.59,1.98-4.68,6.26-7.47,10.46l-92.18,114.32c-5.16,5.11-11.64,12.32-15.76,17.43-4.12,5.11-6.18,10.28-4.61,11.55,1.57,1.27,6.19-1.85,10.3-6.96,4.17-5.17,9.83-13.02,13.72-19.13l92.16-114.3c3.51-3.61,7.03-7.52,8.62-9.5,3.51-4.36,5.28-8.75,3.96-9.82-1.33-1.07-5.25,1.59-8.76,5.95Z"/>
      <path class="cls-24" d="m1151.74,481.93c.18-1,.26-3.12.15-5.17l6.43-36.21-27.96,12.2c-2.96.41-6.71,1.48-9.11,2.53-2.4,1.05-3.69,3.4-2.88,5.25.81,1.85,3.41,2.5,5.81,1.46,2.43-1.06,5.75-3.08,8.06-4.97l19.97-8.71-4.91,27.65c-.81,1.89-1.46,3.9-1.63,4.9-.39,2.2.65,4.22,2.33,4.52,1.68.3,3.35-1.24,3.74-3.44Z"/>
      <path class="cls-24" d="m1029.8,567.76c-.18,1-.26,3.12-.15,5.17l-6.43,36.21,27.96-12.2c2.96-.41,6.71-1.48,9.11-2.53,2.4-1.05,3.69-3.4,2.88-5.25-.81-1.85-3.41-2.5-5.81-1.46-2.43,1.06-5.75,3.07-8.06,4.97l-19.97,8.71,4.91-27.65c.81-1.89,1.46-3.9,1.63-4.9.39-2.2-.65-4.22-2.33-4.52-1.68-.3-3.35,1.24-3.74,3.44Z"/>
    </g>
    <g>
      <path class="cls-24" d="m1452.23,355.64c7.24-.99,22.83-2.51,37.03-3.36,32.72-3.1,65.49-5.21,98.26-6.44,9.4-.79,20.87-1.49,32.25-1.9,11.38-.41,22.66-.53,31.68-.34,8.44.17,16.04.89,21.45,1.88,5.42.98,8.63,2.19,8.44,3.17-.19,1-3.69,1.59-9.2,1.92-5.51.33-13.04.41-21.36.25-8.98-.19-20.15-.37-31.43-.47l-31.97-.25c-33.51,1.27-67.06,3.45-100.49,6.68-13.3,1.71-27.22,3.63-33.91,4.54-7.4.98-14.1,1.69-18.99,2.02-4.89.33-8,.27-8.2-.5-.2-.76,2.63-2.12,7.43-3.48,4.79-1.37,11.53-2.73,19.02-3.72Z"/>
      <path class="cls-24" d="m1452.24,374.78c7.33-.66,23.1-1.65,37.46-2.17,33.13-2.34,66.26-4.21,99.42-5.46,9.51-.8,21.11-1.54,32.61-2.02,11.5-.49,22.92-.72,32.05-.64,8.55.07,16.26.69,21.76,1.61,5.51.91,8.79,2.1,8.61,3.09-.18,1-3.71,1.61-9.28,2.01-5.57.39-13.2.58-21.64.51-9.1-.08-20.44-.14-31.87-.17-11.43-.03-22.95-.03-32.39-.13-33.94,1.28-67.91,3.21-101.84,5.64-13.51,1.4-27.69,2.83-34.52,3.45-7.54.67-14.38,1.02-19.35,1.05-4.97.02-8.08-.26-8.2-1.04-.12-.78,2.87-1.93,7.8-2.99,4.93-1.07,11.78-2.06,19.36-2.73Z"/>
      <path class="cls-24" d="m1471.75,403.44c-4.59-1.79-14.35-5.91-22.95-10.1-7.08-2.98-14.09-6.1-20.95-9.42-3.43-1.66-6.83-3.36-10.19-5.12l-2.51-1.33-2.81-1.52c-2.61-1.44-5.19-2.89-7.73-4.35l22.25-11.74c11.08-6.86,27.44-16.11,38.59-21.94,10.43-5.46,19.85-8.51,21.06-6.85,1.21,1.67-6.26,7.44-16.69,12.89-11.25,5.88-28.3,14.14-40.43,19.49l-15.42,8.13c.66.39,1.38.78,2.07,1.17l2.35,1.27,2.58,1.36c3.45,1.8,6.94,3.54,10.47,5.23,7.06,3.39,14.27,6.57,21.58,9.62,8.6,3.09,17.66,6.3,21.97,7.98,4.75,1.85,8.89,3.83,11.7,5.57,2.81,1.73,4.27,3.21,3.79,3.91-.48.71-2.78.53-6.14-.24-3.36-.78-7.82-2.16-12.57-4.01Z"/>
    </g>
    <g>
      <path class="cls-24" d="m1458.16,624.21c7.24-.99,22.83-2.51,37.03-3.36,32.72-3.1,65.49-5.21,98.26-6.44,9.4-.79,20.87-1.49,32.25-1.9,11.38-.41,22.66-.53,31.68-.34,8.44.17,16.04.89,21.45,1.88,5.42.98,8.63,2.19,8.44,3.17-.19,1-3.69,1.59-9.2,1.92-5.51.33-13.04.41-21.36.25-8.98-.19-20.15-.37-31.43-.47l-31.97-.25c-33.51,1.27-67.06,3.45-100.49,6.68-13.3,1.71-27.22,3.63-33.91,4.54-7.4.98-14.1,1.69-18.99,2.02-4.89.33-8,.27-8.2-.5-.2-.76,2.63-2.12,7.43-3.48,4.79-1.37,11.53-2.73,19.02-3.72Z"/>
      <path class="cls-24" d="m1458.17,643.36c7.33-.66,23.1-1.65,37.46-2.17,33.13-2.34,66.26-4.21,99.42-5.46,9.51-.8,21.11-1.54,32.61-2.02,11.5-.49,22.92-.72,32.05-.64,8.55.07,16.26.69,21.76,1.61,5.51.91,8.79,2.1,8.61,3.09-.18,1-3.71,1.61-9.28,2.01-5.57.39-13.2.58-21.64.51-9.1-.08-20.44-.14-31.87-.17-11.43-.03-22.95-.03-32.39-.13-33.94,1.28-67.91,3.21-101.84,5.64-13.51,1.4-27.69,2.83-34.52,3.45-7.54.67-14.38,1.02-19.35,1.05-4.97.02-8.08-.26-8.2-1.04-.12-.78,2.87-1.93,7.8-2.99,4.93-1.07,11.78-2.06,19.36-2.73Z"/>
      <path class="cls-24" d="m1477.68,672.01c-4.59-1.79-14.35-5.91-22.95-10.1-7.08-2.98-14.09-6.1-20.95-9.42-3.43-1.66-6.83-3.36-10.19-5.12l-2.51-1.33-2.81-1.52c-2.61-1.44-5.19-2.89-7.73-4.35l22.25-11.74c11.08-6.86,27.44-16.11,38.59-21.94,10.43-5.46,19.85-8.51,21.06-6.85,1.21,1.67-6.26,7.44-16.69,12.89-11.25,5.88-28.3,14.14-40.43,19.49l-15.42,8.13c.66.39,1.38.78,2.07,1.17l2.35,1.27,2.58,1.36c3.45,1.8,6.94,3.54,10.47,5.23,7.06,3.39,14.27,6.57,21.58,9.62,8.6,3.09,17.66,6.3,21.97,7.98,4.75,1.85,8.89,3.83,11.7,5.57,2.81,1.73,4.27,3.21,3.79,3.91-.48.71-2.78.53-6.14-.24-3.36-.78-7.82-2.16-12.57-4.01Z"/>
    </g>
    <text class="cls-25" transform="translate(1497.81 333.89)"><tspan x="0" y="0">一次交通（空</tspan><tspan class="cls-28" x="126" y="0">）</tspan></text>
    <text class="cls-25" transform="translate(936.99 461.67)"><tspan x="0" y="0">二次交通（陸</tspan><tspan class="cls-28" x="126" y="0">）</tspan></text>
    <text class="cls-25" transform="translate(1501.39 599.31)"><tspan x="0" y="0">一次交通（海</tspan><tspan class="cls-28" x="126" y="0">）</tspan></text>
    <g>
      <path class="cls-18" d="m434.21,831.63h0c7.94,0,13,8.47,9.25,15.46l-9.01,16.77c-.1.19-.38.19-.48,0l-9.01-16.77c-3.76-6.99,1.31-15.46,9.25-15.46Z"/>
      <circle class="cls-16" cx="434.21" cy="842.17" r="5.05"/>
      <line class="cls-16" x1="448.33" y1="842.17" x2="453.33" y2="842.17"/>
      <line class="cls-16" x1="447.21" y1="847.69" x2="451.81" y2="849.64"/>
      <line class="cls-16" x1="447.21" y1="836.64" x2="451.8" y2="834.68"/>
      <line class="cls-16" x1="420.09" y1="842.17" x2="415.09" y2="842.17"/>
      <line class="cls-16" x1="421.21" y1="847.69" x2="416.61" y2="849.64"/>
      <line class="cls-16" x1="421.21" y1="836.64" x2="416.62" y2="834.68"/>
    </g>
    <g>
      <path class="cls-13" d="m1065.65,355.14h0c7.94,0,13,8.47,9.25,15.46l-9.01,16.77c-.1.19-.38.19-.48,0l-9.01-16.77c-3.76-6.99,1.31-15.46,9.25-15.46Z"/>
      <circle class="cls-16" cx="1065.65" cy="365.68" r="5.05"/>
      <line class="cls-16" x1="1079.77" y1="365.68" x2="1084.77" y2="365.68"/>
      <line class="cls-16" x1="1078.65" y1="371.2" x2="1083.24" y2="373.16"/>
      <line class="cls-16" x1="1078.64" y1="360.15" x2="1083.24" y2="358.2"/>
      <line class="cls-16" x1="1051.52" y1="365.68" x2="1046.53" y2="365.68"/>
      <line class="cls-16" x1="1052.64" y1="371.2" x2="1048.05" y2="373.16"/>
      <line class="cls-16" x1="1052.65" y1="360.15" x2="1048.05" y2="358.2"/>
    </g>
    <g>
      <path class="cls-5" d="m901.65,577.17h0c7.94,0,13,8.47,9.25,15.46l-9.01,16.77c-.1.19-.38.19-.48,0l-9.01-16.77c-3.76-6.99,1.31-15.46,9.25-15.46Z"/>
      <circle class="cls-16" cx="901.65" cy="587.71" r="5.05"/>
      <line class="cls-16" x1="915.77" y1="587.71" x2="920.77" y2="587.71"/>
      <line class="cls-16" x1="914.65" y1="593.23" x2="919.25" y2="595.18"/>
      <line class="cls-16" x1="914.65" y1="582.18" x2="919.24" y2="580.22"/>
      <line class="cls-16" x1="887.53" y1="587.71" x2="882.53" y2="587.71"/>
      <line class="cls-16" x1="888.65" y1="593.23" x2="884.05" y2="595.18"/>
      <line class="cls-16" x1="888.65" y1="582.18" x2="884.06" y2="580.22"/>
    </g>
    <g>
      <path class="cls-14" d="m677.39,507.6h0c7.94,0,13,8.47,9.25,15.46l-9.01,16.77c-.1.19-.38.19-.48,0l-9.01-16.77c-3.76-6.99,1.31-15.46,9.25-15.46Z"/>
      <circle class="cls-16" cx="677.39" cy="518.14" r="5.05"/>
      <line class="cls-16" x1="691.52" y1="518.14" x2="696.51" y2="518.14"/>
      <line class="cls-16" x1="690.39" y1="523.66" x2="694.99" y2="525.62"/>
      <line class="cls-16" x1="690.39" y1="512.61" x2="694.98" y2="510.66"/>
      <line class="cls-16" x1="663.27" y1="518.14" x2="658.27" y2="518.14"/>
      <line class="cls-16" x1="664.39" y1="523.66" x2="659.79" y2="525.62"/>
      <line class="cls-16" x1="664.4" y1="512.61" x2="659.8" y2="510.66"/>
    </g>
    <g>
      <path class="cls-11" d="m1032.56,616.45h0c7.94,0,13,8.47,9.25,15.46l-9.01,16.77c-.1.19-.38.19-.48,0l-9.01-16.77c-3.76-6.99,1.31-15.46,9.25-15.46Z"/>
      <circle class="cls-16" cx="1032.56" cy="626.99" r="5.05"/>
      <line class="cls-16" x1="1046.68" y1="626.99" x2="1051.68" y2="626.99"/>
      <line class="cls-16" x1="1045.56" y1="632.52" x2="1050.16" y2="634.47"/>
      <line class="cls-16" x1="1045.56" y1="621.46" x2="1050.15" y2="619.51"/>
      <line class="cls-16" x1="1018.44" y1="626.99" x2="1013.44" y2="626.99"/>
      <line class="cls-16" x1="1019.56" y1="632.52" x2="1014.96" y2="634.47"/>
      <line class="cls-16" x1="1019.56" y1="621.46" x2="1014.97" y2="619.51"/>
    </g>
    <g>
      <path class="cls-2" d="m1181.42,425.97h0c7.94,0,13,8.47,9.25,15.46l-9.01,16.77c-.1.19-.38.19-.48,0l-9.01-16.77c-3.76-6.99,1.31-15.46,9.25-15.46Z"/>
      <circle class="cls-16" cx="1181.42" cy="436.51" r="5.05"/>
      <line class="cls-16" x1="1195.54" y1="436.51" x2="1200.54" y2="436.51"/>
      <line class="cls-16" x1="1194.42" y1="442.03" x2="1199.01" y2="443.98"/>
      <line class="cls-16" x1="1194.41" y1="430.98" x2="1199.01" y2="429.02"/>
      <line class="cls-16" x1="1167.29" y1="436.51" x2="1162.3" y2="436.51"/>
      <line class="cls-16" x1="1168.42" y1="442.03" x2="1163.82" y2="443.98"/>
      <line class="cls-16" x1="1168.42" y1="430.98" x2="1163.82" y2="429.02"/>
    </g>
    <g>
      <path class="cls-1" d="m852.88,410.38h0c7.94,0,13,8.47,9.25,15.46l-9.01,16.77c-.1.19-.38.19-.48,0l-9.01-16.77c-3.76-6.99,1.31-15.46,9.25-15.46Z"/>
      <circle class="cls-16" cx="852.88" cy="420.92" r="5.05"/>
      <line class="cls-16" x1="867.01" y1="420.92" x2="872" y2="420.92"/>
      <line class="cls-16" x1="865.88" y1="426.44" x2="870.48" y2="428.39"/>
      <line class="cls-16" x1="865.88" y1="415.39" x2="870.48" y2="413.43"/>
      <line class="cls-16" x1="838.76" y1="420.92" x2="833.76" y2="420.92"/>
      <line class="cls-16" x1="839.88" y1="426.44" x2="835.28" y2="428.39"/>
      <line class="cls-16" x1="839.89" y1="415.39" x2="835.29" y2="413.43"/>
    </g>
    <g>
      <path class="cls-6" d="m827.08,737.47h0c7.94,0,13,8.47,9.25,15.46l-9.01,16.77c-.1.19-.38.19-.48,0l-9.01-16.77c-3.76-6.99,1.31-15.46,9.25-15.46Z"/>
      <circle class="cls-16" cx="827.08" cy="748.01" r="5.05"/>
      <line class="cls-16" x1="841.2" y1="748.01" x2="846.2" y2="748.01"/>
      <line class="cls-16" x1="840.08" y1="753.53" x2="844.68" y2="755.48"/>
      <line class="cls-16" x1="840.07" y1="742.48" x2="844.67" y2="740.52"/>
      <line class="cls-16" x1="812.95" y1="748.01" x2="807.96" y2="748.01"/>
      <line class="cls-16" x1="814.08" y1="753.53" x2="809.48" y2="755.48"/>
      <line class="cls-16" x1="814.08" y1="742.48" x2="809.49" y2="740.52"/>
    </g>
    <g>
      <path class="cls-3" d="m1244.63,371.63h0c7.94,0,13,8.47,9.25,15.46l-9.01,16.77c-.1.19-.38.19-.48,0l-9.01-16.77c-3.76-6.99,1.31-15.46,9.25-15.46Z"/>
      <circle class="cls-16" cx="1244.63" cy="382.17" r="5.05"/>
      <line class="cls-16" x1="1258.76" y1="382.17" x2="1263.75" y2="382.17"/>
      <line class="cls-16" x1="1257.63" y1="387.69" x2="1262.23" y2="389.65"/>
      <line class="cls-16" x1="1257.63" y1="376.64" x2="1262.23" y2="374.69"/>
      <line class="cls-16" x1="1230.51" y1="382.17" x2="1225.51" y2="382.17"/>
      <line class="cls-16" x1="1231.63" y1="387.69" x2="1227.04" y2="389.65"/>
      <line class="cls-16" x1="1231.64" y1="376.64" x2="1227.04" y2="374.69"/>
    </g>
    <g>
      <path class="cls-8" d="m1140.22,514h0c7.94,0,13,8.47,9.25,15.46l-9.01,16.77c-.1.19-.38.19-.48,0l-9.01-16.77c-3.76-6.99,1.31-15.46,9.25-15.46Z"/>
      <circle class="cls-16" cx="1140.22" cy="524.54" r="5.05"/>
      <line class="cls-16" x1="1154.34" y1="524.54" x2="1159.34" y2="524.54"/>
      <line class="cls-16" x1="1153.22" y1="530.06" x2="1157.82" y2="532.02"/>
      <line class="cls-16" x1="1153.21" y1="519.01" x2="1157.81" y2="517.05"/>
      <line class="cls-16" x1="1126.09" y1="524.54" x2="1121.1" y2="524.54"/>
      <line class="cls-16" x1="1127.22" y1="530.06" x2="1122.62" y2="532.02"/>
      <line class="cls-16" x1="1127.22" y1="519.01" x2="1122.62" y2="517.05"/>
    </g>
    <g>
      <path class="cls-7" d="m590.89,807.03h0c7.94,0,13,8.47,9.25,15.46l-9.01,16.77c-.1.19-.38.19-.48,0l-9.01-16.77c-3.76-6.99,1.31-15.46,9.25-15.46Z"/>
      <circle class="cls-16" cx="590.89" cy="817.57" r="5.05"/>
      <line class="cls-16" x1="605.02" y1="817.57" x2="610.01" y2="817.57"/>
      <line class="cls-16" x1="603.89" y1="823.09" x2="608.49" y2="825.05"/>
      <line class="cls-16" x1="603.89" y1="812.04" x2="608.48" y2="810.08"/>
      <line class="cls-16" x1="576.77" y1="817.57" x2="571.77" y2="817.57"/>
      <line class="cls-16" x1="577.89" y1="823.09" x2="573.29" y2="825.05"/>
      <line class="cls-16" x1="577.9" y1="812.04" x2="573.3" y2="810.08"/>
    </g>
    <g>
      <path class="cls-10" d="m489.97,812.08h0c7.94,0,13,8.47,9.25,15.46l-9.01,16.77c-.1.19-.38.19-.48,0l-9.01-16.77c-3.76-6.99,1.31-15.46,9.25-15.46Z"/>
      <circle class="cls-16" cx="489.97" cy="822.62" r="5.05"/>
      <line class="cls-16" x1="504.1" y1="822.62" x2="509.09" y2="822.62"/>
      <line class="cls-16" x1="502.97" y1="828.14" x2="507.57" y2="830.09"/>
      <line class="cls-16" x1="502.97" y1="817.09" x2="507.57" y2="815.13"/>
      <line class="cls-16" x1="475.85" y1="822.62" x2="470.85" y2="822.62"/>
      <line class="cls-16" x1="476.97" y1="828.14" x2="472.37" y2="830.09"/>
      <line class="cls-16" x1="476.98" y1="817.09" x2="472.38" y2="815.13"/>
    </g>
    <g>
      <path class="cls-15" d="m1120.1,394.74h0c7.94,0,13,8.47,9.25,15.46l-9.01,16.77c-.1.19-.38.19-.48,0l-9.01-16.77c-3.76-6.99,1.31-15.46,9.25-15.46Z"/>
      <circle class="cls-16" cx="1120.1" cy="405.28" r="5.05"/>
      <line class="cls-16" x1="1134.23" y1="405.28" x2="1139.22" y2="405.28"/>
      <line class="cls-16" x1="1133.11" y1="410.81" x2="1137.7" y2="412.76"/>
      <line class="cls-16" x1="1133.1" y1="399.75" x2="1137.7" y2="397.8"/>
      <line class="cls-16" x1="1105.98" y1="405.28" x2="1100.98" y2="405.28"/>
      <line class="cls-16" x1="1107.1" y1="410.81" x2="1102.51" y2="412.76"/>
      <line class="cls-16" x1="1107.11" y1="399.75" x2="1102.51" y2="397.8"/>
    </g>
    <g>
      <path class="cls-17" d="m1059.27,507.2h0c7.94,0,13,8.47,9.25,15.46l-9.01,16.77c-.1.19-.38.19-.48,0l-9.01-16.77c-3.76-6.99,1.31-15.46,9.25-15.46Z"/>
      <circle class="cls-16" cx="1059.27" cy="517.74" r="5.05"/>
      <line class="cls-16" x1="1073.39" y1="517.74" x2="1078.39" y2="517.74"/>
      <line class="cls-16" x1="1072.27" y1="523.26" x2="1076.86" y2="525.21"/>
      <line class="cls-16" x1="1072.26" y1="512.21" x2="1076.86" y2="510.25"/>
      <line class="cls-16" x1="1045.14" y1="517.74" x2="1040.15" y2="517.74"/>
      <line class="cls-16" x1="1046.27" y1="523.26" x2="1041.67" y2="525.21"/>
      <line class="cls-16" x1="1046.27" y1="512.21" x2="1041.67" y2="510.25"/>
    </g>
    <g>
      <path class="cls-12" d="m764.22,701.38h0c7.94,0,13,8.47,9.25,15.46l-9.01,16.77c-.1.19-.38.19-.48,0l-9.01-16.77c-3.76-6.99,1.31-15.46,9.25-15.46Z"/>
      <circle class="cls-16" cx="764.22" cy="711.92" r="5.05"/>
      <line class="cls-16" x1="778.34" y1="711.92" x2="783.34" y2="711.92"/>
      <line class="cls-16" x1="777.22" y1="717.44" x2="781.82" y2="719.39"/>
      <line class="cls-16" x1="777.22" y1="706.39" x2="781.81" y2="704.43"/>
      <line class="cls-16" x1="750.1" y1="711.92" x2="745.1" y2="711.92"/>
      <line class="cls-16" x1="751.22" y1="717.44" x2="746.62" y2="719.39"/>
      <line class="cls-16" x1="751.22" y1="706.39" x2="746.63" y2="704.43"/>
    </g>
    <g>
      <path class="cls-9" d="m642.83,721.74h0c7.94,0,13,8.47,9.25,15.46l-9.01,16.77c-.1.19-.38.19-.48,0l-9.01-16.77c-3.76-6.99,1.31-15.46,9.25-15.46Z"/>
      <circle class="cls-16" cx="642.83" cy="732.28" r="5.05"/>
      <line class="cls-16" x1="656.95" y1="732.28" x2="661.95" y2="732.28"/>
      <line class="cls-16" x1="655.83" y1="737.81" x2="660.43" y2="739.76"/>
      <line class="cls-16" x1="655.82" y1="726.75" x2="660.42" y2="724.8"/>
      <line class="cls-16" x1="628.7" y1="732.28" x2="623.71" y2="732.28"/>
      <line class="cls-16" x1="629.83" y1="737.81" x2="625.23" y2="739.76"/>
      <line class="cls-16" x1="629.83" y1="726.75" x2="625.24" y2="724.8"/>
    </g>
  </g>
</svg>