<?xml version="1.0" encoding="UTF-8"?>
<svg id="_10_revenue" data-name="10_revenue" xmlns="http://www.w3.org/2000/svg" viewBox="0 0 1703.38 738.59">
  <defs>
    <style>
      .cls-1, .cls-2, .cls-3, .cls-4, .cls-5, .cls-6 {
        font-family: 'UDKakugo_LargePr6N-M-90ms-RKSJ-H', 'FOT-UDKakugo_Large Pr6N';
      }

      .cls-1, .cls-4 {
        font-size: 24px;
      }

      .cls-7, .cls-8, .cls-9, .cls-10, .cls-11, .cls-12, .cls-13, .cls-14 {
        stroke-miterlimit: 10;
      }

      .cls-7, .cls-8, .cls-9, .cls-14 {
        fill: #fff;
      }

      .cls-7, .cls-8, .cls-13 {
        stroke: #e63485;
      }

      .cls-8, .cls-14 {
        stroke-width: 3px;
      }

      .cls-15 {
        fill: #565656;
      }

      .cls-2 {
        fill: #3ab5e9;
      }

      .cls-2, .cls-3 {
        font-size: 29.94px;
      }

      .cls-3 {
        fill: #e63485;
      }

      .cls-16 {
        fill: #d7ffff;
      }

      .cls-4, .cls-17 {
        fill: #231815;
      }

      .cls-9 {
        stroke: #c8c9ca;
      }

      .cls-9, .cls-11, .cls-12, .cls-13 {
        stroke-width: 6px;
      }

      .cls-18 {
        letter-spacing: .25em;
      }

      .cls-10 {
        stroke-dasharray: 0 0 2 2;
      }

      .cls-10, .cls-11, .cls-12, .cls-14 {
        stroke: #3ab5e9;
      }

      .cls-10, .cls-11, .cls-13 {
        fill: none;
      }

      .cls-12 {
        fill: #a7ffff;
      }

      .cls-5 {
        font-size: 48px;
      }

      .cls-6 {
        font-size: 36px;
      }

      .cls-19 {
        letter-spacing: -.25em;
      }
    </style>
  </defs>
  <rect class="cls-12" x="728.32" y="220.81" width="440.78" height="297.67" rx="2.83" ry="2.83"/>
  <line class="cls-9" x1="142.19" y1="725.97" x2="1087.65" y2="725.97"/>
  <circle class="cls-8" cx="221.79" cy="725.97" r="11.12"/>
  <circle class="cls-14" cx="954.86" cy="725.97" r="11.12"/>
  <text class="cls-3" transform="translate(175.52 683.5) scale(1.12 1)"><tspan x="0" y="0">2025</tspan></text>
  <text class="cls-2" transform="translate(908.58 685.48) scale(1.12 1)"><tspan x="0" y="0">2030</tspan></text>
  <rect class="cls-13" x="128.49" y="325.88" width="192.59" height="192.59" rx="2.83" ry="2.83"/>
  <g>
    <rect class="cls-16" x="728.32" y="239.46" width="398.23" height="279.02" rx="2.83" ry="2.83"/>
    <rect class="cls-10" x="728.32" y="239.46" width="398.23" height="279.02" rx="2.83" ry="2.83"/>
  </g>
  <text class="cls-4" transform="translate(249.32 575.38)"><tspan x="0" y="0">消費単価</tspan></text>
  <text class="cls-4" transform="translate(77.04 296.27)"><tspan x="0" y="0">観光客数</tspan></text>
  <text class="cls-4" transform="translate(1115.64 575.38)"><tspan x="0" y="0">消費単価</tspan></text>
  <text class="cls-4" transform="translate(682.38 183.21)"><tspan x="0" y="0">観光客数</tspan></text>
  <rect class="cls-7" x="728.32" y="325.88" width="192.59" height="192.59" rx="2.83" ry="2.83"/>
  <rect class="cls-11" x="728.17" y="220.95" width="440.78" height="297.67" rx="2.83" ry="2.83"/>
  <g>
    <g>
      <path class="cls-15" d="m1312.74,276.62c-1.43,1.13-2.89,2.26-4.36,3.36l-1.59,1.19-1.42,1.03c-1.9,1.37-3.82,2.71-5.76,4.01-3.88,2.61-7.84,5.08-11.85,7.47-4.87,3.29-10.39,6.58-12.99,8.03-2.69,1.49-5.22,2.65-7.14,3.35-1.92.69-3.23.91-3.52.43-.29-.47.53-1.55,2.11-2.88,1.58-1.34,3.92-2.9,6.62-4.39,2.44-1.36,7.58-3.99,12.46-6.52,3.75-2.21,7.45-4.5,11.07-6.9.03,0,.06,0,.09,0,2.85-.21,4.63-.55,4.68-1.1.03-.32-.55-.68-1.61-1.02,1.3-.89,2.6-1.79,3.88-2.72l1.45-1.06,1.33-.98c.39-.3.81-.6,1.17-.9l-8.9-4.92c1.19-.1,1.9-.3,1.96-.63.11-.54-1.54-1.35-4.31-2.08-1.62-.42-3.62-.83-5.86-1.16-5.4-2.62-11.11-5.55-15.38-7.89-6.07-3.31-10.46-6.98-9.79-8.2.66-1.22,6.11.49,12.18,3.81,6.49,3.55,16.04,9.23,22.51,13.51l12.97,7.15Z"/>
      <path class="cls-15" d="m1297.51,284.07c-.37.25-.76.51-1.14.74-2.84.19-6.74.25-11.02.13-3.92-.12-12.07-.48-19.85-.86-19.5-.17-39.01,0-58.5.64-5.41.49-12.01,1.01-18.56,1.54-6.56.52-13.05,1.08-18.27,1.53-4.84.43-9.21.64-12.41.61-3.2-.02-5.24-.3-5.35-.98-.12-.67,1.73-1.65,4.88-2.52,3.14-.88,7.55-1.66,12.45-2.08,5.23-.47,11.79-.81,18.39-.99,6.61-.17,13.27-.18,18.74-.06,19.04-.61,38.06-.79,57.1-.65,8.25-.27,17.3-.29,21.52-.16,4.37.13,8.31.52,11.15,1.04,1.19.21,2.17.45,2.92.7-.67.47-1.35.93-2.03,1.38Z"/>
      <path class="cls-15" d="m1300.43,271.49c-.06.34-.77.53-1.96.63-.74.07-1.65.09-2.73.08-2.81-.02-6.67-.2-10.92-.56-3.86-.33-11.86-1.04-19.52-1.64-19.23-.75-38.5-.76-57.74-.15l-18.33,1.61c-6.46.57-12.87,1.19-18.02,1.72-4.76.49-9.08.76-12.26.78-3.16.01-5.18-.24-5.3-.93-.13-.67,1.69-1.65,4.78-2.57,3.08-.92,7.42-1.77,12.26-2.26,5.17-.54,11.65-.97,18.17-1.19,6.53-.22,13.12-.25,18.52-.11,18.82-.61,37.65-.61,56.46.09,8.16-.05,17.13.32,21.29.67,1.79.15,3.51.35,5.11.58,2.24.33,4.24.73,5.86,1.16,2.78.74,4.42,1.54,4.31,2.08Z"/>
    </g>
    <path class="cls-15" d="m1301.14,283.71c-.06.55-1.83.88-4.68,1.1-.03,0-.06,0-.09,0,.38-.24.77-.5,1.14-.74.68-.45,1.35-.91,2.03-1.38,1.05.34,1.63.71,1.61,1.02Z"/>
    <g>
      <path class="cls-15" d="m1298.39,272.08c-2.45-1.1-5.25-2.43-8.14-3.83,2.24.33,4.24.73,5.86,1.16,2.78.74,4.42,1.54,4.31,2.08-.06.34-.77.53-1.96.63l-.08-.04Z"/>
      <path class="cls-15" d="m1301.14,283.71c-.06.55-1.83.88-4.68,1.1-.03,0-.06,0-.09,0,.38-.24.77-.5,1.14-.74.68-.45,1.35-.91,2.03-1.38,1.05.34,1.63.71,1.61,1.02Z"/>
    </g>
  </g>
  <text class="cls-6" transform="translate(1423.58 258.11)"><tspan x="0" y="0">OKINAWA </tspan><tspan x="-67.61" y="48">BLUE OCEA</tspan><tspan class="cls-18" x="151.77" y="48">N</tspan><tspan x="190.87" y="48">基金</tspan></text>
  <text class="cls-1" transform="translate(1404.21 428.08)"><tspan x="0" y="0">沖縄の海の環境保全</tspan><tspan class="cls-19" x="216" y="0">・</tspan><tspan x="27.97" y="36">沖</tspan><tspan class="cls-18" x="51.97" y="36">縄</tspan><tspan x="81.97" y="36">is</tspan><tspan class="cls-18" x="98.75" y="36">m</tspan><tspan x="125.8" y="36">維持 等</tspan></text>
  <text class="cls-6" transform="translate(1384.34 609.27)"><tspan x="0" y="0">BLUER OCEAN </tspan><tspan x="39.24" y="48">OKINAWA</tspan></text>
  <g>
    <path class="cls-17" d="m1507.67,363.9c.9,1.39,2.98,4.31,4.96,6.9l9.11,14.05,4.8-7.93c2.62-3.45,6.08-8.59,8.22-12.12,2-3.3,2.92-6.4,2.05-6.93-.87-.53-3.19,1.72-5.19,5.03-2.16,3.56-5.11,9.01-6.95,12.92l-3,4.95-7.56-11.66c-1.49-2.7-3.13-5.49-3.98-6.79-1.87-2.88-3.94-4.87-4.62-4.43-.68.44.29,3.13,2.16,6.02Z"/>
    <path class="cls-17" d="m1507.67,344.44c.9,1.39,2.98,4.31,4.96,6.9l9.11,14.05,4.8-7.93c2.62-3.45,6.08-8.59,8.22-12.12,2-3.3,2.92-6.4,2.05-6.93-.87-.53-3.19,1.72-5.19,5.03-2.16,3.56-5.11,9.01-6.95,12.92l-3,4.95-7.56-11.66c-1.49-2.7-3.13-5.49-3.98-6.79-1.87-2.88-3.94-4.87-4.62-4.43-.68.44.29,3.13,2.16,6.02Z"/>
  </g>
  <g>
    <path class="cls-17" d="m1507.67,517.69c.9,1.39,2.98,4.31,4.96,6.9l9.11,14.05,4.8-7.93c2.62-3.45,6.08-8.59,8.22-12.12,2-3.3,2.92-6.4,2.05-6.93-.87-.53-3.19,1.72-5.19,5.03-2.16,3.56-5.11,9.01-6.95,12.92l-3,4.95-7.56-11.66c-1.49-2.7-3.13-5.49-3.98-6.79-1.87-2.88-3.94-4.87-4.62-4.43-.68.44.29,3.13,2.16,6.02Z"/>
    <path class="cls-17" d="m1507.67,498.23c.9,1.39,2.98,4.31,4.96,6.9l9.11,14.05,4.8-7.93c2.62-3.45,6.08-8.59,8.22-12.12,2-3.3,2.92-6.4,2.05-6.93-.87-.53-3.19,1.72-5.19,5.03-2.16,3.56-5.11,9.01-6.95,12.92l-3,4.95-7.56-11.66c-1.49-2.7-3.13-5.49-3.98-6.79-1.87-2.88-3.94-4.87-4.62-4.43-.68.44.29,3.13,2.16,6.02Z"/>
  </g>
  <text class="cls-5" transform="translate(0 42.24)"><tspan x="0" y="0">Blue Ocea</tspan><tspan class="cls-18" x="248.11" y="0">n</tspan><tspan x="288.62" y="0">サイクル</tspan></text>
</svg>