<?xml version="1.0" encoding="UTF-8"?>
<svg xmlns="http://www.w3.org/2000/svg" xmlns:xlink="http://www.w3.org/1999/xlink" viewBox="0 0 1920 1082">
  <defs>
    <style>
      .cls-1 {
        fill: #008b52;
        stroke: #008b52;
        stroke-miterlimit: 10;
      }

      .cls-2 {
        font-size: 21px;
      }

      .cls-2, .cls-3 {
        fill: #fff;
        font-family: 'UDKakugo_LargePr6N-M-90ms-RKSJ-H', 'FOT-UDKakugo_Large Pr6N';
      }

      .cls-4 {
        stroke-dasharray: 0 0 1.97 1.97;
      }

      .cls-4, .cls-5, .cls-6, .cls-7, .cls-8 {
        fill: none;
        stroke: gray;
        stroke-linejoin: round;
        stroke-width: .5px;
      }

      .cls-9 {
        fill: #2ef6ff;
      }

      .cls-3 {
        font-size: 48px;
      }

      .cls-5 {
        stroke-dasharray: 0 0 2 2;
      }

      .cls-10 {
        fill: #191919;
      }

      .cls-7 {
        stroke-dasharray: 0 0 2.01 2.01;
      }

      .cls-11 {
        letter-spacing: -.5em;
      }

      .cls-8 {
        stroke-dasharray: 0 0 2 2;
      }
    </style>
  </defs>
  <g id="background">
    <rect class="cls-10" width="1920" height="1082"/>
  </g>
  <g id="_01_okinawa" data-name="01_okinawa">
    <g id="g50">
      <a xlink:href="http://ja.wikipedia.org/wiki/那覇市">
        <g id="a52">
          <g id="use54">
            <path id="_47201" data-name="47201" class="cls-1" d="m1157.88,679.34l-.81-3.24,1.62-4.85-13.75.81-6.47-3.24h-.81l-.81-.81h-1.62l-.81-.81h-2.43l1.62,2.43-1.62,4.05,4.05-4.05,1.62,7.28-8.09,2.43,4.85,4.85-8.9-4.85-5.66,8.09,3.24,8.9,9.71-1.62,4.85-3.24v-4.05l4.85,1.62,4.85,1.62,10.52-11.33Z"/>
          </g>
        </g>
      </a>
      <a xlink:href="http://ja.wikipedia.org/wiki/宜野湾市">
        <g id="a56">
          <g id="use58">
            <path id="_47205" data-name="47205" class="cls-1" d="m1173.25,655.88l4.05-5.66-3.24-4.05-8.09.81-7.28,4.05.81,1.62-4.05-.81-1.62,4.05,1.62,2.43.81,5.66,4.05-1.62,4.05,2.43,6.47-.81,2.43-8.09Z"/>
          </g>
        </g>
      </a>
      <a xlink:href="http://ja.wikipedia.org/wiki/浦添市">
        <g id="a60">
          <g id="use62">
            <path id="_47208" data-name="47208" class="cls-1" d="m1164.35,664.78l-4.05-2.43-4.05,1.62-.81-5.66-1.62-2.43h-7.28l-5.66,8.09-3.24-.81v2.43l.81,3.24,6.47,3.24,13.75-.81,5.66-6.47Zm-29.94,2.43l1.62-1.62-4.05,1.62h2.43Z"/>
          </g>
        </g>
      </a>
      <a xlink:href="http://ja.wikipedia.org/wiki/名護市">
        <g id="a64">
          <g id="use66">
            <path id="_47209" data-name="47209" class="cls-1" d="m1265.49,483.54l-8.09,1.62-2.43,6.47,4.05,3.24,2.43.81,1.62-3.24,7.28,4.85v-4.85l-4.85-8.9Zm38.03,53.4h6.47v-5.66l4.85-.81-4.85-6.47-4.05-4.05-4.05.81-8.09-7.28.81-3.24-4.85-5.66-1.62-6.47-10.52,4.05h-7.28l-3.24,3.24-7.28-1.62-1.62-4.05-4.85-2.43-4.05,4.05-1.62-1.62-1.62,2.43-2.43-1.62h-1.62l-4.85,4.05-9.71-1.62-8.09,8.09.81,3.24-.81.81,5.66,1.62,4.05-3.24,15.37,8.09h5.66l1.62,5.66-3.24,7.28-4.85,8.09-4.05-2.43-4.05,4.85-3.24-3.24-1.62,4.85,4.85,8.9,5.66-.81,3.24-4.85h3.24v-3.24l4.85,4.85,4.05,4.05,3.24,1.62,1.62-4.05,5.66,1.62,3.24-2.43,7.28-1.62-5.66-10.52-1.62-3.24,3.24-.81.81,3.24,8.09-2.43,3.24,2.43,8.09,5.66-.81-3.24,3.24.81.81-2.43,6.47-3.24Z"/>
          </g>
        </g>
      </a>
      <a xlink:href="http://ja.wikipedia.org/wiki/糸満市">
        <g id="a68">
          <g id="use70">
            <path id="_47210" data-name="47210" class="cls-1" d="m1156.26,730.31l-4.85-3.24-4.05-9.71,2.43-7.28h-4.85l-2.43-2.43,4.05-5.66-.81-2.43-12.95,7.28-8.09,3.24,1.62,8.09v-4.05l6.47.81-2.43,1.62,1.62,4.05h-2.43l-1.62,15.37,5.66,2.43,3.24,1.62,5.66-4.85,10.52-1.62,3.24-3.24Z"/>
          </g>
        </g>
      </a>
      <a xlink:href="http://ja.wikipedia.org/wiki/沖縄市">
        <g id="a72">
          <g id="use74">
            <path id="_47211" data-name="47211" class="cls-1" d="m1180.53,635.65l4.05-2.43,1.62,8.9,7.28.81v-4.05l4.85-.81,1.62-1.62-4.85-3.24,3.24-3.24-8.09-10.52,5.66-8.9-4.05-5.66-2.43,2.43-3.24-4.85-2.43,3.24-6.47-12.14v-.81l-.81,2.43v12.14l-2.43,8.9,2.43,8.09-3.24,1.62-1.62,1.62,3.24,8.09-.81,1.62h2.43l2.43.81,1.62-2.43Zm22.65-2.43l-4.85-3.24-2.43,1.62,7.28,1.62Z"/>
          </g>
        </g>
      </a>
      <a xlink:href="http://ja.wikipedia.org/wiki/豊見城市">
        <g id="a76">
          <g id="use78">
            <path id="_47212" data-name="47212" class="cls-1" d="m1148.98,695.52h.81l-2.43-4.85-4.85-1.62-4.85-1.62v4.05l-4.85,3.24-9.71,1.62-1.62.81h4.85l-1.62,1.62,8.09,8.09,12.95-7.28,3.24-4.05Z"/>
          </g>
        </g>
      </a>
      <a xlink:href="http://ja.wikipedia.org/wiki/うるま市">
        <g id="a80">
          <g id="use82">
            <path id="_47213" data-name="47213" class="cls-1" d="m1209.66,607.33l-7.28-4.85-3.24-2.43,2.43-.81-4.85-1.62-4.85-5.66,1.62-3.24,4.05,1.62.81-1.62-.81-1.62-2.43-5.66h-.81l-5.66,1.62-11.33,9.71v.81l6.47,12.14,2.43-3.24,3.24,4.85,2.43-2.43,4.05,5.66-5.66,8.9,8.09,10.52,5.66-4.05h2.43l15.37,18.61,1.62-.81-.81,2.43.81-2.43,4.85,3.24.81-3.24-1.62-6.47-5.66-5.66,4.05-.81h-5.66l-4.85-3.24-5.66-8.09.81-5.66v-1.62h2.43l-3.24-4.85Zm49.35-4.05v-.81l-3.24-.81-2.43,5.66,4.05,2.43,1.62-6.47Zm-11.33,17.8l7.28-1.62,1.62-4.05-4.05-2.43.81-4.85-5.66,4.05-1.62,5.66,1.62,3.24Zm-1.62,0l-.81-4.05-4.05,3.24h-4.05l-.81-2.43,1.62,8.9-4.85,4.05h-7.28l16.99-2.43,5.66-4.85-2.43-2.43Zm-42.88,12.14l.81-3.24,4.85,1.62-3.24-5.66-7.28,4.05,4.85,3.24Zm36.41,1.62l.81,4.05,2.43,1.62,3.24-6.47-4.85-1.62-1.62,2.43Zm-12.95.81l4.85,3.24-2.43-4.05-2.43.81Zm8.9,33.17l2.43-2.43-.81-6.47-3.24.81-.81,5.66,2.43,2.43Z"/>
          </g>
        </g>
      </a>
      <a xlink:href="http://ja.wikipedia.org/wiki/南城市">
        <g id="a84">
          <g id="use86">
            <path id="_47215" data-name="47215" class="cls-1" d="m1177.3,715.75l16.18-14.56.81-4.05-4.05-1.62v-4.85l-7.28,1.62-5.66,7.28-3.24-.81v-6.47l-.81-.81-4.05,1.62-1.62-4.05-5.66-1.62-2.43.81-4.05,12.14.81,6.47,3.24.81,8.9,10.52,4.85-4.05,3.24,1.62h.81Zm46.93-16.99l-10.52,6.47.81.81,9.71-7.28Z"/>
          </g>
        </g>
      </a>
      <a xlink:href="http://ja.wikipedia.org/wiki/国頭村">
        <g id="a88">
          <g id="use90">
            <path id="_47301" data-name="47301" class="cls-1" d="m1373.09,461.7l4.85-2.43v-3.24l3.24-2.43-2.43-4.05,1.62-11.33-3.24-3.24.81-8.9-4.85-6.47-.81-4.85-1.62-2.43-4.05,1.62-3.24-3.24-7.28-6.47.81-3.24-3.24-.81-4.05,6.47,3.24,4.05-.81,5.66-7.28,13.75v2.43l-9.71,12.14-8.09,8.9-12.95,3.24,3.24,3.24-1.62,7.28,17.8,11.33,8.09-7.28,7.28,1.62.81,5.66,8.09,9.71,4.05-2.43,2.43-9.71,5.66-6.47-1.62-3.24,4.05-.81.81-4.05Z"/>
          </g>
        </g>
      </a>
      <a xlink:href="http://ja.wikipedia.org/wiki/大宜味村">
        <g id="a92">
          <g id="use94">
            <path id="_47302" data-name="47302" class="cls-1" d="m1333.45,478.69l-17.8-11.33-4.05,4.05-10.52,2.43-5.66,9.71,1.62,3.24,5.66.81,2.43,4.05h-5.66v-3.24l-11.33,9.71,1.62,6.47,4.85,5.66,13.75-13.75,8.9,2.43,16.18-20.23Z"/>
          </g>
        </g>
      </a>
      <a xlink:href="http://ja.wikipedia.org/wiki/東村">
        <g id="a96">
          <g id="use98">
            <path id="_47303" data-name="47303" class="cls-1" d="m1293.8,513.48l8.09,7.28,4.05-.81v-.81l-1.62-3.24,10.52,1.62.81-4.85-3.24-4.85,1.62-3.24,14.56,1.62,12.95-1.62,5.66-.81,3.24-4.05,4.05-7.28,3.24-.81v-3.24l-8.09-9.71-.81-5.66-7.28-1.62-8.09,7.28-16.18,20.23-8.9-2.43-13.75,13.75-.81,3.24Z"/>
          </g>
        </g>
      </a>
      <a xlink:href="http://ja.wikipedia.org/wiki/今帰仁村">
        <g id="a100">
          <g id="use102">
            <path id="_47306" data-name="47306" class="cls-1" d="m1267.91,471.41l-4.05-2.43-3.24,2.43,4.05,5.66,3.24-5.66Zm-25.89,20.23v8.9h1.62l2.43,1.62,1.62-2.43,1.62,1.62,4.05-4.05-2.43-2.43,3.24.81.81-8.9,5.66-5.66-11.33-5.66-3.24,2.43-1.62-1.62,1.62-2.43-6.47-2.43-12.95,2.43-.81,8.09,7.28,5.66h8.09l.81,4.05Z"/>
          </g>
        </g>
      </a>
      <a xlink:href="http://ja.wikipedia.org/wiki/本部町">
        <g id="a104">
          <g id="use106">
            <path id="_47308" data-name="47308" class="cls-1" d="m1242.02,500.53v-8.9l-.81-4.05h-8.09l-7.28-5.66.81-8.09h-9.71l-4.85-3.24-2.43,9.71,2.43,3.24,5.66,8.09-6.47,2.43v5.66l8.09,15.37.81-.81-.81-3.24,8.09-8.09,9.71,1.62,4.85-4.05Zm-37.22,4.85l4.85-8.9-3.24-1.62-4.05,2.43,2.43,8.09Zm-19.42-8.09l4.85.81-1.62-2.43-3.24,1.62Z"/>
          </g>
        </g>
      </a>
      <a xlink:href="http://ja.wikipedia.org/wiki/恩納村">
        <g id="a108">
          <g id="use110">
            <path id="_47311" data-name="47311" class="cls-1" d="m1170.01,583.87l-9.71,8.9,3.24,3.24,4.85-3.24,8.09,2.43.81-2.43,11.33-9.71,5.66-1.62h.81l2.43-5.66,12.14-7.28,7.28.81v-3.24l4.05-3.24,4.05,4.05,2.43-7.28h3.24l4.85-4.05-4.85-8.9-2.43.81-1.62,5.66-4.05-1.62-6.47,3.24-.81,3.24h-3.24l-2.43-3.24-2.43.81-1.62,2.43-1.62-2.43-1.62,3.24-3.24-.81-2.43,3.24,2.43,5.66-12.14,8.09-4.05,6.47-2.43,5.66h-4.85l-4.85-4.85-.81,1.62Z"/>
          </g>
        </g>
      </a>
      <a xlink:href="http://ja.wikipedia.org/wiki/宜野座村">
        <g id="a112">
          <g id="use114">
            <path id="_47313" data-name="47313" class="cls-1" d="m1254.16,569.3l4.85-4.05-3.24-4.85-1.62-2.43,2.43-2.43-4.05-4.05-4.85-4.85v3.24h-3.24l-3.24,4.85-5.66.81-4.85,4.05-.81,1.62,8.09,13.75.81-.81,1.62-3.24,4.85,2.43,8.9-4.05Z"/>
          </g>
        </g>
      </a>
      <a xlink:href="http://ja.wikipedia.org/wiki/金武町">
        <g id="a116">
          <g id="use118">
            <path id="_47314" data-name="47314" class="cls-1" d="m1218.56,580.63l7.28,1.62,3.24,3.24,8.9.81-1.62-4.05,1.62-3.24v-4.05l-8.09-13.75.81-1.62h-3.24l-2.43,7.28-4.05-4.05-4.05,3.24v3.24l-7.28-.81-12.14,7.28-2.43,5.66,2.43,5.66.81-.81,3.24-5.66,6.47-3.24h6.47l4.05,3.24Z"/>
          </g>
        </g>
      </a>
      <a xlink:href="http://ja.wikipedia.org/wiki/伊江村">
        <g id="a120">
          <g id="use122">
            <path id="_47315" data-name="47315" class="cls-1" d="m1181.34,471.41l2.43,1.62,8.9-2.43.81-4.85-7.28-6.47-14.56.81h-7.28l-1.62,5.66,3.24,5.66h15.37Z"/>
          </g>
        </g>
      </a>
      <a xlink:href="http://ja.wikipedia.org/wiki/読谷村">
        <g id="a124">
          <g id="use126">
            <path id="_47324" data-name="47324" class="cls-1" d="m1153.02,605.71l6.47,12.14,11.33-3.24-.81-2.43,6.47-13.75v-3.24l-8.09-2.43-4.85,3.24-3.24-3.24-3.24-.81-3.24-6.47h-5.66l2.43,1.62-1.62,11.33,4.05,7.28Z"/>
          </g>
        </g>
      </a>
      <a xlink:href="http://ja.wikipedia.org/wiki/嘉手納町">
        <g id="a128">
          <g id="use130">
            <path id="_47325" data-name="47325" class="cls-1" d="m1173.25,625.94l3.24-1.62-2.43-8.09,2.43-8.9v-8.9l-6.47,13.75.81,2.43-11.33,3.24-.81,1.62,2.43,7.28,5.66.81,6.47-1.62Z"/>
          </g>
        </g>
      </a>
      <a xlink:href="http://ja.wikipedia.org/wiki/北谷町">
        <g id="a132">
          <g id="use134">
            <path id="_47326" data-name="47326" class="cls-1" d="m1176.49,638.08v-.81h-2.43l.81-1.62-3.24-8.09,1.62-1.62-6.47,1.62-5.66-.81-.81,4.85,2.43,4.05h2.43l.81,11.33,8.09-.81-.81-4.85,3.24-3.24Z"/>
          </g>
        </g>
      </a>
      <a xlink:href="http://ja.wikipedia.org/wiki/北中城村">
        <g id="a136">
          <g id="use138">
            <path id="_47327" data-name="47327" class="cls-1" d="m1193.48,642.93l-7.28-.81-1.62-8.9-4.05,2.43-1.62,2.43-2.43-.81v.81l-3.24,3.24.81,4.85,3.24,4.05,5.66.81,4.85-2.43-1.62-3.24,2.43-3.24,4.85.81Z"/>
          </g>
        </g>
      </a>
      <a xlink:href="http://ja.wikipedia.org/wiki/中城村">
        <g id="a140">
          <g id="use142">
            <path id="_47328" data-name="47328" class="cls-1" d="m1169.21,668.82l8.09,4.85,4.05-14.56,5.66-3.24.81-7.28-4.85,2.43-5.66-.81-4.05,5.66-2.43,8.09-1.62,4.85Z"/>
          </g>
        </g>
      </a>
      <a xlink:href="http://ja.wikipedia.org/wiki/西原町">
        <g id="a144">
          <g id="use146">
            <path id="_47329" data-name="47329" class="cls-1" d="m1160.31,680.96l7.28,1.62,8.9-6.47,3.24,2.43-2.43-4.85-8.09-4.85,1.62-4.85-6.47.81-5.66,6.47-1.62,4.85.81,3.24,2.43,1.62Z"/>
          </g>
        </g>
      </a>
      <a xlink:href="http://ja.wikipedia.org/wiki/与那原町">
        <g id="a148">
          <g id="use150">
            <path id="_47348" data-name="47348" class="cls-1" d="m1167.59,682.58l-7.28-1.62,1.62,4.05v2.43l5.66,1.62,1.62,4.05,4.05-1.62-3.24-4.85-4.85-.81,2.43-3.24Z"/>
          </g>
        </g>
      </a>
      <a xlink:href="http://ja.wikipedia.org/wiki/南風原町">
        <g id="a152">
          <g id="use154">
            <path id="_47350" data-name="47350" class="cls-1" d="m1149.79,695.52l5.66,4.85,4.05-12.14,2.43-.81v-2.43l-1.62-4.05-2.43-1.62-10.52,11.33,2.43,4.85Z"/>
          </g>
        </g>
      </a>
      <a xlink:href="http://ja.wikipedia.org/wiki/渡嘉敷村">
        <g id="a156">
          <g id="use158">
            <path id="_47353" data-name="47353" class="cls-1" d="m1017.1,673.68l1.62,3.24.81-2.43-1.62-3.24-.81,2.43Zm-.81,20.23l3.24-2.43.81-4.05h-2.43l2.43-1.62-.81-3.24-.81-4.05-4.85-2.43-1.62,1.62-3.24,8.9,1.62,6.47-4.05.81.81,5.66,3.24,1.62-1.62,4.85,1.62,4.05.81-4.05,3.24-.81v-10.52l1.62-.81Zm30.74-7.28l4.85-8.09-2.43-2.43-4.85,10.52h2.43Z"/>
          </g>
        </g>
      </a>
      <a xlink:href="http://ja.wikipedia.org/wiki/座間味村">
        <g id="a160">
          <g id="use162">
            <path id="_47354" data-name="47354" class="cls-1" d="m1003.35,672.87l.81-3.24-6.47-1.62-1.62-3.24-.81,4.85-2.43,1.62-2.43-2.43-.81,3.24-4.85,1.62,5.66,3.24,2.43-1.62,2.43,4.05,2.43-4.85-1.62-3.24,2.43-1.62,1.62,4.85,4.05.81-.81-2.43Zm-34.79,7.28l1.62,3.24,3.24-5.66h-4.05l-.81,2.43Zm26.7,2.43l1.62,5.66,1.62-3.24-3.24-5.66v3.24Zm-6.47,7.28l-4.05-8.9-5.66,6.47.81.81,3.24.81v3.24l5.66-2.43Zm-3.24,4.85l1.62,2.43,3.24-.81-2.43-4.05-2.43,2.43Zm-15.37,8.09l.81-5.66-2.43-2.43-2.43,7.28,4.05.81Zm19.42,0l.81-4.85-3.24,3.24,2.43,1.62Z"/>
          </g>
        </g>
      </a>
      <a xlink:href="http://ja.wikipedia.org/wiki/粟国村">
        <g id="a164">
          <g id="use166">
            <path id="_47355" data-name="47355" class="cls-1" d="m970.17,527.23l1.62-6.47-3.24-4.05-5.66,2.43-5.66,8.09h12.95Z"/>
          </g>
        </g>
      </a>
      <a xlink:href="http://ja.wikipedia.org/wiki/渡名喜村">
        <g id="a168">
          <g id="use170">
            <path id="_47356" data-name="47356" class="cls-1" d="m933.76,621.89v2.43l3.24-3.24,2.43-3.24h-4.05l-1.62-8.09-2.43,2.43-.81,4.85,3.24,4.85Z"/>
          </g>
        </g>
      </a>
      <a xlink:href="http://ja.wikipedia.org/wiki/伊平屋村">
        <g id="a172">
          <g id="use174">
            <path id="_47359" data-name="47359" class="cls-1" d="m1231.5,349.24l1.62.81,3.24-10.52,6.47-.81,1.62-6.47,8.9-3.24,4.05-12.95,8.09-7.28-8.09,1.62-11.33,8.9-7.28,9.71-7.28,9.71,1.62,8.09-1.62,2.43Zm-7.28.81l3.24,2.43,4.05-4.05-4.05-1.62-3.24,3.24Z"/>
          </g>
        </g>
      </a>
      <a xlink:href="http://ja.wikipedia.org/wiki/伊是名村">
        <g id="a176">
          <g id="use178">
            <path id="_47360" data-name="47360" class="cls-1" d="m1237.98,378.36l2.43-7.28-6.47-4.85-8.09,4.85-2.43,3.24,4.05.81-.81,6.47,7.28,4.05,4.85-.81-.81-6.47Zm-11.33,11.33l.81,3.24h4.85l-3.24-1.62,1.62-1.62h-4.05Z"/>
          </g>
        </g>
      </a>
      <a xlink:href="http://ja.wikipedia.org/wiki/久米島町">
        <g id="a180">
          <g id="use182">
            <path id="_47361" data-name="47361" class="cls-1" d="m789.75,630.79l6.47,11.33,8.9,4.85.81.81-1.62-9.71.81-6.47,7.28-7.28-4.85-3.24-1.62-5.66-6.47-4.05-4.05-5.66-4.05-.81-7.28,3.24-9.71,4.05-4.85.81-1.62,4.05,3.24-4.05-4.05,6.47,3.24,3.24,2.43,1.62-4.05-3.24.81-3.24,5.66,6.47,12.14,1.62-1.62,1.62,4.05,3.24Zm39.64-5.66h6.47l4.05-2.43-10.52,2.43Zm-12.95,2.43l2.43.81-.81-2.43-1.62,1.62Zm-6.47.81h5.66l-2.43-2.43-3.24,2.43Z"/>
          </g>
        </g>
      </a>
      <a xlink:href="http://ja.wikipedia.org/wiki/八重瀬町">
        <g id="a184">
          <g id="use186">
            <path id="_47362" data-name="47362" class="cls-1" d="m1168.4,718.17l-8.9-10.52-3.24-.81-.81-6.47-5.66-4.85h-.81l-3.24,4.05.81,2.43-4.05,5.66,2.43,2.43h4.85l-2.43,7.28,4.05,9.71,4.85,3.24,4.05-5.66,8.09-6.47Z"/>
          </g>
        </g>
      </a>
    </g>
    <g id="g219">
      <a xlink:href="http://ja.wikipedia.org/wiki/宮古島市">
        <g id="a221">
          <g id="use223">
            <path id="_47214" data-name="47214" class="cls-1" d="m904.65,770.91l-.81-2.43,4.05.81-3.24-4.85-1.62-1.62-4.85,1.62.81,3.24,5.66,3.24Zm21.84,1.62l2.43.81-1.62-2.43-.81,1.62Zm54.21,80.91l1.62-.81,1.62-1.62,5.66,4.85-8.9-10.52-4.85-7.28-7.28-.81-8.09-4.05-4.05-5.66-4.85-2.43-5.66,1.62-7.28-4.05-2.43-5.66,1.62-4.85-8.09-5.66-3.24-8.9-2.43-8.9-5.66-1.62-4.85-10.52-2.43-4.05,2.43,4.85-3.24.81-3.24-3.24,3.24,4.05,4.05,8.09,2.43,4.85,5.66,8.9.81,5.66-4.05-3.24-2.43,1.62v13.75l-5.66,3.24-2.43-.81-.81,5.66,8.09,6.47,1.62,7.28v2.43h-6.47l-1.62-8.09-3.24,5.66,3.24,8.9,8.09,4.05,4.85,3.24.81-6.47v6.47l4.85,2.43,6.47-3.24,8.9-.81,6.47-2.43,4.05.81,16.18-.81,10.52.81Zm-105.99-39.64l2.43,3.24,8.09,2.43,8.09-1.62v-8.09l-3.24-8.09-8.09-3.24-10.52-3.24-2.43,2.43,1.62,7.28-1.62,1.62h.81l4.85,7.28Zm-1.62,7.28l4.05-4.05-3.24-3.24-4.85-6.47,1.62,3.24-4.05-2.43-4.05-4.05-1.62,7.28,4.05,7.28,6.47,2.43,1.62-.81v.81Zm33.98,37.22l.81-4.05-4.05-3.24h-2.43l-.81,4.05,3.24,3.24h3.24Z"/>
          </g>
        </g>
      </a>
    </g>
    <g id="g250">
      <a xlink:href="http://ja.wikipedia.org/wiki/石垣市">
        <g id="a252">
          <g id="use254">
            <path id="_47207a" data-name="47207a" class="cls-1" d="m705.57,874.05l-10.52-2.43-2.43,2.43-2.43,3.24-2.43-2.43,3.24-1.62v-3.24l-1.62-6.47-8.09-3.24-1.62,1.62,4.85,3.24-2.43,2.43v8.09h-4.85l-2.43-3.24h-8.09l-4.05,8.9,6.47,6.47,3.24-4.85,5.66-2.43h5.66l4.05,7.28,4.05,1.62.81,7.28-.81,3.24-.81-2.43-11.33,10.52,4.85,4.85,8.09,2.43,1.62,3.24-1.62,2.43,8.09,3.24,9.71-1.62,4.05-4.85-1.62-3.24,4.05-.81,8.9,4.85,4.85-2.43,2.43-4.05,3.24-22.65-3.24-8.09,2.43-4.85-2.43-5.66,2.43-7.28,9.71-5.66v-8.09l4.05-3.24,5.66-5.66-.81-3.24v-4.85l6.47-5.66,4.85-4.85,1.62-8.09v-6.47l-8.09-2.43-2.43,4.85-4.05,8.9-6.47,7.28,3.24,8.9-2.43,1.62-3.24,12.14-.81,1.62-6.47-6.47-1.62,1.62-5.66,7.28h-4.85l1.62,4.05-3.24,6.47v7.28l-6.47-.81-6.47.81-4.05,3.24Zm-12.95-4.05l1.62,2.43.81-.81-1.62-3.24-.81,1.62Z"/>
          </g>
        </g>
      </a>
      <a xlink:href="http://ja.wikipedia.org/wiki/竹富町">
        <g id="a256">
          <g id="use258">
            <path id="_47381a" data-name="47381a" class="cls-1" d="m564.79,863.54l4.05,2.43-.81-3.24-3.24.81Zm-24.27,80.91l9.71,3.24h4.05l7.28,2.43,10.52-.81,5.66,2.43,5.66,4.05h6.47l1.62-5.66-1.62-4.05h2.43l5.66,2.43v-12.95l4.05-8.9,6.47,4.05v-11.33l4.05-6.47.81-3.24-7.28-.81-5.66-7.28h-7.28l-2.43-6.47-4.85-2.43-2.43,4.05-3.24-3.24h-3.24l-4.85-1.62-6.47,7.28-3.24-4.85,3.24.81-2.43-.81.81-4.05-4.85-2.43-6.47-8.9-6.47.81v3.24l3.24,1.62-.81,2.43-4.05,1.62-4.05,4.85.81,4.85-4.05-.81,4.05,8.09-4.05,2.43,4.05,4.05-2.43,8.09,1.62,11.33-3.24-3.24-1.62,2.43-.81-6.47-3.24.81v-5.66l-3.24,1.62-1.62,4.05-4.05-8.09-2.43.81,4.85,12.14-3.24,1.62v-1.62l-.81-4.05-5.66-2.43-1.62,4.05,2.43,5.66-7.28-1.62-3.24,1.62,5.66,8.9,1.62,2.43,8.09.81,6.47.81,1.62-8.09,4.05.81,7.28,5.66Zm-11.33-38.84l2.43-.81-1.62-1.62-4.85,2.43,2.43,4.05,1.62-4.05Zm.81,4.85l1.62,3.24,4.85,4.05.81-3.24-4.05-4.85-3.24.81Zm102.75,8.09l-7.28-4.85-3.24,2.43,2.43,4.05-7.28,3.24,12.95.81,3.24,3.24,4.05-2.43-4.85-6.47Zm33.17,8.09l3.24,5.66,6.47-4.05-5.66-8.09-4.05,6.47Zm-23.46,43.69l4.85-4.05.81-4.05-2.43-4.05-3.24,1.62-5.66-3.24-4.05,3.24,2.43,5.66,4.85,5.66,2.43-.81Zm-25.08-4.85l1.62-2.43-2.43-1.62-4.85,7.28,5.66-3.24Zm-11.33,6.47l2.43,3.24,3.24-.81-.81-4.05-4.85,1.62Z"/>
          </g>
        </g>
      </a>
    </g>
    <g>
      <polyline class="cls-6" points="800.39 996.46 800.39 997.46 799.39 997.46"/>
      <line class="cls-7" x1="797.39" y1="997.46" x2="493.33" y2="997.46"/>
      <polyline class="cls-6" points="492.33 997.46 491.33 997.46 491.33 996.46"/>
      <line class="cls-5" x1="491.33" y1="994.46" x2="491.33" y2="791.31"/>
      <polyline class="cls-6" points="491.33 790.31 491.33 789.31 492.33 789.31"/>
      <line class="cls-7" x1="494.33" y1="789.31" x2="798.39" y2="789.31"/>
      <polyline class="cls-6" points="799.39 789.31 800.39 789.31 800.39 790.31"/>
      <line class="cls-5" x1="800.39" y1="792.32" x2="800.39" y2="995.46"/>
    </g>
    <g>
      <polyline class="cls-6" points="1026.43 885.88 1026.41 886.88 1025.41 886.86"/>
      <line class="cls-8" x1="1023.41" y1="886.83" x2="844.13" y2="883.63"/>
      <polyline class="cls-6" points="843.13 883.62 842.13 883.6 842.15 882.6"/>
      <line class="cls-4" x1="842.18" y1="880.63" x2="844.46" y2="747.58"/>
      <polyline class="cls-6" points="844.48 746.59 844.49 745.59 845.49 745.61"/>
      <line class="cls-8" x1="847.5" y1="745.65" x2="1026.77" y2="748.84"/>
      <polyline class="cls-6" points="1027.77 748.86 1028.77 748.88 1028.76 749.88"/>
      <line class="cls-4" x1="1028.72" y1="751.85" x2="1026.45" y2="884.9"/>
    </g>
  </g>
  <g id="_03_accessibility" data-name="03_accessibility">
    <g>
      <path class="cls-9" d="m1259.46,528.42c-1.59,1.98-4.68,6.26-7.47,10.46l-92.18,114.32c-5.16,5.11-11.64,12.32-15.76,17.43-4.12,5.11-6.18,10.28-4.61,11.55,1.57,1.27,6.19-1.85,10.3-6.96,4.17-5.17,9.83-13.02,13.72-19.13l92.16-114.3c3.51-3.61,7.03-7.52,8.62-9.5,3.51-4.36,5.28-8.75,3.96-9.82-1.33-1.07-5.25,1.59-8.76,5.95Z"/>
      <path class="cls-9" d="m1264.69,559.98c.18-1,.26-3.12.15-5.17l6.43-36.21-27.96,12.2c-2.96.41-6.71,1.48-9.11,2.53-2.4,1.05-3.69,3.4-2.88,5.25.81,1.85,3.41,2.5,5.81,1.46,2.43-1.06,5.75-3.08,8.06-4.97l19.97-8.71-4.91,27.65c-.81,1.89-1.46,3.9-1.63,4.9-.39,2.2.65,4.22,2.33,4.52,1.68.3,3.35-1.24,3.74-3.44Z"/>
      <path class="cls-9" d="m1142.76,645.8c-.18,1-.26,3.12-.15,5.17l-6.43,36.21,27.96-12.2c2.96-.41,6.71-1.48,9.11-2.53,2.4-1.05,3.69-3.4,2.88-5.25-.81-1.85-3.41-2.5-5.81-1.46-2.43,1.06-5.75,3.07-8.06,4.97l-19.97,8.71,4.91-27.65c.81-1.89,1.46-3.9,1.63-4.9.39-2.2-.65-4.22-2.33-4.52-1.68-.3-3.35,1.24-3.74,3.44Z"/>
    </g>
    <g>
      <path class="cls-9" d="m1565.19,433.68c7.24-.99,22.83-2.51,37.03-3.36,32.72-3.1,65.49-5.21,98.26-6.44,9.4-.79,20.87-1.49,32.25-1.9,11.38-.41,22.66-.53,31.68-.34,8.44.17,16.04.89,21.45,1.88,5.42.98,8.63,2.19,8.44,3.17-.19,1-3.69,1.59-9.2,1.92-5.51.33-13.04.41-21.36.25-8.98-.19-20.15-.37-31.43-.47l-31.97-.25c-33.51,1.27-67.06,3.45-100.49,6.68-13.3,1.71-27.22,3.63-33.91,4.54-7.4.98-14.1,1.69-18.99,2.02-4.89.33-8,.27-8.2-.5-.2-.76,2.63-2.12,7.43-3.48,4.79-1.37,11.53-2.73,19.02-3.72Z"/>
      <path class="cls-9" d="m1565.2,452.83c7.33-.66,23.1-1.65,37.46-2.17,33.13-2.34,66.26-4.21,99.42-5.46,9.51-.8,21.11-1.54,32.61-2.02,11.5-.49,22.92-.72,32.05-.64,8.55.07,16.26.69,21.76,1.61,5.51.91,8.79,2.1,8.61,3.09-.18,1-3.71,1.61-9.28,2.01-5.57.39-13.2.58-21.64.51-9.1-.08-20.44-.14-31.87-.17-11.43-.03-22.95-.03-32.39-.13-33.94,1.28-67.91,3.21-101.84,5.64-13.51,1.4-27.69,2.83-34.52,3.45-7.54.67-14.38,1.02-19.35,1.05-4.97.02-8.08-.26-8.2-1.04-.12-.78,2.87-1.93,7.8-2.99,4.93-1.07,11.78-2.06,19.36-2.73Z"/>
      <path class="cls-9" d="m1584.71,481.48c-4.59-1.79-14.35-5.91-22.95-10.1-7.08-2.98-14.09-6.1-20.95-9.42-3.43-1.66-6.83-3.36-10.19-5.12l-2.51-1.33-2.81-1.52c-2.61-1.44-5.19-2.89-7.73-4.35l22.25-11.74c11.08-6.86,27.44-16.11,38.59-21.94,10.43-5.46,19.85-8.51,21.06-6.85,1.21,1.67-6.26,7.44-16.69,12.89-11.25,5.88-28.3,14.14-40.43,19.49l-15.42,8.13c.66.39,1.38.78,2.07,1.17l2.35,1.27,2.58,1.36c3.45,1.8,6.94,3.54,10.47,5.23,7.06,3.39,14.27,6.57,21.58,9.62,8.6,3.09,17.66,6.3,21.97,7.98,4.75,1.85,8.89,3.83,11.7,5.57,2.81,1.73,4.27,3.21,3.79,3.91-.48.71-2.78.53-6.14-.24-3.36-.78-7.82-2.16-12.57-4.01Z"/>
    </g>
    <g>
      <path class="cls-9" d="m1571.11,702.25c7.24-.99,22.83-2.51,37.03-3.36,32.72-3.1,65.49-5.21,98.26-6.44,9.4-.79,20.87-1.49,32.25-1.9,11.38-.41,22.66-.53,31.68-.34,8.44.17,16.04.89,21.45,1.88,5.42.98,8.63,2.19,8.44,3.17-.19,1-3.69,1.59-9.2,1.92-5.51.33-13.04.41-21.36.25-8.98-.19-20.15-.37-31.43-.47l-31.97-.25c-33.51,1.27-67.06,3.45-100.49,6.68-13.3,1.71-27.22,3.63-33.91,4.54-7.4.98-14.1,1.69-18.99,2.02-4.89.33-8,.27-8.2-.5-.2-.76,2.63-2.12,7.43-3.48,4.79-1.37,11.53-2.73,19.02-3.72Z"/>
      <path class="cls-9" d="m1571.13,721.4c7.33-.66,23.1-1.65,37.46-2.17,33.13-2.34,66.26-4.21,99.42-5.46,9.51-.8,21.11-1.54,32.61-2.02,11.5-.49,22.92-.72,32.05-.64,8.55.07,16.26.69,21.76,1.61,5.51.91,8.79,2.1,8.61,3.09-.18,1-3.71,1.61-9.28,2.01-5.57.39-13.2.58-21.64.51-9.1-.08-20.44-.14-31.87-.17-11.43-.03-22.95-.03-32.39-.13-33.94,1.28-67.91,3.21-101.84,5.64-13.51,1.4-27.69,2.83-34.52,3.45-7.54.67-14.38,1.02-19.35,1.05-4.97.02-8.08-.26-8.2-1.04-.12-.78,2.87-1.93,7.8-2.99,4.93-1.07,11.78-2.06,19.36-2.73Z"/>
      <path class="cls-9" d="m1590.64,750.05c-4.59-1.79-14.35-5.91-22.95-10.1-7.08-2.98-14.09-6.1-20.95-9.42-3.43-1.66-6.83-3.36-10.19-5.12l-2.51-1.33-2.81-1.52c-2.61-1.44-5.19-2.89-7.73-4.35l22.25-11.74c11.08-6.86,27.44-16.11,38.59-21.94,10.43-5.46,19.85-8.51,21.06-6.85,1.21,1.67-6.26,7.44-16.69,12.89-11.25,5.88-28.3,14.14-40.43,19.49l-15.42,8.13c.66.39,1.38.78,2.07,1.17l2.35,1.27,2.58,1.36c3.45,1.8,6.94,3.54,10.47,5.23,7.06,3.39,14.27,6.57,21.58,9.62,8.6,3.09,17.66,6.3,21.97,7.98,4.75,1.85,8.89,3.83,11.7,5.57,2.81,1.73,4.27,3.21,3.79,3.91-.48.71-2.78.53-6.14-.24-3.36-.78-7.82-2.16-12.57-4.01Z"/>
    </g>
    <text class="cls-2" transform="translate(1610.77 411.94)"><tspan x="0" y="0">一次交通（空</tspan><tspan class="cls-11" x="126" y="0">）</tspan></text>
    <text class="cls-2" transform="translate(1049.95 539.71)"><tspan x="0" y="0">二次交通（陸</tspan><tspan class="cls-11" x="126" y="0">）</tspan></text>
    <text class="cls-2" transform="translate(1614.34 677.36)"><tspan x="0" y="0">一次交通（海</tspan><tspan class="cls-11" x="126" y="0">）</tspan></text>
    <text class="cls-3" transform="translate(112.96 120.28)"><tspan x="0" y="0">アクセシビリティ改善</tspan></text>
  </g>
</svg>